 <svg xmlns="http://www.w3.org/2000/svg" width="40" height="40" viewBox="0 0 40 40"
                                fill="none">
                                <path
                                    d="M36.2419 31.0722C36.2395 30.5508 36.134 30.035 35.9314 29.5544C35.7289 29.0739 35.4334 28.6381 35.0619 28.2722L31.6619 24.9002C30.9182 24.1598 29.9114 23.7441 28.8619 23.7442C28.3391 23.7499 27.8227 23.8589 27.3422 24.0648C26.8616 24.2708 26.4266 24.5696 26.0619 24.9442L24.3139 26.7122C23.7219 27.0362 20.5339 25.5482 17.5459 22.5882C14.5579 19.6282 13.0019 16.4002 13.3099 15.8322L15.0699 14.0562C15.8166 13.3029 16.2336 12.2839 16.2291 11.2233C16.2246 10.1626 15.799 9.14716 15.0459 8.40023L11.6499 5.03223C10.8951 4.29084 9.87994 3.87446 8.8219 3.87223C8.29908 3.8775 7.78247 3.98626 7.3019 4.19222C6.82132 4.39818 6.38629 4.69727 6.0219 5.07223L2.2619 8.84423C0.705903 10.4002 0.881903 13.4122 2.7619 17.2842C4.5179 20.8842 7.5619 24.9722 11.3699 28.7362C16.8979 34.2162 23.8699 38.8002 28.3219 38.8002C28.8743 38.8284 29.4267 38.7444 29.9457 38.5533C30.4647 38.3621 30.9397 38.0679 31.3419 37.6882L35.0859 33.9122C35.4559 33.5381 35.7485 33.0947 35.9468 32.6074C36.1452 32.1201 36.2455 31.5984 36.2419 31.0722ZM33.9499 32.7722L30.2059 36.5482C28.1699 38.6002 20.4019 35.4322 12.4979 27.6002C8.8259 23.9602 5.8779 20.0482 4.2019 16.5842C2.6859 13.4642 2.3859 10.9842 3.4019 9.96823L7.1459 6.19223C7.59294 5.7425 8.1998 5.48797 8.8339 5.48423C9.14659 5.48373 9.4563 5.54495 9.74527 5.66439C10.0343 5.78382 10.2968 5.95912 10.5179 6.18023L13.9179 9.54823C14.3637 9.99774 14.6138 10.6052 14.6138 11.2382C14.6138 11.8713 14.3637 12.4787 13.9179 12.9282L12.1579 14.7082C11.3859 15.4842 11.5499 16.8882 12.6499 18.8802C13.6625 20.6421 14.9114 22.2571 16.3619 23.6802C17.7995 25.1212 19.428 26.3581 21.2019 27.3562C23.2019 28.4362 24.6099 28.5922 25.3819 27.8162L27.1419 26.0362C27.5889 25.5865 28.1958 25.332 28.8299 25.3282C29.459 25.3298 30.0622 25.5783 30.5099 26.0202L33.9099 29.3922C34.3557 29.8417 34.6058 30.4492 34.6058 31.0822C34.6058 31.7153 34.3557 32.3227 33.9099 32.7722H33.9499ZM38.0019 19.8882C38.2141 19.8882 38.4176 19.8039 38.5676 19.6539C38.7176 19.5039 38.8019 19.3004 38.8019 19.0882C38.7966 14.357 36.9151 9.82094 33.5699 6.47505C30.2248 3.12916 25.6892 1.24659 20.9579 1.24023C20.7457 1.24023 20.5422 1.32452 20.3922 1.47455C20.2422 1.62458 20.1579 1.82806 20.1579 2.04023C20.1579 2.25241 20.2422 2.45589 20.3922 2.60592C20.5422 2.75595 20.7457 2.84023 20.9579 2.84023C25.2651 2.84553 29.3944 4.55919 32.4397 7.60525C35.485 10.6513 37.1977 14.781 37.2019 19.0882C37.2019 19.3004 37.2862 19.5039 37.4362 19.6539C37.5862 19.8039 37.7897 19.8882 38.0019 19.8882Z"
                                    fill="white" />
                                <path
                                    d="M31.4643 19.0876C31.4643 19.2998 31.5485 19.5032 31.6986 19.6533C31.8486 19.8033 32.0521 19.8876 32.2642 19.8876C32.4764 19.8876 32.6799 19.8033 32.8299 19.6533C32.98 19.5032 33.0642 19.2998 33.0642 19.0876C33.0611 15.877 31.7845 12.7987 29.5146 10.528C27.2447 8.25739 24.1669 6.97982 20.9562 6.97559C20.7441 6.97559 20.5406 7.05987 20.3906 7.2099C20.2405 7.35993 20.1562 7.56341 20.1562 7.77559C20.1562 7.98776 20.2405 8.19124 20.3906 8.34127C20.5406 8.4913 20.7441 8.57559 20.9562 8.57559C23.7425 8.57982 26.4134 9.68882 28.3833 11.6594C30.3531 13.63 31.4611 16.3013 31.4643 19.0876ZM20.1562 13.5116C20.1562 13.7238 20.2405 13.9272 20.3906 14.0773C20.5406 14.2273 20.7441 14.3116 20.9562 14.3116C22.2203 14.3189 23.4304 14.8246 24.3238 15.7188C25.2173 16.613 25.722 17.8235 25.7282 19.0876C25.7282 19.2998 25.8125 19.5032 25.9626 19.6533C26.1126 19.8033 26.3161 19.8876 26.5282 19.8876C26.7404 19.8876 26.9439 19.8033 27.0939 19.6533C27.244 19.5032 27.3282 19.2998 27.3282 19.0876C27.3219 17.3992 26.6487 15.7817 25.4552 14.5875C24.2617 13.3932 22.6446 12.719 20.9562 12.7116C20.7441 12.7116 20.5406 12.7959 20.3906 12.9459C20.2405 13.0959 20.1562 13.2994 20.1562 13.5116Z"
                                    fill="white" />
                            </svg>