 <svg xmlns="http://www.w3.org/2000/svg" width="50" height="50" viewBox="0 0 50 50"
                                    fill="none">
                                    <path opacity="0.932" fill-rule="evenodd" clip-rule="evenodd"
                                        d="M12.158 1.70896C17.0571 1.30262 20.9146 3.09299 23.7303 7.08005C25.5764 10.058 26.081 13.248 25.244 16.6504C25.2928 16.6829 25.3416 16.7155 25.3904 16.748C25.8508 16.5674 26.3228 16.4371 26.8065 16.3574C26.7902 15.4129 26.8065 14.4688 26.8553 13.5254C26.8918 13.4359 26.9406 13.3545 27.0018 13.2812C27.371 13.1028 27.7616 13.0052 28.1736 12.9883C30.1057 12.7521 32.0262 12.8172 33.9354 13.1836C34.1294 13.3124 34.2434 13.4914 34.2772 13.7207C34.326 14.599 34.3422 15.4779 34.326 16.3574C35.5989 16.6441 36.7871 17.1324 37.8904 17.8222C38.5282 17.1518 39.1955 16.5171 39.8924 15.9179C40.0877 15.8528 40.283 15.8528 40.4783 15.9179C42.3133 17.1344 43.8596 18.6481 45.117 20.459C45.1821 20.7194 45.1821 20.9798 45.117 21.2402C44.5327 21.9059 43.9306 22.557 43.3104 23.1933C43.9181 24.311 44.39 25.4829 44.7264 26.709C45.6466 26.789 46.5743 26.8379 47.5096 26.8554C47.7212 26.9368 47.8677 27.0833 47.949 27.2949C48.2745 29.4433 48.2745 31.5918 47.949 33.7402C47.826 34.0261 47.6144 34.2052 47.3143 34.2773C46.4679 34.3098 45.6216 34.3425 44.7752 34.375C44.421 35.5995 43.9327 36.7714 43.3104 37.8906C43.9113 38.5568 44.5135 39.2241 45.117 39.8926C45.1821 40.1204 45.1821 40.3483 45.117 40.5761C43.8638 42.3503 42.3501 43.8639 40.576 45.1172C40.2699 45.1943 39.977 45.1618 39.6971 45.0195C39.1232 44.4129 38.521 43.8432 37.8904 43.3105C36.7819 43.897 35.6264 44.369 34.4236 44.7265C34.3437 45.6141 34.2948 46.5094 34.2772 47.4121C34.1632 47.6562 33.9842 47.8352 33.74 47.9492C31.5916 48.2747 29.4432 48.2747 27.2947 47.9492C27.0831 47.8678 26.9366 47.7214 26.8553 47.5097C26.8377 46.5745 26.7889 45.6468 26.7088 44.7265C25.4827 44.3902 24.3108 43.9182 23.1932 43.3105C22.5568 43.9307 21.9058 44.5329 21.24 45.1172C20.9796 45.1823 20.7192 45.1823 20.4588 45.1172C18.648 43.8597 17.1343 42.3135 15.9178 40.4785C15.8607 40.2093 15.8934 39.9489 16.0154 39.6972C16.6177 39.095 17.2198 38.4928 17.8221 37.8906C17.1322 36.7873 16.644 35.5991 16.3572 34.3261C15.4777 34.3424 14.5988 34.3261 13.7205 34.2773C13.4912 34.2435 13.3122 34.1296 13.1834 33.9355C12.8142 32.0264 12.749 30.1059 12.9881 28.1738C13.005 27.7618 13.1026 27.3712 13.2811 27.0019C13.3543 26.9408 13.4357 26.892 13.5252 26.8554C14.4687 26.8066 15.4127 26.7904 16.3572 26.8066C16.4372 26.3223 16.5674 25.8504 16.7479 25.3906C11.8918 26.3523 7.77398 25.0013 4.39434 21.3379C1.49481 17.5123 0.908872 13.3457 2.63653 8.83787C4.5713 4.80312 7.74512 2.42681 12.158 1.70896ZM13.5252 3.27146C18.8215 3.6049 22.2232 6.30672 23.7303 11.3769C24.1844 13.5159 24.0053 15.5993 23.1932 17.6269C23.1441 17.7266 23.0791 17.7429 22.9979 17.6758C22.4444 17.1223 21.8911 16.569 21.3377 16.0156C21.0122 15.8203 20.6866 15.8203 20.3611 16.0156C18.5828 17.2405 17.1017 18.7542 15.9178 20.5566C15.844 20.8303 15.8766 21.0908 16.0154 21.3379C16.6028 21.909 17.1725 22.4949 17.7244 23.0957C13.7392 24.6864 10.0933 24.1168 6.78692 21.3867C3.42452 18.0763 2.52934 14.1864 4.10137 9.71677C5.99188 5.73627 9.13316 3.58784 13.5252 3.27146ZM29.1502 14.5019C30.324 14.4851 31.4959 14.5178 32.6658 14.5996C32.6496 15.5116 32.6658 16.4231 32.7147 17.334C32.7601 17.4737 32.8415 17.5876 32.9588 17.6758C34.6372 18.0595 36.1997 18.7106 37.6463 19.6289C38.0401 19.7304 38.3982 19.6654 38.7205 19.4336C39.2576 18.8965 39.7947 18.3594 40.3318 17.8222C41.4405 18.6543 42.4009 19.6308 43.2127 20.7519C42.6607 21.3527 42.0911 21.9387 41.5037 22.5097C41.4136 22.6595 41.3647 22.8223 41.3572 22.998C41.7364 23.8543 42.1434 24.7006 42.5779 25.5371C42.8971 26.3318 43.1575 27.1456 43.3592 27.9785C43.4675 28.2046 43.6466 28.3511 43.8963 28.4179C44.742 28.4668 45.5884 28.483 46.4354 28.4668C46.5638 29.8659 46.5638 31.2656 46.4354 32.666C45.5233 32.6498 44.6118 32.666 43.701 32.7148C43.587 32.8288 43.4731 32.9427 43.3592 33.0566C43.1708 33.8171 42.943 34.5658 42.6756 35.3027C42.2586 36.2342 41.8191 37.1456 41.3572 38.0371C41.3647 38.2128 41.4136 38.3756 41.5037 38.5254C42.0911 39.0965 42.6607 39.6824 43.2127 40.2832C42.3989 41.4225 41.4224 42.3991 40.283 43.2129C39.6822 42.6609 39.0963 42.0913 38.5252 41.5039C38.3754 41.4137 38.2126 41.3649 38.0369 41.3574C37.1454 41.8193 36.234 42.2588 35.3025 42.6758C34.5656 42.9431 33.8169 43.171 33.0564 43.3594C32.9425 43.4733 32.8286 43.5872 32.7147 43.7011C32.6658 44.612 32.6496 45.5235 32.6658 46.4355C31.9647 46.4905 31.2648 46.5556 30.5662 46.6308C29.8667 46.56 29.1668 46.4949 28.4666 46.4355C28.4828 45.5886 28.4666 44.7422 28.4178 43.8965C28.3509 43.6468 28.2044 43.4677 27.9783 43.3594C27.1454 43.1577 26.3316 42.8972 25.5369 42.5781C24.6974 42.142 23.8511 41.735 22.9979 41.3574C22.8222 41.3649 22.6594 41.4137 22.5096 41.5039C21.9385 42.0913 21.3525 42.6609 20.7518 43.2129C19.6307 42.4011 18.6541 41.4407 17.8221 40.332C18.3917 39.7624 18.9614 39.1927 19.5311 38.623C19.6759 38.3103 19.7085 37.9847 19.6287 37.6465C18.7105 36.1999 18.0594 34.6374 17.6756 32.959C17.5874 32.8417 17.4735 32.7602 17.3338 32.7148C16.423 32.666 15.5114 32.6498 14.5994 32.666C14.4715 31.2661 14.4715 29.8664 14.5994 28.4668C15.5513 28.5078 16.4953 28.459 17.4315 28.3203C17.5827 28.2017 17.6966 28.0553 17.7732 27.8808C18.1237 26.2689 18.7423 24.7715 19.6287 23.3886C19.6939 23.1282 19.6939 22.8678 19.6287 22.6074C19.0265 22.0052 18.4243 21.403 17.8221 20.8008C18.6847 19.6777 19.6775 18.6848 20.8006 17.8222C21.4028 18.4245 22.005 19.0266 22.6072 19.6289C22.8677 19.694 23.128 19.694 23.3885 19.6289C24.8372 18.7117 26.3997 18.0607 28.076 17.6758C28.27 17.547 28.384 17.3679 28.4178 17.1386C28.4666 16.2929 28.4828 15.4466 28.4666 14.5996C28.7165 14.6291 28.9444 14.5965 29.1502 14.5019ZM29.6385 22.5097C29.7194 23.1759 29.7683 23.8595 29.785 24.5605C30.2367 25.1452 30.725 25.1777 31.2498 24.6582C31.3694 23.9497 31.4346 23.2335 31.4451 22.5097C35.4883 23.2733 37.8483 25.6822 38.5252 29.7363C37.8408 29.7201 37.1572 29.7363 36.4744 29.7851C36.0557 30.1534 35.9743 30.5928 36.2303 31.1035C36.3689 31.1972 36.5153 31.2786 36.6697 31.3476C37.2874 31.3965 37.9059 31.4127 38.5252 31.3965C37.8091 35.4329 35.4327 37.8093 31.3963 38.5254C31.4125 37.906 31.3963 37.2876 31.3475 36.6699C31.1176 36.1235 30.7106 35.9445 30.1268 36.1328C30.0128 36.2468 29.8989 36.3606 29.785 36.4746C29.7361 37.1574 29.7199 37.841 29.7361 38.5254C26.5791 38.0464 24.3493 36.3536 23.0467 33.4472C22.7916 32.7853 22.6451 32.1017 22.6072 31.3965C23.2995 31.434 23.9831 31.3851 24.658 31.25C25.2002 30.7189 25.1677 30.2306 24.5604 29.7851C23.8768 29.7526 23.1932 29.72 22.5096 29.6875C23.2762 25.682 25.6524 23.2894 29.6385 22.5097ZM30.1268 29.4433C31.4467 29.3837 31.8861 29.9696 31.4451 31.2011C30.7215 31.8768 30.0704 31.8117 29.492 31.0058C29.3027 30.3114 29.5144 29.7906 30.1268 29.4433Z"
                                        fill="white" />
                                    <path opacity="0.884" fill-rule="evenodd" clip-rule="evenodd"
                                        d="M13.4278 4.15039C13.9083 4.10575 14.2501 4.30107 14.4531 4.73633C14.5183 5.12696 14.5183 5.51758 14.4531 5.90821C14.1631 6.48114 13.7237 6.62762 13.1348 6.34766C13.0175 6.25952 12.9361 6.14559 12.8906 6.00586C12.8255 5.55013 12.8255 5.09441 12.8906 4.63867C12.9988 4.3835 13.1778 4.22074 13.4278 4.15039Z"
                                        fill="white" />
                                    <path opacity="0.926" fill-rule="evenodd" clip-rule="evenodd"
                                        d="M13.4277 7.66602C13.912 7.62307 14.2538 7.81839 14.4531 8.25196C14.5182 10.1399 14.5182 12.028 14.4531 13.916C14.3764 14.0904 14.2625 14.2369 14.1113 14.3555C13.1998 14.8763 12.2883 15.3972 11.3769 15.918C10.4769 15.9939 10.1351 15.5869 10.3515 14.6973C11.1104 14.1509 11.9078 13.6626 12.7441 13.2324C12.8254 11.5406 12.8743 9.84796 12.8906 8.15431C12.9987 7.89913 13.1777 7.73637 13.4277 7.66602Z"
                                        fill="white" />
                                    <path opacity="0.882" fill-rule="evenodd" clip-rule="evenodd"
                                        d="M4.63878 12.8418C5.17184 12.803 5.69267 12.8518 6.20128 12.9883C6.64944 13.5872 6.55179 14.0755 5.90831 14.4531C5.44086 14.539 4.98513 14.5063 4.54112 14.3555C4.01619 13.8088 4.04874 13.3043 4.63878 12.8418Z"
                                        fill="white" />
                                    <path opacity="0.889" fill-rule="evenodd" clip-rule="evenodd"
                                        d="M21.3377 12.8418C21.7946 12.8256 22.2503 12.8419 22.7049 12.8906C23.3365 13.4512 23.304 13.972 22.6072 14.4531C22.1103 14.5338 21.622 14.5012 21.1424 14.3555C20.7111 13.778 20.7762 13.2736 21.3377 12.8418Z"
                                        fill="white" />
                                    <path opacity="0.932" fill-rule="evenodd" clip-rule="evenodd"
                                        d="M30.3222 18.3105C30.7056 18.2663 31.0148 18.3965 31.25 18.7012C31.3535 19.4122 31.4349 20.1283 31.4941 20.8496C35.868 21.4965 38.6837 23.9379 39.9414 28.1738C40.0671 28.6888 40.1486 29.2096 40.1855 29.7363C40.9024 29.7201 41.6185 29.7363 42.3339 29.7851C42.9067 30.3977 42.8416 30.9185 42.1386 31.3476C41.4884 31.3965 40.8374 31.4127 40.1855 31.3965C39.6449 35.6644 37.3336 38.4802 33.2519 39.8437C32.6442 40.021 32.0257 40.1349 31.3964 40.1855C31.4127 40.8374 31.3964 41.4885 31.3476 42.1387C30.9185 42.8416 30.3977 42.9067 29.7851 42.334C29.7363 41.6185 29.7201 40.9024 29.7363 40.1855C26.4571 39.8246 23.9343 38.2621 22.1679 35.498C21.4837 34.2431 21.0443 32.9084 20.8496 31.4941C20.1283 31.435 19.4122 31.3535 18.7011 31.25C18.1699 30.7185 18.2024 30.2303 18.7988 29.7851C19.4847 29.7686 20.1683 29.7198 20.8496 29.6387C21.6629 24.5934 24.5926 21.6638 29.6386 20.8496C29.7198 20.1684 29.7686 19.4848 29.7851 18.7988C29.8932 18.5436 30.0722 18.3809 30.3222 18.3105ZM29.6386 22.5098C25.6526 23.2894 23.2763 25.682 22.5097 29.6875C23.1933 29.72 23.8769 29.7526 24.5605 29.7851C25.1678 30.2307 25.2003 30.7189 24.6582 31.25C23.9833 31.3851 23.2997 31.434 22.6074 31.3965C22.6453 32.1017 22.7918 32.7853 23.0468 33.4473C24.3495 36.3536 26.5793 38.0464 29.7363 38.5254C29.7201 37.841 29.7363 37.1574 29.7851 36.4746C29.8991 36.3606 30.0129 36.2468 30.1269 36.1328C30.7108 35.9445 31.1177 36.1235 31.3476 36.6699C31.3964 37.2876 31.4127 37.906 31.3964 38.5254C35.4329 37.8093 37.8092 35.4329 38.5253 31.3965C37.906 31.4127 37.2876 31.3965 36.6699 31.3476C36.5155 31.2786 36.369 31.1973 36.2304 31.1035C35.9745 30.5929 36.0558 30.1534 36.4746 29.7851C37.1574 29.7363 37.841 29.7201 38.5253 29.7363C37.8485 25.6822 35.4884 23.2733 31.4453 22.5098C31.4347 23.2335 31.3696 23.9497 31.25 24.6582C30.7252 25.1777 30.2369 25.1452 29.7851 24.5605C29.7684 23.8595 29.7196 23.1759 29.6386 22.5098ZM30.1269 29.4434C29.5145 29.7906 29.3029 30.3114 29.4921 31.0059C30.0706 31.8117 30.7216 31.8768 31.4453 31.2012C31.8863 29.9696 31.4468 29.3837 30.1269 29.4434Z"
                                        fill="#C7844F" />
                                    <path opacity="0.889" fill-rule="evenodd" clip-rule="evenodd"
                                        d="M13.3301 20.8496C13.886 20.7285 14.2604 20.9239 14.4531 21.4356C14.5183 21.8262 14.5183 22.2168 14.4531 22.6075C13.972 23.3042 13.4512 23.3367 12.8906 22.7051C12.8255 22.2493 12.8255 21.7937 12.8906 21.3379C12.9907 21.1243 13.1372 20.9616 13.3301 20.8496Z"
                                        fill="white" />
                                    <path opacity="0.929" fill-rule="evenodd" clip-rule="evenodd"
                                        d="M29.7364 27.7832C31.8482 27.5207 33.0527 28.4321 33.3497 30.5176C33.2262 32.2524 32.2985 33.1964 30.5665 33.3496C28.2809 33.0127 27.402 31.7107 27.9297 29.4434C28.3041 28.6291 28.9063 28.0757 29.7364 27.7832ZM30.127 29.4434C29.5146 29.7906 29.303 30.3114 29.4922 31.0059C30.0707 31.8117 30.7217 31.8769 31.4454 31.2012C31.8864 29.9696 31.4469 29.3837 30.127 29.4434Z"
                                        fill="white" />
                                </svg>