<svg xmlns="http://www.w3.org/2000/svg" width="40" height="40" viewBox="0 0 40 40"
                                fill="none">
                                <path
                                    d="M20.0766 3.12502C19.6446 3.1219 19.2923 3.46955 19.2891 3.9008C19.286 4.33205 19.6329 4.6844 20.0649 4.68752C20.4962 4.69065 20.8485 4.34377 20.8516 3.91252C20.8548 3.48127 20.5079 3.12893 20.0766 3.12502ZM20.0411 7.81244C17.0246 7.79104 14.5542 10.2246 14.5314 13.2401C14.5087 16.2555 16.9435 18.7271 19.9591 18.7498L20.0009 18.7499C22.9973 18.7499 25.4461 16.3237 25.4688 13.3221C25.4915 10.3069 23.0567 7.83518 20.0411 7.81244ZM20.0008 17.1875L19.9708 17.1874C17.8168 17.1711 16.0776 15.4056 16.0938 13.2518C16.11 11.1077 17.8591 9.37471 19.9994 9.37471L20.0294 9.37486C22.1834 9.39111 23.9226 11.1566 23.9063 13.3104C23.8901 15.4546 22.1411 17.1875 20.0008 17.1875ZM23.4088 3.71752C23.0023 3.5733 22.5555 3.78619 22.4113 4.19291C22.2672 4.59963 22.4801 5.04611 22.8867 5.19033C26.3279 6.40994 28.6213 9.68736 28.5938 13.3457C28.5905 13.7771 28.9377 14.1296 29.3691 14.1328H29.3752C29.8038 14.1328 30.153 13.7869 30.1562 13.3574C30.1888 9.03346 27.4771 5.15947 23.4088 3.71752Z"
                                    fill="white" />
                                <path
                                    d="M24.7938 29.4095C29.9901 22.7209 33.2376 19.233 33.2814 13.3811C33.3364 6.01836 27.3612 0 19.999 0C12.7228 0 6.77451 5.89281 6.7192 13.1819C6.67451 19.1924 9.98224 22.6755 15.2144 29.4084C10.0094 30.1863 6.7192 32.1407 6.7192 34.5312C6.7192 36.1326 8.19935 37.5695 10.8871 38.5773C13.3334 39.4947 16.5699 39.9999 20.0003 39.9999C23.4307 39.9999 26.6672 39.4947 29.1135 38.5773C31.8012 37.5695 33.2814 36.1325 33.2814 34.5312C33.2814 32.142 29.9943 30.188 24.7938 29.4095ZM8.28162 13.1937C8.33037 6.76172 13.5784 1.5625 19.9992 1.5625C26.496 1.5625 31.7674 6.87406 31.719 13.3695C31.6774 18.9268 28.2335 22.3516 22.7353 29.519C21.7546 30.7968 20.854 32.0049 20.0015 33.1867C19.1515 32.0042 18.2688 30.8177 17.2734 29.5185C11.5479 22.051 8.23928 18.8851 8.28162 13.1937ZM20.0003 38.4375C13.2932 38.4375 8.28162 36.3752 8.28162 34.5312C8.28162 33.1637 11.2776 31.4362 16.3149 30.838C17.4284 32.2991 18.4047 33.6264 19.3622 34.982C19.4342 35.0841 19.5297 35.1673 19.6407 35.2248C19.7516 35.2823 19.8747 35.3124 19.9996 35.3125H20.0003C20.1251 35.3125 20.2481 35.2826 20.359 35.2253C20.4699 35.1679 20.5654 35.0849 20.6376 34.983C21.5861 33.6451 22.589 32.285 23.693 30.8389C28.7257 31.4377 31.719 33.1647 31.719 34.5313C31.7189 36.3752 26.7074 38.4375 20.0003 38.4375Z"
                                    fill="white" />
                            </svg>