<svg xmlns="http://www.w3.org/2000/svg" width="50" height="50" viewBox="0 0 50 50"
                                    fill="none">
                                    <path opacity="0.929" fill-rule="evenodd" clip-rule="evenodd"
                                        d="M34.0334 1.80663C35.0756 1.79037 36.1172 1.80665 37.1584 1.85546C37.527 1.99629 37.8037 2.24043 37.9884 2.58788C37.9226 3.74485 38.4272 4.50983 39.5021 4.8828C39.8369 4.95127 40.1625 4.91871 40.4787 4.78515C40.7772 4.51927 41.1027 4.2914 41.4552 4.10155C41.9697 3.99726 42.458 4.06236 42.9201 4.29687C43.6595 4.97082 44.3268 5.70324 44.922 6.49413C44.9872 6.85221 44.9872 7.21027 44.922 7.56835C44.7322 7.92088 44.5044 8.2464 44.2384 8.54491C43.9753 9.38336 44.1869 10.0832 44.8732 10.6445C45.3809 10.8221 45.9018 10.9522 46.4357 11.0351C46.7832 11.2199 47.0273 11.4966 47.1681 11.8652C47.2333 12.9069 47.2333 13.9485 47.1681 14.9902C47.0645 15.2892 46.8855 15.5334 46.631 15.7226C46.1625 15.9155 45.6742 16.0457 45.1662 16.1133C44.3766 16.5041 44.0348 17.1389 44.1408 18.0176C44.3199 18.5217 44.5803 18.9773 44.922 19.3848C45.0513 19.9554 44.9537 20.4762 44.6291 20.9473C44.1245 21.4518 43.62 21.9563 43.1154 22.4609C42.2724 23.0937 41.4912 23.0286 40.7716 22.2656C39.6083 21.7203 38.7457 22.0296 38.1838 23.1933C38.0713 24.8317 37.1923 25.4828 35.547 25.1465C35.0036 25.1521 34.4665 25.1033 33.9357 25C33.6816 24.9138 33.47 24.7673 33.3009 24.5605C33.1293 23.9786 32.9665 23.3927 32.8127 22.8027C32.1433 21.9596 31.3458 21.7805 30.4201 22.2656C29.7975 22.9219 29.0814 23.052 28.2716 22.6562C27.6369 22.0215 27.0021 21.3867 26.3673 20.7519C26.1568 20.3846 26.0917 19.9939 26.172 19.5801C26.3817 19.0957 26.6422 18.6399 26.9533 18.2129C27.1736 17.3961 26.9295 16.7288 26.2209 16.2109C25.7891 16.052 25.3497 15.9381 24.9025 15.8691C24.7274 16.1421 24.5158 16.3862 24.2677 16.6016C21.7287 18.0664 19.1896 19.5312 16.6505 20.9961C15.6152 21.1331 14.5735 21.1819 13.5255 21.1426C13.5255 23.4212 13.5255 25.6999 13.5255 27.9785C14.5677 27.9622 15.6094 27.9785 16.6505 28.0273C17.7085 28.304 18.3758 28.9714 18.6525 30.0293C18.6688 32.4714 18.7176 34.9128 18.799 37.3535C28.6658 31.4762 38.5617 25.6493 48.4865 19.873C48.749 19.9224 48.9606 20.0525 49.1213 20.2637C49.1864 29.4433 49.1864 38.623 49.1213 47.8027C49.0331 47.92 48.9192 48.0015 48.7795 48.0469C33.4149 48.112 18.0503 48.112 2.6857 48.0469C1.70348 47.8134 1.06871 47.2112 0.781407 46.2402C0.702843 45.6475 0.735396 45.0616 0.879063 44.4824C2.17477 40.0257 3.46058 35.566 4.73649 31.1035C4.36795 30.5029 4.12381 29.8518 4.00406 29.1504C3.93896 26.2207 3.93896 23.291 4.00406 20.3613C4.43201 18.2732 5.68526 16.9874 7.76383 16.5039C10.2052 16.4714 12.6466 16.4388 15.088 16.4062C17.3181 15.0795 19.5642 13.7774 21.8263 12.5C22.5032 12.2916 23.1705 12.3079 23.8283 12.5488C23.9832 11.3851 24.6505 10.8155 25.8302 10.8398C26.9959 10.2723 27.305 9.4096 26.758 8.25194C25.995 7.53239 25.9298 6.75114 26.5627 5.90819C27.1716 5.23372 27.8389 4.6315 28.5646 4.10155C28.9227 4.03645 29.2807 4.03645 29.6388 4.10155C30.0659 4.41272 30.5216 4.67313 31.006 4.8828C31.8847 4.98876 32.5195 4.64696 32.9103 3.85741C32.8828 2.93474 33.2571 2.25114 34.0334 1.80663ZM34.5216 3.27147C35.2378 3.27147 35.954 3.27147 36.6701 3.27147C36.9145 5.48473 38.1514 6.51012 40.381 6.34765C41.0075 6.23791 41.5446 5.96122 41.9923 5.51757C42.4969 6.02213 43.0014 6.52668 43.506 7.03124C42.5188 8.21445 42.3723 9.50026 43.0666 10.8887C43.701 11.8489 44.5963 12.3372 45.7521 12.3535C45.7521 13.0696 45.7521 13.7858 45.7521 14.5019C44.0861 14.642 43.0607 15.5209 42.6759 17.1387C42.6108 17.5293 42.6108 17.9199 42.6759 18.3105C42.8665 18.9184 43.1269 19.4719 43.4572 19.9707C43.0001 20.4442 42.528 20.8999 42.0412 21.3379C40.4432 20.1436 38.897 20.2088 37.4025 21.5332C36.8963 22.1568 36.6521 22.8729 36.6701 23.6816C35.954 23.6816 35.2378 23.6816 34.5216 23.6816C34.3354 21.7538 33.2774 20.6796 31.3478 20.459C30.8616 20.5156 30.3896 20.6295 29.9318 20.8008C29.6369 20.9962 29.3439 21.159 29.0529 21.2891C28.5794 20.8319 28.1237 20.3599 27.6857 19.873C28.9218 18.1888 28.7916 16.61 27.2951 15.1367C26.7126 14.7201 26.0615 14.5085 25.342 14.5019C25.342 13.7858 25.342 13.0696 25.342 12.3535C27.3297 12.2377 28.4039 11.1797 28.5646 9.17968C28.5009 8.35297 28.208 7.62055 27.6857 6.98241C28.1237 6.49558 28.5794 6.02356 29.0529 5.5664C29.5517 5.89671 30.1051 6.15713 30.713 6.34765C32.5103 6.54862 33.731 5.8162 34.3752 4.15038C34.4431 3.85955 34.492 3.56658 34.5216 3.27147ZM35.0099 8.83788C37.7969 8.8106 39.5059 10.1452 40.1369 12.8418C40.3038 14.7049 39.6364 16.186 38.1349 17.2851C35.4596 18.6549 33.2624 18.1178 31.5431 15.6738C30.5442 13.4689 30.9185 11.532 32.6662 9.86327C33.3737 9.32994 34.1549 8.98814 35.0099 8.83788ZM22.5099 13.8183C23.3714 13.7519 23.7458 14.1426 23.633 14.9902C23.4865 15.2669 23.2749 15.4785 22.9982 15.625C20.6711 16.935 18.3598 18.2696 16.0646 19.6289C14.8927 19.6614 13.7209 19.694 12.549 19.7266C12.3545 19.7826 12.208 19.8966 12.1095 20.0683C12.0444 23.0632 12.0444 26.0579 12.1095 29.0527C12.1584 29.2317 12.2723 29.3457 12.4513 29.3945C13.786 29.427 15.1206 29.4597 16.4552 29.4922C16.8388 29.6477 17.083 29.9245 17.1877 30.3223C17.2528 33.3171 17.2528 36.3118 17.1877 39.3066C16.7058 40.2884 16.0547 40.4186 15.2345 39.6973C15.1504 39.5423 15.0852 39.3795 15.0392 39.209C15.0067 36.8001 14.9741 34.3913 14.9416 31.9824C14.8602 31.9011 14.7788 31.8196 14.6974 31.7383C12.4478 31.732 10.2017 31.667 7.95914 31.543C6.63101 31.1589 5.80093 30.2962 5.46891 28.9551C5.37434 26.0207 5.40689 23.091 5.56656 20.166C5.98944 19.027 6.78697 18.2946 7.95914 17.9687C10.5368 17.9661 13.1085 17.9011 15.674 17.7734C17.9691 16.4683 20.2477 15.15 22.5099 13.8183ZM47.5099 22.0215C47.7049 30.1914 47.7701 38.3945 47.7052 46.6308C33.8381 46.6472 19.9709 46.6308 6.10367 46.582C9.05769 44.8528 12.0037 43.1112 14.9416 41.3574C17.0634 42.0132 18.3493 41.2482 18.799 39.0625C28.3916 33.4042 37.9619 27.7238 47.5099 22.0215ZM5.90836 32.2754C6.53711 32.6708 7.2207 32.9312 7.95914 33.0566C6.74911 37.4736 5.4633 41.8682 4.10172 46.2402C3.37389 46.8187 2.7554 46.7211 2.24625 45.9473C2.18114 45.6543 2.18114 45.3613 2.24625 45.0683C3.48254 40.8065 4.70324 36.5422 5.90836 32.2754ZM6.20133 44.7754C7.26144 40.9275 8.35193 37.0863 9.47281 33.2519C10.816 33.1553 12.167 33.1227 13.5255 33.1543C13.5092 35.2704 13.5255 37.3863 13.5744 39.5019C13.6469 39.772 13.7121 40.0323 13.7697 40.2832C11.2523 41.794 8.72947 43.2914 6.20133 44.7754Z"
                                        fill="white" />
                                    <path opacity="0.921" fill-rule="evenodd" clip-rule="evenodd"
                                        d="M34.8143 7.37308C38.0541 7.22591 40.2513 8.65819 41.4061 11.67C42.1258 15.1294 40.9051 17.6197 37.744 19.1407C34.2649 20.1197 31.677 19.0291 29.9803 15.8692C28.8973 12.6731 29.7274 10.1177 32.4706 8.20316C33.2189 7.7966 34.0002 7.5199 34.8143 7.37308ZM35.0096 8.83792C34.1546 8.98818 33.3734 9.32998 32.6659 9.86331C30.9182 11.5321 30.5439 13.469 31.5428 15.6739C33.2621 18.1178 35.4593 18.6549 38.1346 17.2852C39.6361 16.1861 40.3035 14.7049 40.1366 12.8418C39.5056 10.1452 37.7966 8.81064 35.0096 8.83792Z"
                                        fill="#C7844F" />
                                    <path opacity="0.921" fill-rule="evenodd" clip-rule="evenodd"
                                        d="M10.0098 8.05664C13.1326 8.07067 14.6463 9.63317 14.5508 12.7441C13.842 15.2396 12.198 16.2976 9.61914 15.918C7.71939 15.336 6.71027 14.0503 6.5918 12.0605C6.79414 9.90635 7.93347 8.57175 10.0098 8.05664ZM10.2051 9.52148C11.9404 9.49938 12.917 10.3457 13.1348 12.0605C12.976 13.5865 12.1296 14.4329 10.5957 14.5996C9.10816 14.3653 8.26181 13.5027 8.05664 12.0117C8.24281 10.7049 8.95896 9.8748 10.2051 9.52148Z"
                                        fill="white" />
                                </svg>