   <svg xmlns="http://www.w3.org/2000/svg" width="50" height="50" viewBox="0 0 50 50"
                                    fill="none">
                                    <path opacity="0.92" fill-rule="evenodd" clip-rule="evenodd"
                                        d="M18.6033 1.61132C21.0507 1.45039 23.1666 2.19909 24.951 3.85741C27.7508 1.41828 30.8433 0.978829 34.2283 2.53905C37.4266 4.49338 38.7449 7.34169 38.1834 11.084C37.8748 12.4824 37.2563 13.7193 36.3279 14.7949C32.6957 18.4598 29.0336 22.0893 25.3416 25.6836C25.0033 25.7634 24.6777 25.7308 24.365 25.5859C20.7681 21.989 17.171 18.3919 13.574 14.7949C11.2892 11.9188 10.9637 8.82642 12.5975 5.51757C13.9962 3.28883 15.9981 1.98675 18.6033 1.61132ZM18.7986 3.27147C21.1002 3.16919 22.9883 3.99927 24.4627 5.76171C24.7882 5.95702 25.1138 5.95702 25.4393 5.76171C27.8124 3.14722 30.5794 2.62639 33.74 4.19921C36.3861 6.11531 37.2162 8.6381 36.2303 11.7676C35.9868 12.32 35.6938 12.8408 35.3514 13.3301C31.8995 16.7982 28.4327 20.2487 24.951 23.6816C21.4692 20.2487 18.0024 16.7982 14.5506 13.3301C12.8686 10.8989 12.8036 8.42498 14.3553 5.90819C15.4888 4.43073 16.9699 3.55183 18.7986 3.27147ZM24.1697 8.54491C24.6905 8.54491 25.2114 8.54491 25.7322 8.54491C25.6884 9.53174 25.7372 10.5083 25.8787 11.4746C25.9519 11.5357 26.0334 11.5846 26.1228 11.6211C27.0337 11.6699 27.9452 11.6861 28.8572 11.6699C28.8572 12.1907 28.8572 12.7116 28.8572 13.2324C27.8704 13.1886 26.8938 13.2374 25.9275 13.3789C25.8664 13.4521 25.8176 13.5336 25.7811 13.623C25.7322 14.5339 25.716 15.4454 25.7322 16.3574C25.2114 16.3574 24.6905 16.3574 24.1697 16.3574C24.2136 15.3706 24.1647 14.394 24.0232 13.4277C23.95 13.3666 23.8686 13.3178 23.7791 13.2812C22.8683 13.2324 21.9567 13.2162 21.0447 13.2324C21.0447 12.7116 21.0447 12.1907 21.0447 11.6699C22.0315 11.7138 23.0081 11.6649 23.9744 11.5234C24.0355 11.4502 24.0844 11.3687 24.1209 11.2793C24.1697 10.3684 24.1859 9.45695 24.1697 8.54491Z"
                                        fill="white" />
                                    <path opacity="0.988" fill-rule="evenodd" clip-rule="evenodd"
                                        d="M22.9981 6.98241C24.3748 6.93701 25.742 6.98584 27.0996 7.12889C27.1608 7.20217 27.2096 7.28356 27.2461 7.37303C27.2949 8.28391 27.3112 9.19537 27.2949 10.1074C28.2818 10.0636 29.2583 10.1124 30.2246 10.2539C30.2858 10.3271 30.3346 10.4086 30.3711 10.498C30.4363 11.8001 30.4363 13.1022 30.3711 14.4043C30.3346 14.4937 30.2858 14.5752 30.2246 14.6484C29.2583 14.7899 28.2818 14.8388 27.2949 14.7949C27.3388 15.7817 27.29 16.7583 27.1485 17.7246C27.0752 17.7857 26.9938 17.8346 26.9043 17.8711C25.6023 17.9362 24.3001 17.9362 22.9981 17.8711C22.9086 17.8346 22.8272 17.7857 22.7539 17.7246C22.6124 16.7583 22.5636 15.7817 22.6074 14.7949C21.6206 14.8388 20.6441 14.7899 19.6778 14.6484C19.6166 14.5752 19.5678 14.4937 19.5313 14.4043C19.4661 13.1022 19.4661 11.8001 19.5313 10.498C19.5678 10.4086 19.6166 10.3271 19.6778 10.2539C20.6441 10.1124 21.6206 10.0636 22.6074 10.1074C22.5912 9.19537 22.6074 8.28391 22.6563 7.37303C22.7237 7.19235 22.8375 7.06214 22.9981 6.98241ZM24.1699 8.54491C24.1862 9.45695 24.1699 10.3684 24.1211 11.2793C24.0846 11.3687 24.0358 11.4502 23.9746 11.5234C23.0083 11.6649 22.0318 11.7138 21.0449 11.6699C21.0449 12.1907 21.0449 12.7116 21.0449 13.2324C21.957 13.2162 22.8685 13.2324 23.7793 13.2812C23.8688 13.3178 23.9502 13.3666 24.0235 13.4277C24.165 14.394 24.2138 15.3706 24.1699 16.3574C24.6907 16.3574 25.2116 16.3574 25.7324 16.3574C25.7162 15.4454 25.7324 14.5339 25.7813 13.623C25.8178 13.5336 25.8666 13.4521 25.9278 13.3789C26.8941 13.2374 27.8706 13.1886 28.8574 13.2324C28.8574 12.7116 28.8574 12.1907 28.8574 11.6699C27.9454 11.6861 27.0339 11.6699 26.1231 11.6211C26.0336 11.5846 25.9522 11.5357 25.8789 11.4746C25.7374 10.5083 25.6886 9.53174 25.7324 8.54491C25.2116 8.54491 24.6907 8.54491 24.1699 8.54491Z"
                                        fill="#C7844F" />
                                    <path opacity="0.953" fill-rule="evenodd" clip-rule="evenodd"
                                        d="M6.00586 10.6933C7.39299 10.6461 8.45093 11.1995 9.17969 12.3535C10.4236 15.9063 11.6769 19.4545 12.9395 22.998C15.4007 24.4661 17.8747 25.9146 20.3613 27.3437C21.9863 28.5153 22.9791 30.0941 23.3398 32.0801C23.3887 34.9119 23.405 37.7439 23.3887 40.5762C23.7267 40.5416 23.9708 40.6718 24.1211 40.9668C24.2168 43.3842 24.1843 45.7931 24.0234 48.1933C23.9502 48.2545 23.8687 48.3033 23.7793 48.3398C19.873 48.405 15.9668 48.405 12.0605 48.3398C11.9711 48.3033 11.8896 48.2545 11.8164 48.1933C11.6556 45.7931 11.623 43.3842 11.7188 40.9668C11.869 40.6718 12.1132 40.5416 12.4512 40.5762C12.4729 39.7903 12.4241 39.0091 12.3047 38.2324C12.226 37.9447 12.0958 37.6844 11.9141 37.4512C9.8958 35.6282 7.87761 33.8054 5.85938 31.9824C5.63926 31.6399 5.44395 31.2819 5.27344 30.9082C3.98373 26.2864 2.76303 21.6477 1.61133 16.9922C1.71442 15.7759 2.26781 14.8319 3.27148 14.1601C3.21817 12.244 4.12963 11.0885 6.00586 10.6933ZM6.10352 12.3535C6.9041 12.3546 7.47376 12.7126 7.8125 13.4277C8.90048 16.5127 9.9584 19.6052 10.9863 22.7051C10.6565 22.7499 10.331 22.815 10.0098 22.9004C9.27279 20.4087 8.47526 17.9347 7.61719 15.4785C7.03307 14.5599 6.20299 14.0228 5.12695 13.8672C5.02164 13.8013 4.95653 13.7037 4.93164 13.5742C5.11 12.9565 5.50062 12.5496 6.10352 12.3535ZM4.54102 15.4785C5.3416 15.4796 5.91126 15.8376 6.25 16.5527C7.06131 19.0843 7.89139 21.6071 8.74023 24.1211C7.95337 25.6268 8.14868 26.994 9.32617 28.2226C10.9702 29.2238 12.6304 30.2004 14.3066 31.1523C15.335 31.3289 15.7093 30.922 15.4297 29.9316C13.9563 28.9749 12.4426 28.0798 10.8887 27.2461C9.7625 26.5114 9.63229 25.6325 10.498 24.6094C10.786 24.4374 11.0953 24.3234 11.4258 24.2676C11.8918 24.3784 12.3313 24.5574 12.7441 24.8047C14.9577 26.1067 17.1712 27.4089 19.3848 28.7109C20.9139 29.8321 21.7114 31.3458 21.7773 33.2519C21.8262 35.6931 21.8425 38.1346 21.8262 40.5762C19.222 40.5762 16.6179 40.5762 14.0137 40.5762C14.0299 39.6967 14.0137 38.8178 13.9648 37.9394C13.7541 37.1757 13.3797 36.5083 12.8418 35.9375C11.3118 34.6028 9.78193 33.2682 8.25195 31.9336C7.77665 31.491 7.3372 31.0189 6.93359 30.5176C5.68224 26.0329 4.46153 21.5407 3.27148 17.041C3.4145 16.2806 3.83768 15.7598 4.54102 15.4785ZM13.2324 42.1387C16.3574 42.1387 19.4824 42.1387 22.6074 42.1387C22.6074 43.7012 22.6074 45.2637 22.6074 46.8262C19.4824 46.8262 16.3574 46.8262 13.2324 46.8262C13.2324 45.2637 13.2324 43.7012 13.2324 42.1387Z"
                                        fill="white" />
                                    <path opacity="0.952" fill-rule="evenodd" clip-rule="evenodd"
                                        d="M43.2127 10.6934C45.4631 10.7789 46.6025 11.9345 46.6307 14.1602C47.9316 15.0527 48.4361 16.2734 48.1444 17.8223C46.9665 22.3648 45.7294 26.8896 44.4335 31.3965C44.1324 31.8934 43.758 32.3328 43.3104 32.7148C41.5271 34.2821 39.7531 35.8609 37.9881 37.4512C37.8064 37.6844 37.6762 37.9447 37.5975 38.2324C37.4781 39.0091 37.4293 39.7903 37.451 40.5762C37.789 40.5416 38.0332 40.6718 38.1835 40.9668C38.2792 43.3842 38.2466 45.7931 38.0858 48.1934C38.0126 48.2545 37.9311 48.3033 37.8417 48.3398C33.9354 48.405 30.0292 48.405 26.1229 48.3398C26.0335 48.3033 25.952 48.2545 25.8788 48.1934C25.7179 45.7931 25.6854 43.3842 25.7811 40.9668C25.9314 40.6718 26.1755 40.5416 26.5135 40.5762C26.4972 37.7439 26.5135 34.9119 26.5624 32.0801C26.9023 30.0801 27.8951 28.5013 29.5409 27.3438C32.0275 25.9146 34.5015 24.4661 36.9627 22.998C38.2253 19.4545 39.4786 15.9063 40.7225 12.3535C41.2884 11.3957 42.1185 10.8423 43.2127 10.6934ZM43.4081 12.3535C44.2086 12.411 44.7294 12.818 44.9706 13.5742C44.938 13.6556 44.9054 13.737 44.8729 13.8184C43.7594 13.9919 42.8968 14.5453 42.285 15.4785C41.438 17.9381 40.6405 20.4121 39.8924 22.9004C39.5712 22.815 39.2457 22.7499 38.9159 22.7051C39.9438 19.6052 41.0017 16.5127 42.0897 13.4277C42.3452 12.8293 42.7846 12.4713 43.4081 12.3535ZM44.9706 15.4785C45.9337 15.5628 46.4872 16.0836 46.6307 17.041C45.4406 21.5412 44.2199 26.0334 42.9686 30.5176C42.565 31.0189 42.1255 31.491 41.6502 31.9336C39.8871 33.4246 38.1781 34.9708 36.5233 36.5723C36.2742 37.0054 36.0789 37.461 35.9374 37.9395C35.8885 38.8178 35.8723 39.6967 35.8885 40.5762C33.2843 40.5762 30.6802 40.5762 28.076 40.5762C28.0597 38.1346 28.076 35.6932 28.1249 33.252C28.1908 31.3458 28.9883 29.8321 30.5174 28.7109C32.796 27.3763 35.0748 26.0417 37.3534 24.707C38.1655 24.0887 38.9304 24.1375 39.6483 24.8535C40.2152 25.855 40.0036 26.6525 39.0135 27.2461C37.4596 28.0798 35.946 28.9749 34.4725 29.9316C34.1929 30.922 34.5672 31.3289 35.5956 31.1523C37.2718 30.2004 38.932 29.2238 40.576 28.2227C41.7533 26.9979 41.9486 25.6307 41.162 24.1211C42.0108 21.6071 42.8409 19.0843 43.6522 16.5527C43.9077 15.9543 44.3471 15.5963 44.9706 15.4785ZM27.2948 42.1387C30.4198 42.1387 33.5448 42.1387 36.6698 42.1387C36.6698 43.7012 36.6698 45.2637 36.6698 46.8262C33.5448 46.8262 30.4198 46.8262 27.2948 46.8262C27.2948 45.2637 27.2948 43.7012 27.2948 42.1387Z"
                                        fill="white" />
                                </svg>