   <svg xmlns="http://www.w3.org/2000/svg" width="50" height="50" viewBox="0 0 50 50"
                                    fill="none">
                                    <g clip-path="url(#clip0_328_1529)">
                                        <path opacity="0.958" fill-rule="evenodd" clip-rule="evenodd"
                                            d="M7.4707 0.634766C11.1673 0.800641 13.5761 2.63983 14.6973 6.15234C17.017 6.15426 19.3282 6.21936 21.6309 6.34766C21.692 6.42094 21.7408 6.50232 21.7773 6.5918C21.8262 7.76322 21.8425 8.9351 21.8262 10.1074C24.2672 10.2698 25.5693 11.5719 25.7324 14.0137C25.5693 16.4555 24.2672 17.7575 21.8262 17.9199C21.8425 19.0923 21.8262 20.2642 21.7773 21.4355C21.7285 21.6145 21.6146 21.7285 21.4355 21.7773C16.2272 21.8425 11.0188 21.8425 5.81055 21.7773C5.72107 21.7408 5.63969 21.692 5.56641 21.6309C5.45426 19.2299 5.37287 16.821 5.32227 14.4043C2.36856 13.1879 0.806066 10.9743 0.634766 7.76367C0.84574 4.23158 2.6361 1.93666 6.00586 0.878906C6.50809 0.797042 6.99637 0.715661 7.4707 0.634766ZM6.78711 2.39258C9.27827 2.1166 11.1826 3.02807 12.5 5.12695C13.8098 8.17416 13.1099 10.6318 10.4004 12.5C7.35318 13.8098 4.8955 13.1099 3.02734 10.4004C1.71759 7.35318 2.41746 4.8955 5.12695 3.02734C5.66934 2.75489 6.22271 2.54331 6.78711 2.39258ZM14.7949 7.76367C16.6179 7.76367 18.4407 7.76367 20.2637 7.76367C20.2187 9.0104 20.2675 10.2474 20.4102 11.4746C20.4834 11.5357 20.5648 11.5846 20.6543 11.6211C21.5098 11.6035 22.3235 11.7662 23.0957 12.1094C24.1371 12.9929 24.3487 14.0508 23.7305 15.2832C23.3971 15.7473 22.9576 16.0565 22.4121 16.2109C21.83 16.3083 21.244 16.3733 20.6543 16.4062C20.5648 16.4428 20.4834 16.4916 20.4102 16.5527C20.2675 17.78 20.2187 19.017 20.2637 20.2637C15.8366 20.2637 11.4095 20.2637 6.98242 20.2637C6.98242 18.4407 6.98242 16.6179 6.98242 14.7949C10.9236 14.9658 13.479 13.1755 14.6484 9.42383C14.7673 8.87685 14.8161 8.32348 14.7949 7.76367Z"
                                            fill="white" />
                                        <path opacity="0.89" fill-rule="evenodd" clip-rule="evenodd"
                                            d="M6.00586 4.93164C6.61696 5.41186 7.2029 5.9327 7.76367 6.49414C8.31706 5.97331 8.87044 5.45247 9.42383 4.93164C9.90078 5.2928 10.2752 5.71599 10.5469 6.20117C10.0246 6.70716 9.52002 7.228 9.0332 7.76367C9.55403 8.31706 10.0749 8.87044 10.5957 9.42383C10.2346 9.90078 9.81133 10.2752 9.32617 10.5469C8.82019 10.0246 8.29935 9.52002 7.76367 9.0332C7.21028 9.55403 6.6569 10.0749 6.10352 10.5957C5.62653 10.2346 5.25219 9.81133 4.98047 9.32617C5.50277 8.82019 6.00732 8.29935 6.49414 7.76367C5.97331 7.21028 5.45247 6.6569 4.93164 6.10352C5.29186 5.71093 5.64993 5.3203 6.00586 4.93164Z"
                                            fill="white" />
                                        <path opacity="0.985" fill-rule="evenodd" clip-rule="evenodd"
                                            d="M33.1543 6.20119C38.4359 6.1532 43.7094 6.20203 48.9746 6.34767C49.0357 6.42095 49.0846 6.50234 49.1211 6.59181C49.1862 11.5398 49.1862 16.4876 49.1211 21.4356C49.0723 21.6146 48.9583 21.7285 48.7793 21.7774C43.571 21.8425 38.3626 21.8425 33.1543 21.7774C32.9753 21.7285 32.8613 21.6146 32.8125 21.4356C32.7637 20.2642 32.7474 19.0923 32.7637 17.9199C30.3227 17.7575 29.0205 16.4555 28.8574 14.0137C29.0205 11.5719 30.3227 10.2698 32.7637 10.1074C32.7474 8.93512 32.7637 7.76324 32.8125 6.59181C32.8799 6.41113 32.9937 6.28092 33.1543 6.20119ZM34.3262 7.76369C38.7532 7.76369 43.1804 7.76369 47.6074 7.76369C47.6074 11.9304 47.6074 16.097 47.6074 20.2637C43.1804 20.2637 38.7532 20.2637 34.3262 20.2637C34.3712 19.017 34.3224 17.78 34.1797 16.5528C34.1064 16.4916 34.025 16.4428 33.9355 16.4063C33.0826 16.4216 32.2687 16.2588 31.4941 15.918C30.4527 15.0345 30.2411 13.9766 30.8594 12.7442C31.1807 12.3255 31.5876 12.0163 32.0801 11.8164C32.6956 11.7244 33.3142 11.6593 33.9355 11.6211C34.025 11.5846 34.1064 11.5358 34.1797 11.4746C34.3224 10.2474 34.3712 9.01042 34.3262 7.76369Z"
                                            fill="white" />
                                        <path opacity="0.985" fill-rule="evenodd" clip-rule="evenodd"
                                            d="M1.12305 28.0762C6.40467 28.0282 11.6781 28.077 16.9434 28.2227C17.0045 28.2959 17.0533 28.3773 17.0898 28.4668C17.155 30.0293 17.155 31.5918 17.0898 33.1543C17.041 33.3333 16.9271 33.4473 16.748 33.4961C15.8926 33.4785 15.0788 33.6412 14.3066 33.9844C13.2652 34.8679 13.0536 35.9258 13.6719 37.1582C14.0028 37.619 14.4423 37.9283 14.9902 38.0859C15.5724 38.1833 16.1583 38.2483 16.748 38.2812C16.9271 38.3301 17.041 38.444 17.0898 38.623C17.1846 40.2596 17.1521 41.8872 16.9922 43.5059C16.9189 43.567 16.8375 43.6158 16.748 43.6523C14.1438 43.6686 11.5397 43.6849 8.93555 43.7012C6.258 43.7167 3.58873 43.6679 0.927735 43.5547C0.866625 43.4814 0.817797 43.4 0.78125 43.3105C0.716146 38.3626 0.716146 33.4147 0.78125 28.4668C0.848606 28.2861 0.962538 28.1559 1.12305 28.0762ZM2.29492 29.6387C6.722 29.6387 11.1491 29.6387 15.5762 29.6387C15.5762 30.4199 15.5762 31.2012 15.5762 31.9824C13.1352 32.1448 11.833 33.4469 11.6699 35.8887C11.833 38.3305 13.1352 39.6325 15.5762 39.7949C15.5762 40.5762 15.5762 41.3574 15.5762 42.1387C11.1491 42.1387 6.722 42.1387 2.29492 42.1387C2.29492 37.972 2.29492 33.8054 2.29492 29.6387Z"
                                            fill="white" />
                                        <path opacity="0.952" fill-rule="evenodd" clip-rule="evenodd"
                                            d="M24.5605 28.0762C29.7689 28.0599 34.9773 28.0762 40.1855 28.125C40.3645 28.1738 40.4785 28.2878 40.5273 28.4668C40.5762 29.6382 40.5925 30.8101 40.5762 31.9824C44.5116 32.1266 47.2297 34.0147 48.7305 37.6465C49.8315 41.3317 49.0015 44.5055 46.2402 47.168C43.4768 49.3048 40.4494 49.7606 37.1582 48.5352C34.982 47.5798 33.4521 46.001 32.5684 43.7988C29.8997 43.7175 27.2304 43.6687 24.5605 43.6524C24.3815 43.6035 24.2676 43.4896 24.2187 43.3106C24.1699 42.1392 24.1536 40.9673 24.1699 39.7949C21.7289 39.6325 20.4268 38.3305 20.2637 35.8887C20.4268 33.4469 21.7289 32.1448 24.1699 31.9824C24.1536 30.8101 24.1699 29.6382 24.2187 28.4668C24.2861 28.2861 24.4 28.1559 24.5605 28.0762ZM25.7324 29.6387C30.1595 29.6387 34.5866 29.6387 39.0137 29.6387C39.0137 30.4525 39.0137 31.2663 39.0137 32.0801C35.3618 32.8836 33.0669 35.0971 32.1289 38.7207C31.9548 39.8584 31.9385 40.9977 32.0801 42.1387C29.9642 42.1387 27.8483 42.1387 25.7324 42.1387C25.7774 40.892 25.7286 39.655 25.5859 38.4277C25.5127 38.3666 25.4312 38.3178 25.3418 38.2813C24.4889 38.2966 23.675 38.1338 22.9004 37.793C21.859 36.9095 21.6474 35.8516 22.2656 34.6192C22.5869 34.2005 22.9938 33.8913 23.4863 33.6914C24.1019 33.5994 24.7204 33.5343 25.3418 33.4961C25.4312 33.4596 25.5127 33.4108 25.5859 33.3496C25.7286 32.1224 25.7774 30.8854 25.7324 29.6387ZM40.4785 33.5449C44.2156 33.8151 46.5431 35.7682 47.4609 39.4043C47.7954 42.9846 46.3469 45.5399 43.1152 47.0703C39.6234 48.1525 36.8077 47.2247 34.668 44.2871C32.8437 40.7943 33.3808 37.7181 36.2793 35.0586C37.5433 34.1546 38.9431 33.65 40.4785 33.5449Z"
                                            fill="white" />
                                        <path opacity="0.905" fill-rule="evenodd" clip-rule="evenodd"
                                            d="M43.9941 36.8653C44.0969 36.8507 44.1945 36.8669 44.2871 36.9141C44.6452 37.2722 45.0032 37.6302 45.3613 37.9883C43.3105 40.0391 41.2598 42.0899 39.209 44.1407C38.8963 44.2855 38.5707 44.3181 38.2324 44.2383C37.4187 43.4245 36.6048 42.6107 35.791 41.7969C36.1668 41.4047 36.5574 41.0304 36.9629 40.6739C37.4985 41.1607 38.0194 41.6653 38.5254 42.1875C38.5905 42.2527 38.6556 42.2527 38.7207 42.1875C40.4982 40.4263 42.2561 38.6523 43.9941 36.8653Z"
                                            fill="white" />
                                    </g>
                                    <defs>
                                        <clipPath id="clip0_328_1529">
                                            <rect width="50" height="50" fill="white" />
                                        </clipPath>
                                    </defs>
                                </svg>