<svg xmlns="http://www.w3.org/2000/svg" width="18" height="16"
                                        viewBox="0 0 18 16" fill="none">
                                        <g clip-path="url(#clip0_193_986)">
                                            <path
                                                d="M8.22996 15.7247C8.17691 15.7247 8.12443 15.7137 8.07583 15.6924C8.02722 15.6712 7.98354 15.6401 7.94754 15.6011L0.332652 7.36399C0.28189 7.30907 0.248237 7.24055 0.235814 7.16681C0.22339 7.09306 0.232734 7.0173 0.262703 6.94878C0.292671 6.88026 0.341964 6.82197 0.404548 6.78104C0.467132 6.7401 0.540292 6.7183 0.615075 6.71829H4.28046C4.33549 6.7183 4.38988 6.73011 4.43997 6.75293C4.49005 6.77575 4.53465 6.80904 4.57077 6.85056L7.11569 9.77841C7.39073 9.19049 7.92315 8.21156 8.85746 7.01872C10.2387 5.25526 12.8078 2.66176 17.2034 0.320525C17.2883 0.275283 17.3872 0.263542 17.4804 0.287618C17.5736 0.311694 17.6543 0.369838 17.7068 0.450569C17.7592 0.531301 17.7794 0.62875 17.7635 0.723675C17.7475 0.8186 17.6966 0.904101 17.6207 0.963294C17.6039 0.97641 15.9092 2.31103 13.9587 4.7556C12.1636 7.00522 9.77738 10.6837 8.60319 15.4325C8.58256 15.516 8.53459 15.5901 8.46692 15.6431C8.39925 15.696 8.31579 15.7248 8.22984 15.7248L8.22996 15.7247Z"
                                                fill="#C7844F" />
                                        </g>
                                        <defs>
                                            <clipPath id="clip0_193_986">
                                                <rect width="18" height="16" fill="white" />
                                            </clipPath>
                                        </defs>
                                    </svg>