<svg xmlns="http://www.w3.org/2000/svg" width="40" height="40" viewBox="0 0 40 40"
                                fill="none">
                                <g clip-path="url(#clip0_191_315)">
                                    <path opacity="0.96" fill-rule="evenodd" clip-rule="evenodd"
                                        d="M14.8047 -0.0390625C22.9037 -0.0390625 31.0026 -0.0390625 39.1016 -0.0390625C39.4662 0.169271 39.7526 0.455729 39.9609 0.820312C39.9609 5.50781 39.9609 10.1953 39.9609 14.8828C39.5832 15.2958 39.2055 15.2958 38.8281 14.8828C38.8021 10.3776 38.776 5.8724 38.75 1.36719C38.7109 1.27604 38.6459 1.21094 38.5547 1.17188C30.7943 1.11979 23.0338 1.11979 15.2734 1.17188C15.1184 3.06808 15.0663 4.98214 15.1172 6.91406C17.4351 6.90105 19.7527 6.91406 22.0703 6.95312C22.3916 7.2273 22.4567 7.55282 22.2656 7.92969C22.1741 8.03852 22.057 8.10367 21.9141 8.125C17.3308 8.16406 12.7475 8.17711 8.16406 8.16406C8.16406 10.0651 8.16406 11.9662 8.16406 13.8672C13.7891 13.8541 19.4141 13.8672 25.0391 13.9062C25.5209 14.0755 25.8463 14.401 26.0156 14.8828C26.0547 20.5077 26.0677 26.1327 26.0547 31.7578C27.9557 31.7578 29.8568 31.7578 31.7578 31.7578C31.7448 31.0282 31.7578 30.299 31.7969 29.5703C32.1547 28.9791 32.5453 28.953 32.9688 29.4922C33.0209 30.3516 33.0209 31.2109 32.9688 32.0703C32.8255 32.526 32.526 32.8255 32.0703 32.9688C30.0652 33.0078 28.0601 33.0209 26.0547 33.0078C26.0677 34.9872 26.0547 36.9663 26.0156 38.9453C25.8893 39.4486 25.5898 39.7871 25.1172 39.9609C17.0182 39.9609 8.9193 39.9609 0.820312 39.9609C0.455729 39.7526 0.169271 39.4662 -0.0390625 39.1016C-0.0390625 31.0026 -0.0390625 22.9037 -0.0390625 14.8047C0.134727 14.332 0.473269 14.0326 0.976562 13.9062C2.95555 13.8672 4.93473 13.8541 6.91406 13.8672C6.90105 11.8618 6.91406 9.85664 6.95312 7.85156C7.09635 7.39584 7.39584 7.09635 7.85156 6.95312C9.85664 6.91406 11.8618 6.90105 13.8672 6.91406C13.8541 4.93473 13.8672 2.95555 13.9062 0.976562C14.0326 0.473269 14.332 0.134727 14.8047 -0.0390625ZM2.14844 15.1953C3.09841 15.1047 4.06196 15.0916 5.03906 15.1562C5.35156 15.4688 5.66406 15.7812 5.97656 16.0938C6.56352 16.4557 6.95415 16.3124 7.14844 15.6641C7.10195 15.4799 7.02382 15.3107 6.91406 15.1562C7.87758 15.1041 8.84117 15.1041 9.80469 15.1562C10.1432 15.4948 10.4818 15.8334 10.8203 16.1719C11.5308 16.4246 11.8563 16.1772 11.7969 15.4297C11.7605 15.3179 11.6954 15.2268 11.6016 15.1562C12.5651 15.1041 13.5287 15.1041 14.4922 15.1562C14.8047 15.4688 15.1172 15.7812 15.4297 16.0938C16.0166 16.4557 16.4073 16.3124 16.6016 15.6641C16.5551 15.4799 16.477 15.3107 16.3672 15.1562C17.3307 15.1041 18.2943 15.1041 19.2578 15.1562C19.5963 15.4948 19.9349 15.8334 20.2734 16.1719C20.9839 16.4246 21.3095 16.1772 21.25 15.4297C21.2137 15.3179 21.1485 15.2268 21.0547 15.1562C22.2975 15.0919 23.5345 15.1049 24.7656 15.1953C24.8177 16.4193 24.8177 17.6432 24.7656 18.8672C24.2049 18.4705 23.8013 18.5877 23.5547 19.2188C23.6011 19.4367 23.6923 19.632 23.8281 19.8047C24.1406 20.1172 24.4531 20.4297 24.7656 20.7422C24.8177 21.7057 24.8177 22.6693 24.7656 23.6328C24.1927 23.1479 23.7891 23.2651 23.5547 23.9844C23.5938 24.1016 23.6328 24.2188 23.6719 24.3359C24.0365 24.7005 24.401 25.0651 24.7656 25.4297C24.8177 26.3932 24.8177 27.3568 24.7656 28.3203C24.401 28.0078 24.0365 28.0078 23.6719 28.3203C23.5156 28.5547 23.5156 28.7891 23.6719 29.0234C24.0365 29.388 24.401 29.7526 24.7656 30.1172C24.8177 31.1068 24.8177 32.0963 24.7656 33.0859C24.1927 32.601 23.7891 32.7182 23.5547 33.4375C23.5938 33.5547 23.6328 33.6719 23.6719 33.7891C24.0365 34.1537 24.401 34.5182 24.7656 34.8828C24.8177 35.8463 24.8177 36.8099 24.7656 37.7734C24.401 37.4609 24.0365 37.4609 23.6719 37.7734C23.5071 38.1652 23.5982 38.4906 23.9453 38.75C22.9557 38.8021 21.9662 38.8021 20.9766 38.75C20.612 38.3854 20.2474 38.0209 19.8828 37.6562C19.1723 37.4035 18.8468 37.6509 18.9062 38.3984C18.9676 38.538 19.0587 38.6552 19.1797 38.75C18.2162 38.8021 17.2526 38.8021 16.2891 38.75C15.9245 38.3854 15.5599 38.0209 15.1953 37.6562C14.3823 37.3773 14.0568 37.6507 14.2188 38.4766C14.3099 38.5677 14.401 38.6588 14.4922 38.75C13.5026 38.8021 12.513 38.8021 11.5234 38.75C11.1588 38.3854 10.7943 38.0209 10.4297 37.6562C9.71922 37.4035 9.39367 37.6509 9.45312 38.3984C9.51445 38.538 9.60555 38.6552 9.72656 38.75C8.76305 38.8021 7.79948 38.8021 6.83594 38.75C6.47135 38.3854 6.10677 38.0209 5.74219 37.6562C5.16563 37.3848 4.80105 37.554 4.64844 38.1641C4.69965 38.4109 4.82985 38.6062 5.03906 38.75C3.8151 38.8021 2.59115 38.8021 1.36719 38.75C1.30405 38.7259 1.25198 38.6869 1.21094 38.6328C1.121 37.3862 1.10798 36.1362 1.17188 34.8828C1.49059 35.3042 1.85518 35.3563 2.26562 35.0391C2.42188 34.7526 2.42188 34.4662 2.26562 34.1797C1.90104 33.8151 1.53646 33.4505 1.17188 33.0859C1.11979 32.1224 1.11979 31.1588 1.17188 30.1953C1.5625 30.612 1.95312 30.612 2.34375 30.1953C2.40548 29.9505 2.37944 29.7161 2.26562 29.4922C1.90104 29.1276 1.53646 28.763 1.17188 28.3984C1.11979 27.4088 1.11979 26.4193 1.17188 25.4297C1.49059 25.8511 1.85518 25.9031 2.26562 25.5859C2.42188 25.2995 2.42188 25.013 2.26562 24.7266C1.90104 24.362 1.53646 23.9974 1.17188 23.6328C1.11979 22.6693 1.11979 21.7057 1.17188 20.7422C1.56841 21.1528 1.95903 21.1528 2.34375 20.7422C2.40548 20.4973 2.37944 20.263 2.26562 20.0391C1.90104 19.6745 1.53646 19.3099 1.17188 18.9453C1.11979 17.9557 1.11979 16.9662 1.17188 15.9766C1.56841 16.3872 1.95903 16.3872 2.34375 15.9766C2.43255 15.667 2.36745 15.4066 2.14844 15.1953Z"
                                        fill="#C7844F" />
                                    <path opacity="0.945" fill-rule="evenodd" clip-rule="evenodd"
                                        d="M39.9609 16.8359C39.9609 19.5963 39.9609 22.3568 39.9609 25.1172C39.7871 25.5898 39.4485 25.8893 38.9453 26.0156C36.9663 26.0547 34.9871 26.0677 33.0078 26.0547C33.0207 26.5241 33.0077 26.9929 32.9687 27.4609C32.7015 27.7932 32.376 27.8584 31.9921 27.6563C31.8983 27.5857 31.8332 27.4946 31.7968 27.3828C31.7708 21.0026 31.7447 14.6224 31.7187 8.24219C29.2113 8.17742 26.6982 8.13836 24.1796 8.125C23.7423 7.91446 23.6251 7.58893 23.8281 7.14844C23.8986 7.05458 23.9897 6.98947 24.1015 6.95313C26.7317 6.90104 29.3619 6.90104 31.9921 6.95313C32.4739 7.1224 32.7994 7.44792 32.9687 7.92969C33.0078 13.5546 33.0208 19.1796 33.0078 24.8047C34.9095 24.8307 36.8106 24.8047 38.7109 24.7266C38.7754 22.0996 38.8145 19.4694 38.8281 16.8359C39.2053 16.4244 39.583 16.4244 39.9609 16.8359Z"
                                        fill="#C7844F" />
                                    <path opacity="0.899" fill-rule="evenodd" clip-rule="evenodd"
                                        d="M3.86719 16.2891C4.59206 16.2013 4.8655 16.5138 4.6875 17.2266C4.23177 17.6823 3.77604 18.1381 3.32031 18.5938C2.5 18.8151 2.20052 18.5157 2.42187 17.6954C2.89546 17.2086 3.37723 16.7399 3.86719 16.2891Z"
                                        fill="#C7844F" />
                                    <path opacity="0.903" fill-rule="evenodd" clip-rule="evenodd"
                                        d="M8.55463 16.2891C9.40596 16.2472 9.65331 16.6119 9.29682 17.3829C8.86159 17.8705 8.37979 18.3002 7.85151 18.6719C7.21027 18.7072 6.96288 18.4078 7.10932 17.7735C7.60693 17.289 8.0887 16.7942 8.55463 16.2891Z"
                                        fill="#C7844F" />
                                    <path opacity="0.898" fill-rule="evenodd" clip-rule="evenodd"
                                        d="M13.3203 16.2891C14.0451 16.2013 14.3186 16.5138 14.1406 17.2266C13.6849 17.6823 13.2291 18.1381 12.7734 18.5938C11.9531 18.8151 11.6537 18.5157 11.875 17.6954C12.3486 17.2086 12.8304 16.7399 13.3203 16.2891Z"
                                        fill="#C7844F" />
                                    <path opacity="0.879" fill-rule="evenodd" clip-rule="evenodd"
                                        d="M18.0078 16.2891C18.8591 16.2472 19.1064 16.6119 18.75 17.3829C18.3147 17.8705 17.8329 18.3002 17.3047 18.6719C16.6634 18.7072 16.416 18.4078 16.5625 17.7735C17.0076 17.2372 17.4894 16.7425 18.0078 16.2891Z"
                                        fill="#C7844F" />
                                    <path opacity="0.899" fill-rule="evenodd" clip-rule="evenodd"
                                        d="M22.6953 16.2891C23.5274 16.1835 23.8008 16.522 23.5156 17.3047C23.0859 17.7344 22.6562 18.1641 22.2266 18.5938C21.4062 18.8151 21.1068 18.5156 21.3281 17.6953C21.7997 17.2368 22.2555 16.7681 22.6953 16.2891Z"
                                        fill="#C7844F" />
                                    <path opacity="0.895" fill-rule="evenodd" clip-rule="evenodd"
                                        d="M5.03907 18.6328C5.28511 18.6102 5.51948 18.6493 5.7422 18.75C6.14585 19.1536 6.54949 19.5572 6.95314 19.9609C7.31028 20.7387 7.06288 21.0903 6.21095 21.0156C5.72918 20.5338 5.24741 20.0521 4.76564 19.5703C4.62716 19.1914 4.7183 18.8789 5.03907 18.6328Z"
                                        fill="#C7844F" />
                                    <path opacity="0.898" fill-rule="evenodd" clip-rule="evenodd"
                                        d="M9.7266 18.6328C9.97261 18.6102 10.207 18.6493 10.4297 18.75C10.8594 19.1797 11.2891 19.6094 11.7188 20.039C11.9209 20.4229 11.8557 20.7484 11.5235 21.0156C11.2786 21.0773 11.0443 21.0513 10.8203 20.9375C10.3907 20.5078 9.96097 20.0781 9.53129 19.6484C9.34425 19.2599 9.40941 18.9214 9.7266 18.6328Z"
                                        fill="#C7844F" />
                                    <path opacity="0.896" fill-rule="evenodd" clip-rule="evenodd"
                                        d="M14.4922 18.6329C14.7828 18.594 15.0432 18.6591 15.2735 18.8282C15.651 19.2057 16.0287 19.5834 16.4063 19.961C16.7634 20.7388 16.516 21.0904 15.6641 21.0157C15.1823 20.5339 14.7006 20.0522 14.2188 19.5704C14.0803 19.1915 14.1714 18.879 14.4922 18.6329Z"
                                        fill="#C7844F" />
                                    <path opacity="0.9" fill-rule="evenodd" clip-rule="evenodd"
                                        d="M19.1797 18.6328C19.4257 18.6102 19.6601 18.6493 19.8828 18.75C20.3125 19.1797 20.7422 19.6094 21.1719 20.039C21.4507 20.6093 21.2814 20.9478 20.6641 21.0547C20.5236 21.0486 20.3933 21.0096 20.2735 20.9375C19.8438 20.5078 19.4141 20.0781 18.9844 19.6484C18.7974 19.2599 18.8625 18.9214 19.1797 18.6328Z"
                                        fill="#C7844F" />
                                    <path opacity="0.903" fill-rule="evenodd" clip-rule="evenodd"
                                        d="M3.94529 20.9766C4.69592 21.0121 4.91727 21.3767 4.60935 22.0703C4.17722 22.5286 3.72149 22.9583 3.24217 23.3594C2.49928 23.4762 2.22585 23.1766 2.42185 22.4609C2.92148 21.9482 3.42929 21.4534 3.94529 20.9766Z"
                                        fill="#C7844F" />
                                    <path opacity="0.896" fill-rule="evenodd" clip-rule="evenodd"
                                        d="M8.63279 20.9766C9.37756 20.9563 9.6249 21.2948 9.37498 21.9922C8.94529 22.4219 8.5156 22.8516 8.08592 23.2813C7.21352 23.5547 6.91404 23.2552 7.18748 22.3828C7.66106 21.8961 8.14287 21.4273 8.63279 20.9766Z"
                                        fill="#C7844F" />
                                    <path opacity="0.879" fill-rule="evenodd" clip-rule="evenodd"
                                        d="M13.3985 20.9766C14.0388 20.9788 14.2862 21.2913 14.1407 21.9141C13.711 22.4479 13.2292 22.9297 12.6953 23.3594C11.843 23.4392 11.5957 23.0877 11.9532 22.3047C12.4034 21.8149 12.8851 21.3722 13.3985 20.9766Z"
                                        fill="#C7844F" />
                                    <path opacity="0.897" fill-rule="evenodd" clip-rule="evenodd"
                                        d="M18.0859 20.9766C18.8307 20.9563 19.078 21.2948 18.8281 21.9922C18.3984 22.4219 17.9687 22.8516 17.539 23.2813C16.6666 23.5547 16.3672 23.2552 16.6406 22.3828C17.1142 21.8961 17.596 21.4273 18.0859 20.9766Z"
                                        fill="#C7844F" />
                                    <path opacity="0.879" fill-rule="evenodd" clip-rule="evenodd"
                                        d="M22.8516 20.9766C23.4919 20.9788 23.7393 21.2913 23.5938 21.9141C23.1641 22.4479 22.6823 22.9297 22.1485 23.3594C21.2961 23.4392 21.0488 23.0877 21.4063 22.3047C21.8565 21.8149 22.3382 21.3722 22.8516 20.9766Z"
                                        fill="#C7844F" />
                                    <path opacity="0.897" fill-rule="evenodd" clip-rule="evenodd"
                                        d="M5.19534 23.3203C5.35661 23.3349 5.51286 23.374 5.66409 23.4375C6.11982 23.8932 6.57555 24.349 7.03128 24.8047C7.23903 25.3267 7.06976 25.6652 6.52347 25.8203C6.39729 25.7692 6.26708 25.7302 6.13284 25.7031C5.67711 25.2474 5.22138 24.7916 4.76565 24.3359C4.58295 23.8546 4.72618 23.5161 5.19534 23.3203Z"
                                        fill="#C7844F" />
                                    <path opacity="0.895" fill-rule="evenodd" clip-rule="evenodd"
                                        d="M9.88284 23.3203C10.1114 23.3172 10.3196 23.3823 10.5078 23.5156C10.9115 23.9193 11.3151 24.3229 11.7188 24.7265C11.9978 25.5396 11.7243 25.8651 10.8985 25.7031C10.4167 25.2213 9.93495 24.7396 9.45316 24.2578C9.32761 23.8063 9.47089 23.4938 9.88284 23.3203Z"
                                        fill="#C7844F" />
                                    <path opacity="0.895" fill-rule="evenodd" clip-rule="evenodd"
                                        d="M14.5703 23.3203C14.76 23.3221 14.9422 23.3612 15.1172 23.4375C15.5729 23.8932 16.0287 24.349 16.4844 24.8047C16.6804 25.3227 16.5111 25.6613 15.9766 25.8203C15.8504 25.7692 15.7202 25.7302 15.586 25.7031C15.1303 25.2474 14.6745 24.7916 14.2188 24.3359C14.0484 23.8966 14.1656 23.5581 14.5703 23.3203Z"
                                        fill="#C7844F" />
                                    <path opacity="0.896" fill-rule="evenodd" clip-rule="evenodd"
                                        d="M19.336 23.3203C19.5645 23.3172 19.7728 23.3823 19.961 23.5156C20.3385 23.8932 20.7162 24.2708 21.0938 24.6484C21.4558 25.2312 21.3126 25.6218 20.6641 25.8203C20.5629 25.7736 20.4588 25.7345 20.3516 25.7031C19.8698 25.2213 19.3881 24.7396 18.9063 24.2578C18.7807 23.8063 18.924 23.4938 19.336 23.3203Z"
                                        fill="#C7844F" />
                                    <path opacity="0.9" fill-rule="evenodd" clip-rule="evenodd"
                                        d="M3.7891 25.7422C4.55707 25.6117 4.85655 25.9242 4.68754 26.6797C4.23181 27.1354 3.77607 27.5912 3.32035 28.0469C2.64277 28.2616 2.31725 28.0142 2.34379 27.3047C2.8129 26.7706 3.29467 26.2497 3.7891 25.7422Z"
                                        fill="#C7844F" />
                                    <path opacity="0.879" fill-rule="evenodd" clip-rule="evenodd"
                                        d="M8.55463 25.7422C9.40596 25.7004 9.65331 26.065 9.29682 26.836C8.86159 27.3237 8.37979 27.7533 7.85151 28.1251C7.21027 28.1604 6.96288 27.8609 7.10932 27.2266C7.55451 26.6904 8.03627 26.1956 8.55463 25.7422Z"
                                        fill="#C7844F" />
                                    <path opacity="0.897" fill-rule="evenodd" clip-rule="evenodd"
                                        d="M13.2422 25.7422C14.0101 25.6117 14.3096 25.9242 14.1406 26.6797C13.6849 27.1354 13.2291 27.5912 12.7734 28.0469C11.9531 28.2682 11.6537 27.9688 11.875 27.1485C12.3466 26.69 12.8023 26.2212 13.2422 25.7422Z"
                                        fill="#C7844F" />
                                    <path opacity="0.879" fill-rule="evenodd" clip-rule="evenodd"
                                        d="M18.0078 25.7422C18.8591 25.7004 19.1064 26.065 18.75 26.836C18.3147 27.3237 17.8329 27.7533 17.3047 28.1251C16.6634 28.1604 16.416 27.8609 16.5625 27.2266C17.0076 26.6904 17.4894 26.1956 18.0078 25.7422Z"
                                        fill="#C7844F" />
                                    <path opacity="0.898" fill-rule="evenodd" clip-rule="evenodd"
                                        d="M22.6953 25.7422C23.5274 25.6367 23.8008 25.9752 23.5156 26.7578C23.0859 27.1875 22.6562 27.6172 22.2266 28.0469C21.4062 28.2682 21.1068 27.9688 21.3281 27.1485C21.7997 26.6899 22.2555 26.2212 22.6953 25.7422Z"
                                        fill="#C7844F" />
                                    <path opacity="0.895" fill-rule="evenodd" clip-rule="evenodd"
                                        d="M5.03907 28.0859C5.28511 28.0633 5.51948 28.1024 5.7422 28.2031C6.14585 28.6068 6.54949 29.0104 6.95314 29.414C7.31028 30.1919 7.06288 30.5434 6.21095 30.4687C5.72918 29.9869 5.24741 29.5052 4.76564 29.0234C4.62716 28.6445 4.7183 28.332 5.03907 28.0859Z"
                                        fill="#C7844F" />
                                    <path opacity="0.9" fill-rule="evenodd" clip-rule="evenodd"
                                        d="M9.7266 28.0859C9.97261 28.0633 10.207 28.1024 10.4297 28.2031C10.8594 28.6328 11.2891 29.0625 11.7188 29.4922C11.9975 30.0624 11.8282 30.4009 11.211 30.5078C11.0704 30.5018 10.9402 30.4627 10.8203 30.3906C10.3907 29.9609 9.96097 29.5312 9.53129 29.1015C9.34425 28.713 9.40941 28.3745 9.7266 28.0859Z"
                                        fill="#C7844F" />
                                    <path opacity="0.897" fill-rule="evenodd" clip-rule="evenodd"
                                        d="M14.4922 28.0859C14.7382 28.0633 14.9726 28.1024 15.1953 28.2031C15.599 28.6068 16.0026 29.0104 16.4063 29.414C16.6707 29.7498 16.6578 30.0754 16.3672 30.3906C16.1433 30.5044 15.9089 30.5304 15.6641 30.4687C15.1823 29.9869 14.7006 29.5052 14.2188 29.0234C14.0803 28.6445 14.1714 28.332 14.4922 28.0859Z"
                                        fill="#C7844F" />
                                    <path opacity="0.898" fill-rule="evenodd" clip-rule="evenodd"
                                        d="M19.1797 28.0859C19.4257 28.0633 19.6601 28.1024 19.8828 28.2031C20.3125 28.6328 20.7422 29.0625 21.1719 29.4922C21.4506 30.0624 21.2813 30.4009 20.664 30.5078C20.5235 30.5018 20.3933 30.4627 20.2734 30.3906C19.8437 29.9609 19.414 29.5312 18.9844 29.1015C18.7858 28.7061 18.8509 28.3676 19.1797 28.0859Z"
                                        fill="#C7844F" />
                                    <path opacity="0.879" fill-rule="evenodd" clip-rule="evenodd"
                                        d="M3.94535 30.4297C4.5857 30.432 4.83309 30.7445 4.68753 31.3672C4.25785 31.901 3.77607 32.3828 3.24222 32.8125C2.3899 32.8923 2.14251 32.5408 2.50003 31.7578C2.95025 31.268 3.43203 30.8253 3.94535 30.4297Z"
                                        fill="#C7844F" />
                                    <path opacity="0.897" fill-rule="evenodd" clip-rule="evenodd"
                                        d="M8.63279 30.4297C9.37756 30.4095 9.6249 30.748 9.37498 31.4453C8.94529 31.875 8.5156 32.3047 8.08592 32.7344C7.21352 33.0078 6.91404 32.7084 7.18748 31.8359C7.66106 31.3492 8.14287 30.8805 8.63279 30.4297Z"
                                        fill="#C7844F" />
                                    <path opacity="0.879" fill-rule="evenodd" clip-rule="evenodd"
                                        d="M13.3985 30.4297C14.0388 30.432 14.2862 30.7445 14.1407 31.3672C13.711 31.901 13.2292 32.3828 12.6953 32.8125C11.843 32.8923 11.5957 32.5408 11.9532 31.7578C12.4034 31.268 12.8851 30.8253 13.3985 30.4297Z"
                                        fill="#C7844F" />
                                    <path opacity="0.895" fill-rule="evenodd" clip-rule="evenodd"
                                        d="M18.0859 30.4297C18.8307 30.4095 19.0781 30.748 18.8281 31.4453C18.3984 31.875 17.9688 32.3047 17.5391 32.7344C16.7438 33.0203 16.4183 32.7469 16.5625 31.9141C17.0621 31.4013 17.5699 30.9065 18.0859 30.4297Z"
                                        fill="#C7844F" />
                                    <path opacity="0.903" fill-rule="evenodd" clip-rule="evenodd"
                                        d="M22.8516 30.4297C23.4919 30.432 23.7393 30.7445 23.5938 31.3672C23.112 31.849 22.6303 32.3307 22.1485 32.8125C21.2961 32.8923 21.0488 32.5408 21.4063 31.7578C21.8565 31.268 22.3382 30.8253 22.8516 30.4297Z"
                                        fill="#C7844F" />
                                    <path opacity="0.898" fill-rule="evenodd" clip-rule="evenodd"
                                        d="M5.11719 32.7734C5.30678 32.7752 5.48907 32.8143 5.66407 32.8906C6.11979 33.3463 6.57553 33.8021 7.03125 34.2578C7.2398 34.8041 7.05751 35.1427 6.48438 35.2734C6.3425 35.2087 6.19927 35.1435 6.05469 35.0781C5.625 34.6484 5.19532 34.2188 4.76563 33.7891C4.5949 33.3508 4.71208 33.0122 5.11719 32.7734Z"
                                        fill="#C7844F" />
                                    <path opacity="0.895" fill-rule="evenodd" clip-rule="evenodd"
                                        d="M9.88284 32.7734C10.1114 32.7703 10.3196 32.8354 10.5078 32.9687C10.9115 33.3724 11.3151 33.776 11.7188 34.1797C11.9978 34.9927 11.7243 35.3182 10.8985 35.1562C10.4167 34.6744 9.93495 34.1927 9.45316 33.7109C9.32761 33.2594 9.47089 32.9469 9.88284 32.7734Z"
                                        fill="#C7844F" />
                                    <path opacity="0.897" fill-rule="evenodd" clip-rule="evenodd"
                                        d="M14.5703 32.7734C14.76 32.7752 14.9422 32.8143 15.1172 32.8906C15.5729 33.3463 16.0287 33.8021 16.4844 34.2578C16.685 34.8017 16.5027 35.1403 15.9375 35.2734C15.8282 35.2166 15.711 35.1776 15.586 35.1562C15.1303 34.7005 14.6745 34.2448 14.2188 33.7891C14.0484 33.3498 14.1656 33.0112 14.5703 32.7734Z"
                                        fill="#C7844F" />
                                    <path opacity="0.895" fill-rule="evenodd" clip-rule="evenodd"
                                        d="M19.336 32.7734C19.5645 32.7703 19.7728 32.8354 19.961 32.9687C20.3646 33.3724 20.7682 33.776 21.1719 34.1797C21.4509 34.9927 21.1775 35.3182 20.3516 35.1562C19.8698 34.6744 19.3881 34.1927 18.9063 33.7109C18.7807 33.2594 18.924 32.9469 19.336 32.7734Z"
                                        fill="#C7844F" />
                                    <path opacity="0.9" fill-rule="evenodd" clip-rule="evenodd"
                                        d="M3.7891 35.1954C4.55707 35.0648 4.85655 35.3773 4.68754 36.1329C4.23181 36.5886 3.77607 37.0443 3.32035 37.5C2.64277 37.7147 2.31725 37.4673 2.34379 36.7579C2.8129 36.2237 3.29467 35.7029 3.7891 35.1954Z"
                                        fill="#C7844F" />
                                    <path opacity="0.878" fill-rule="evenodd" clip-rule="evenodd"
                                        d="M8.55463 35.1954C9.40596 35.1535 9.65331 35.5181 9.29682 36.2891C8.86159 36.7768 8.37979 37.2065 7.85151 37.5782C7.21027 37.6135 6.96288 37.314 7.10932 36.6797C7.55451 36.1435 8.03627 35.6487 8.55463 35.1954Z"
                                        fill="#C7844F" />
                                    <path opacity="0.901" fill-rule="evenodd" clip-rule="evenodd"
                                        d="M13.2422 35.1953C13.9681 35.0548 14.2675 35.3412 14.1407 36.0547C13.7135 36.5601 13.2578 37.0419 12.7735 37.5C12.0959 37.7147 11.7704 37.4673 11.7969 36.7578C12.2661 36.2237 12.7478 35.7028 13.2422 35.1953Z"
                                        fill="#C7844F" />
                                    <path opacity="0.901" fill-rule="evenodd" clip-rule="evenodd"
                                        d="M18.0079 35.1953C18.6418 35.0875 18.9412 35.3479 18.9063 35.9765C18.4531 36.5079 17.9713 37.0157 17.461 37.5C16.7453 37.696 16.4457 37.4225 16.5625 36.6797C17.0077 36.1434 17.4895 35.6486 18.0079 35.1953Z"
                                        fill="#C7844F" />
                                    <path opacity="0.9" fill-rule="evenodd" clip-rule="evenodd"
                                        d="M22.6954 35.1953C23.5275 35.0898 23.8009 35.4283 23.5157 36.211C23.086 36.6406 22.6563 37.0703 22.2266 37.5C21.405 37.7201 21.1055 37.4206 21.3282 36.6016C21.7997 36.1431 22.2555 35.6743 22.6954 35.1953Z"
                                        fill="#C7844F" />
                                </g>
                                <defs>
                                    <clipPath id="clip0_191_315">
                                        <rect width="40" height="40" fill="white" />
                                    </clipPath>
                                </defs>
                            </svg>