<svg xmlns="http://www.w3.org/2000/svg" width="40" height="40" viewBox="0 0 40 40"
                                fill="none">
                                <g clip-path="url(#clip0_335_4441)">
                                    <path
                                        d="M20.8246 22.6602C19.3304 22.6532 17.8458 22.4189 16.422 21.9656C15.3044 21.5917 14.3061 20.928 13.5289 20.0422C12.7517 19.1564 12.2234 18.0802 11.998 16.9236C11.496 14.5062 12.4113 11.9502 14.5073 9.91024C14.7325 9.69107 14.9665 9.48112 15.2086 9.28091C16.2659 8.39569 17.5228 7.78108 18.8707 7.49013C20.2186 7.19918 21.617 7.24063 22.9453 7.61091C24.2192 8.01768 25.336 8.80872 26.1424 9.87547C26.9488 10.9422 27.4053 12.2324 27.4493 13.5689C27.5471 15.1454 27.0332 16.699 26.0146 17.9062C25.6293 18.3915 25.1177 18.7613 24.5361 18.9748C23.9544 19.1884 23.3251 19.2376 22.7173 19.1169C22.4665 19.0649 22.2288 18.9628 22.0184 18.8167C21.8079 18.6707 21.6291 18.4837 21.4926 18.2669C21.3702 18.0564 21.2914 17.8232 21.2612 17.5815C21.231 17.3398 21.2498 17.0945 21.3166 16.8602C21.9 14.6562 22.4926 11.3069 22.4986 11.2736C22.5139 11.1873 22.5459 11.105 22.593 11.0311C22.6401 10.9573 22.7013 10.8934 22.773 10.8432C22.8448 10.793 22.9257 10.7574 23.0112 10.7385C23.0967 10.7196 23.1851 10.7177 23.2713 10.7329C23.3575 10.7481 23.4399 10.7802 23.5138 10.8273C23.5876 10.8744 23.6515 10.9355 23.7017 11.0073C23.7519 11.079 23.7875 11.16 23.8064 11.2455C23.8253 11.331 23.8272 11.4193 23.812 11.5056C23.7873 11.6449 23.2033 14.9436 22.606 17.2009C22.5849 17.2629 22.5767 17.3284 22.5819 17.3937C22.5871 17.4589 22.6055 17.5224 22.636 17.5802C22.7282 17.7077 22.8673 17.7933 23.0226 17.8182C23.3948 17.8804 23.7769 17.8396 24.1277 17.7004C24.4784 17.5612 24.7844 17.3288 25.0126 17.0282C25.8036 16.082 26.1999 14.8676 26.1193 13.6369C26.0875 12.573 25.7272 11.5449 25.0879 10.6939C24.4486 9.84284 23.5616 9.21048 22.5486 8.88358C21.4327 8.57661 20.2587 8.54577 19.1282 8.79374C17.9976 9.04172 16.9444 9.56104 16.0593 10.3069C15.8453 10.4849 15.6366 10.6709 15.4366 10.8656C14.4006 11.8736 12.7453 13.9656 13.3033 16.6522C13.4875 17.5746 13.9095 18.4329 14.5275 19.142C15.1455 19.8511 15.9381 20.3864 16.8266 20.6949C19.9533 21.6922 24.4466 21.8129 26.8133 18.8696C26.9254 18.7362 27.0853 18.6521 27.2587 18.6351C27.4321 18.6181 27.6052 18.6697 27.741 18.7788C27.8769 18.8879 27.9646 19.0458 27.9855 19.2188C28.0063 19.3917 27.9587 19.566 27.8526 19.7042C26.102 21.8816 23.438 22.6602 20.8246 22.6602Z"
                                        fill="white" />
                                    <path
                                        d="M18.5438 19.2034C17.8391 19.2157 17.1516 18.9847 16.5972 18.5494C15.3178 17.5254 15.2825 15.7461 15.6412 14.5347C15.7625 14.1314 15.9245 13.7414 16.1258 13.3714C16.626 12.3621 17.4258 11.532 18.4158 10.9947C19.0163 10.6833 19.701 10.5732 20.3688 10.6807C21.0367 10.7883 21.6522 11.1078 22.1245 11.5921C22.6056 12.1193 22.968 12.7435 23.1872 13.4227C23.2423 13.5883 23.2303 13.7688 23.1538 13.9256C23.0773 14.0824 22.9424 14.203 22.778 14.2615C22.6136 14.3199 22.4329 14.3116 22.2746 14.2383C22.1162 14.165 21.9929 14.0326 21.9312 13.8694C21.7731 13.3678 21.5104 12.9054 21.1605 12.5127C20.8854 12.2313 20.5258 12.0476 20.1366 11.9894C19.7474 11.9313 19.3498 12.002 19.0045 12.1907C18.262 12.6095 17.6654 13.2452 17.2945 14.0127C17.1387 14.3004 17.013 14.6033 16.9192 14.9167C16.6598 15.7927 16.7172 16.9367 17.4318 17.5087C18.2132 18.1367 19.5318 17.8714 20.2738 17.2314C20.8265 16.7335 21.3014 16.1556 21.6825 15.5167C21.7287 15.4423 21.7891 15.3777 21.8602 15.3267C21.9314 15.2756 22.0119 15.239 22.0971 15.219C22.1824 15.1991 22.2708 15.1961 22.3572 15.2103C22.4436 15.2245 22.5264 15.2556 22.6008 15.3017C22.6753 15.3479 22.7398 15.4083 22.7909 15.4795C22.842 15.5506 22.8786 15.6311 22.8985 15.7164C22.9185 15.8017 22.9215 15.89 22.9073 15.9765C22.8931 16.0629 22.862 16.1457 22.8158 16.2201C22.364 16.9726 21.8014 17.6529 21.1472 18.2381C20.4182 18.8531 19.4975 19.1945 18.5438 19.2034Z"
                                        fill="white" />
                                    <path
                                        d="M38 40.0004H2C1.46973 39.9999 0.961329 39.789 0.586371 39.4141C0.211413 39.0391 0.000529607 38.5307 1.30366e-07 38.0004V13.3338C-7.91099e-05 13.207 0.0359667 13.0829 0.103913 12.9759C0.171859 12.8689 0.268891 12.7836 0.383635 12.7297C0.49838 12.6759 0.626084 12.656 0.751779 12.6721C0.877475 12.6883 0.995955 12.74 1.09333 12.8211L17.4507 26.4158C18.1682 27.0086 19.0699 27.333 20.0007 27.333C20.9314 27.333 21.8331 27.0086 22.5507 26.4158L38.9067 12.8204C39.0041 12.7393 39.1226 12.6876 39.2484 12.6715C39.3741 12.6553 39.5019 12.6753 39.6167 12.7292C39.7314 12.7831 39.8285 12.8686 39.8964 12.9757C39.9643 13.0828 40.0002 13.207 40 13.3338V38.0004C39.9995 38.5307 39.7886 39.0391 39.4136 39.4141C39.0387 39.789 38.5303 39.9999 38 40.0004ZM1.33333 14.7544V38.0004C1.33333 38.3684 1.632 38.6671 2 38.6671H38C38.1768 38.6671 38.3464 38.5969 38.4714 38.4718C38.5964 38.3468 38.6667 38.1772 38.6667 38.0004V14.7544L23.4013 27.4411C22.4445 28.2319 21.2419 28.6646 20.0006 28.6649C18.7592 28.6651 17.5565 28.2329 16.5993 27.4424L1.33333 14.7544Z"
                                        fill="white" />
                                    <path
                                        d="M0.667967 14.0001C0.526388 14.0003 0.388397 13.9555 0.273984 13.8721C0.159571 13.7887 0.0746783 13.6711 0.0316036 13.5362C-0.011471 13.4013 -0.0104906 13.2563 0.0344028 13.122C0.0792962 12.9877 0.165771 12.8712 0.281301 12.7894L6.2813 8.53605C6.42558 8.43377 6.60458 8.39299 6.77893 8.42268C6.95327 8.45237 7.10868 8.55011 7.21097 8.69439C7.31325 8.83866 7.35403 9.01766 7.32434 9.19201C7.29465 9.36636 7.19691 9.52177 7.05263 9.62405L1.05263 13.8774C0.940293 13.9573 0.805828 14.0002 0.667967 14.0001ZM39.3333 14.0001C39.1954 14.0002 39.061 13.9573 38.9486 13.8774L32.9486 9.62405C32.8059 9.52126 32.7095 9.36621 32.6806 9.19269C32.6517 9.01917 32.6925 8.84124 32.7942 8.69769C32.8958 8.55414 33.0501 8.4566 33.2234 8.42632C33.3967 8.39604 33.575 8.43548 33.7193 8.53605L39.7193 12.7894C39.8347 12.8712 39.9212 12.9875 39.9661 13.1217C40.011 13.2558 40.0121 13.4008 39.9692 13.5356C39.9263 13.6704 39.8416 13.788 39.7274 13.8715C39.6132 13.955 39.4748 14 39.3333 14.0001ZM26.1606 4.66672C26.0226 4.66684 25.8879 4.62397 25.7753 4.54405L22.5886 2.28405C21.8719 1.67821 20.9651 1.34321 20.0266 1.33748C19.0881 1.33176 18.1774 1.65567 17.4533 2.25272L14.2266 4.54405C14.0824 4.64634 13.9034 4.68712 13.729 4.65743C13.5547 4.62773 13.3993 4.53 13.297 4.38572C13.1947 4.24144 13.1539 4.06244 13.1836 3.88809C13.2133 3.71375 13.311 3.55834 13.4553 3.45605L16.642 1.19605C17.5966 0.415433 18.7933 -0.00847095 20.0265 -0.00287498C21.2597 0.00272098 22.4524 0.437467 23.4 1.22672L26.5466 3.45605C26.6622 3.53789 26.7486 3.65439 26.7935 3.78866C26.8384 3.92293 26.8394 4.06801 26.7963 4.20288C26.7533 4.33775 26.6684 4.4554 26.554 4.5388C26.4395 4.62219 26.3015 4.66699 26.16 4.66672H26.1606ZM1.10063 39.6401C0.963358 39.6403 0.829346 39.5982 0.716902 39.5195C0.604459 39.4407 0.519065 39.3292 0.472387 39.2001C0.425708 39.071 0.42002 38.9306 0.456098 38.7982C0.492177 38.6657 0.568264 38.5476 0.673967 38.4601L15.8873 25.8201C15.9547 25.7641 16.0324 25.722 16.116 25.6961C16.1997 25.6702 16.2876 25.661 16.3748 25.6691C16.462 25.6772 16.5468 25.7023 16.6242 25.7432C16.7017 25.784 16.7704 25.8397 16.8263 25.9071C16.8822 25.9744 16.9244 26.0521 16.9503 26.1358C16.9762 26.2194 16.9854 26.3074 16.9773 26.3946C16.9692 26.4818 16.944 26.5665 16.9032 26.644C16.8624 26.7214 16.8067 26.7901 16.7393 26.8461L1.52597 39.4861C1.40656 39.5855 1.25606 39.64 1.10063 39.6401ZM38.9 39.6401C38.7445 39.6402 38.594 39.5857 38.4746 39.4861L23.2613 26.8461C23.1922 26.7907 23.1348 26.7221 23.0925 26.6443C23.0502 26.5665 23.0238 26.4811 23.0149 26.393C23.006 26.3049 23.0147 26.2159 23.0405 26.1312C23.0664 26.0465 23.1088 25.9678 23.1654 25.8997C23.222 25.8316 23.2916 25.7755 23.3701 25.7346C23.4487 25.6936 23.5345 25.6688 23.6228 25.6614C23.711 25.6541 23.7999 25.6644 23.8841 25.6917C23.9683 25.7191 24.0462 25.7629 24.1133 25.8207L39.3266 38.4607C39.4323 38.5483 39.5084 38.6664 39.5445 38.7988C39.5806 38.9313 39.5749 39.0716 39.5282 39.2007C39.4815 39.3298 39.3961 39.4414 39.2837 39.5201C39.1713 39.5989 39.0372 39.6403 38.9 39.6401Z"
                                        fill="white" />
                                    <path
                                        d="M33.3333 18.9868C33.1565 18.9868 32.987 18.9165 32.8619 18.7915C32.7369 18.6665 32.6667 18.4969 32.6667 18.3201V4.67209C32.6647 4.68543 32.638 4.66676 32.5933 4.66676H7.40667C7.39209 4.66588 7.37748 4.66797 7.36373 4.67289C7.34998 4.67782 7.33737 4.68549 7.32667 4.69543L7.33333 18.3201C7.33333 18.4969 7.2631 18.6665 7.13807 18.7915C7.01305 18.9165 6.84348 18.9868 6.66667 18.9868C6.48986 18.9868 6.32029 18.9165 6.19526 18.7915C6.07024 18.6665 6 18.4969 6 18.3201V4.66676C6.01047 4.30366 6.16436 3.95951 6.428 3.70961C6.69163 3.45972 7.04353 3.32446 7.40667 3.33343H32.5933C32.9565 3.32446 33.3084 3.45972 33.572 3.70961C33.8356 3.95951 33.9895 4.30366 34 4.66676V18.3201C34 18.4969 33.9298 18.6665 33.8047 18.7915C33.6797 18.9165 33.5101 18.9868 33.3333 18.9868Z"
                                        fill="white" />
                                </g>
                                <defs>
                                    <clipPath id="clip0_335_4441">
                                        <rect width="40" height="40" fill="white" />
                                    </clipPath>
                                </defs>
                            </svg>