 <svg xmlns="http://www.w3.org/2000/svg" width="16" height="16"
                                                        viewBox="0 0 16 16" fill="none">
                                                        <g clip-path="url(#clip0_325_1296)">
                                                            <path
                                                                d="M12.7273 12.6666H6.73133C5.86667 12.6666 5.1 12.0993 4.866 11.2866L2.83933 4.41929C2.76733 4.17063 2.528 3.99996 2.25467 3.99996H0.666667C0.298 3.99996 0 3.70129 0 3.33329C0 2.96529 0.298 2.66663 0.666667 2.66663H2.25467C3.11933 2.66663 3.88533 3.23396 4.11933 4.04663L4.49867 5.33329H14.6953C15.1113 5.33329 15.506 5.53129 15.7507 5.86329C15.9933 6.19263 16.0633 6.60463 15.9427 6.99396L14.5673 11.3593C14.298 12.1473 13.56 12.6666 12.7273 12.6666Z"
                                                                fill="white" />
                                                            <path
                                                                d="M7.33333 16C6.598 16 6 15.402 6 14.6667C6 13.9314 6.598 13.3334 7.33333 13.3334C8.06867 13.3334 8.66667 13.9314 8.66667 14.6667C8.66667 15.402 8.06867 16 7.33333 16Z"
                                                                fill="white" />
                                                            <path
                                                                d="M11.9974 15.9999C11.2621 15.9999 10.6641 15.4019 10.6641 14.6666C10.6641 13.9313 11.2621 13.3333 11.9974 13.3333C12.7327 13.3333 13.3307 13.9313 13.3307 14.6666C13.3307 15.4019 12.7327 15.9999 11.9974 15.9999Z"
                                                                fill="white" />
                                                        </g>
                                                        <defs>
                                                            <clipPath id="clip0_325_1296">
                                                                <rect width="16" height="16" fill="white" />
                                                            </clipPath>
                                                        </defs>
                                                    </svg>