<svg width="36" height="36" viewBox="0 0 36 36" fill="none" xmlns="http://www.w3.org/2000/svg">
<path opacity="0.972" fill-rule="evenodd" clip-rule="evenodd" d="M12.6211 5.02734C18.8087 5.01562 24.9962 5.02734 31.1836 5.0625C31.3125 5.09766 31.3945 5.17969 31.4297 5.30859C31.4648 5.77676 31.4765 6.24551 31.4648 6.71484C32.6838 6.70313 33.9026 6.71485 35.1211 6.75C35.25 6.78516 35.332 6.86719 35.3672 6.99609C35.4141 14.8711 35.4141 22.7461 35.3672 30.6211C35.3409 30.6855 35.3057 30.7441 35.2617 30.7969C26.2205 30.9138 17.1736 30.9372 8.12109 30.8672C7.99221 30.832 7.91016 30.75 7.875 30.6211C7.83984 29.7777 7.8281 28.9339 7.83984 28.0898C5.49598 28.1016 3.15223 28.0898 0.808594 28.0547C0.679688 28.0195 0.597656 27.9375 0.5625 27.8086C0.515625 26.8711 0.515625 25.9336 0.5625 24.9961C3.19727 18.9434 5.8457 12.8965 8.50781 6.85547C8.56055 6.81147 8.61919 6.77631 8.68359 6.75C9.73905 6.73824 10.7937 6.70309 11.8477 6.64453C12 6.24609 12.1523 5.84766 12.3047 5.44922C12.3612 5.26318 12.4667 5.12255 12.6211 5.02734ZM13.3242 6.15234C13.5586 6.15234 13.793 6.15234 14.0273 6.15234C13.8908 7.26335 14.0666 8.31804 14.5547 9.31641C15.0922 9.9462 15.4203 10.6727 15.5391 11.4961C15.4981 12.7911 15.3809 14.0801 15.1875 15.3633C15.0074 15.7543 14.7144 16.0238 14.3086 16.1719C13.3644 16.1582 12.5558 16.4746 11.8828 17.1211C11.6641 17.3944 11.5 17.6991 11.3906 18.0352C10.9965 19.5067 10.5862 20.9715 10.1602 22.4297C9.12916 22.4648 8.09789 22.4766 7.06641 22.4648C7.81889 20.4203 8.59233 18.3812 9.38672 16.3477C11.5424 16.0549 12.89 14.8596 13.4297 12.7617C13.6445 11.2856 13.2578 9.99647 12.2695 8.89453C12.6354 7.98434 12.9869 7.07027 13.3242 6.15234ZM15.1523 6.15234C15.7148 6.15234 16.2773 6.15234 16.8398 6.15234C16.8334 6.87149 17.0327 7.52773 17.4375 8.12109C17.9082 8.54698 18.2362 9.06258 18.4219 9.66797C18.5569 11.0969 18.5569 12.5266 18.4219 13.957C18.2808 14.6609 18.0229 15.3172 17.6484 15.9258C17.0196 16.6018 16.3867 17.2815 15.75 17.9648C14.8138 19.3189 14.4271 20.8189 14.5898 22.4648C13.5341 22.4883 12.4794 22.4648 11.4258 22.3945C11.8159 20.9273 12.2496 19.4742 12.7266 18.0352C13.2144 17.5367 13.812 17.314 14.5195 17.3672C15.4387 17.0808 16.0598 16.4831 16.3828 15.5742C16.5889 14.1743 16.7061 12.768 16.7344 11.3555C16.6151 10.4106 16.2635 9.56686 15.6797 8.82422C15.2603 7.98581 15.0846 7.09517 15.1523 6.15234ZM18.0352 6.15234C18.7617 6.15234 19.4883 6.15234 20.2148 6.15234C20.1948 6.92858 20.23 7.70203 20.3203 8.47266C20.6688 9.77569 20.9734 11.0881 21.2344 12.4102C21.3339 15.7606 21.3691 19.1122 21.3398 22.4648C20.9649 22.4648 20.5898 22.4648 20.2148 22.4648C20.2266 21.2458 20.2148 20.0271 20.1797 18.8086C20.0625 18.586 19.8751 18.4922 19.6172 18.5273C18.1452 18.8743 17.2311 19.7884 16.875 21.2695C16.8399 21.6673 16.8282 22.0658 16.8398 22.4648C16.4649 22.4648 16.0898 22.4648 15.7148 22.4648C15.6161 21.0391 15.9794 19.7501 16.8047 18.5977C17.535 17.9377 18.1912 17.2112 18.7734 16.418C19.1937 15.6947 19.4749 14.9213 19.6172 14.0977C19.6641 12.5508 19.6641 11.0039 19.6172 9.45703C19.4598 8.67312 19.0848 8.01689 18.4922 7.48828C18.1798 7.09784 18.0275 6.65255 18.0352 6.15234ZM21.3398 6.15234C22.0434 6.14064 22.7465 6.15236 23.4492 6.1875C23.0333 7.43829 22.9278 8.71566 23.1328 10.0195C23.4437 11.1103 24.0062 12.0478 24.8203 12.832C25.2899 13.8035 25.3837 14.8113 25.1016 15.8555C24.7304 16.2266 24.3553 16.6017 23.9766 16.9805C23.8205 17.2456 23.7034 17.5269 23.625 17.8242C23.5898 19.3709 23.5781 20.9178 23.5898 22.4648C23.2149 22.4648 22.8398 22.4648 22.4648 22.4648C22.4766 19.0664 22.4648 15.6679 22.4297 12.2695C22.3746 11.8451 22.3042 11.4233 22.2187 11.0039C21.9556 10.1209 21.7213 9.23027 21.5156 8.33203C21.4337 7.60725 21.3751 6.88068 21.3398 6.15234ZM24.6445 6.15234C25.043 6.15234 25.4414 6.15234 25.8398 6.15234C25.8282 6.85586 25.8398 7.55902 25.875 8.26172C25.9722 8.78407 26.1832 9.25284 26.5078 9.66797C26.9101 10.0702 27.3085 10.4686 27.7031 10.8633C27.9184 11.2321 28.0356 11.6305 28.0547 12.0586C28.1016 13.957 28.1016 15.8555 28.0547 17.7539C27.2837 19.2298 26.9204 20.8002 26.9648 22.4648C26.2148 22.4648 25.4649 22.4648 24.7148 22.4648C24.6847 20.9855 24.7198 19.5089 24.8203 18.0352C24.8598 17.8787 24.9301 17.7381 25.0312 17.6133C25.6921 17.1873 26.1374 16.6014 26.3672 15.8555C26.7564 14.0112 26.2877 12.441 24.9609 11.1445C24.3181 10.2368 24.0837 9.22901 24.2578 8.12109C24.3914 7.4648 24.5204 6.80854 24.6445 6.15234ZM26.9648 6.15234C28.0898 6.15234 29.2148 6.15234 30.3398 6.15234C30.3516 9.05871 30.3398 11.9649 30.3047 14.8711C29.9273 15.2249 29.5758 15.5999 29.25 15.9961C29.2266 14.4492 29.2031 12.9023 29.1797 11.3555C28.9369 10.3784 28.3978 9.60497 27.5625 9.03516C27.1989 8.6123 27.0115 8.12011 27 7.55859C26.9648 7.09045 26.9532 6.62168 26.9648 6.15234ZM9.38672 7.83984C10.0446 7.8165 10.7009 7.83999 11.3555 7.91016C9.44529 12.8554 7.53518 17.8008 5.625 22.7461C5.58986 23.4019 5.57814 24.0582 5.58984 24.7148C4.3943 24.7266 3.19899 24.7148 2.00391 24.6797C4.47188 19.0685 6.93282 13.4552 9.38672 7.83984ZM31.4648 7.83984C32.4023 7.83984 33.3399 7.83984 34.2773 7.83984C34.2773 14.2149 34.2773 20.5898 34.2773 26.9648C32.5898 26.9648 30.9023 26.9648 29.2148 26.9648C29.2148 26.5899 29.2148 26.2148 29.2148 25.8398C29.8715 25.8515 30.5278 25.8398 31.1836 25.8047C31.3125 25.7695 31.3945 25.6875 31.4297 25.5586C31.4648 19.6524 31.4766 13.7462 31.4648 7.83984ZM11.707 10.2305C12.2352 10.9382 12.411 11.7351 12.2344 12.6211C11.9187 13.8274 11.1687 14.6242 9.98437 15.0117C9.96152 14.8674 9.98501 14.7267 10.0547 14.5898C10.6269 13.1425 11.1777 11.6893 11.707 10.2305ZM30.2695 16.6289C30.3397 18.5622 30.3631 20.5075 30.3398 22.4648C29.5895 22.4766 28.8394 22.4648 28.0898 22.4297C28.1455 20.2346 28.872 18.301 30.2695 16.6289ZM19.0195 20.0039C19.0895 20.8117 19.1129 21.632 19.0898 22.4648C18.7149 22.4648 18.3398 22.4648 17.9648 22.4648C17.8957 21.4505 18.2473 20.6302 19.0195 20.0039ZM6.71484 23.5898C14.5898 23.5898 22.4648 23.5898 30.3398 23.5898C30.3398 23.9648 30.3398 24.3399 30.3398 24.7148C29.6832 24.7032 29.0269 24.7148 28.3711 24.75C28.3067 24.7763 28.248 24.8115 28.1953 24.8555C28.1156 25.364 28.0805 25.8796 28.0898 26.4023C28.1016 26.8711 28.1133 27.3398 28.125 27.8086C28.1513 27.873 28.1865 27.9316 28.2305 27.9844C30.2399 28.0886 32.2555 28.1238 34.2773 28.0898C34.2773 28.6523 34.2773 29.2148 34.2773 29.7773C25.8398 29.7773 17.4023 29.7773 8.96484 29.7773C8.97659 28.9332 8.96484 28.0895 8.92969 27.2461C8.89453 27.1172 8.81248 27.0352 8.68359 27C6.33996 26.9648 3.99621 26.9531 1.65234 26.9648C1.65234 26.5899 1.65234 26.2148 1.65234 25.8398C3.24626 25.8516 4.84002 25.8398 6.43359 25.8047C6.5625 25.7695 6.64453 25.6875 6.67969 25.5586C6.71483 24.9028 6.72655 24.2465 6.71484 23.5898Z" fill="#C7844F"/>
</svg>
