<svg width="12" height="12" viewBox="0 0 12 12" fill="none" xmlns="http://www.w3.org/2000/svg">
<g clip-path="url(#clip0_401_365)">
<path d="M11.7739 4.45069C11.6857 4.18837 11.4587 3.99712 11.1853 3.95531L8.00362 3.46912L6.57449 0.424687C6.45262 0.165188 6.19218 0 5.90605 0C5.61974 0 5.35949 0.165188 5.23762 0.424687L3.80831 3.46931L0.626618 3.9555C0.353243 3.99731 0.126181 4.18837 0.038243 4.45087C-0.0496945 4.71337 0.0166805 5.0025 0.209993 5.20087L2.53349 7.58344L1.98318 10.9541C1.93781 11.2331 2.05612 11.5136 2.28693 11.6767C2.51756 11.8399 2.82206 11.8564 3.07012 11.7195L5.90624 10.1511L8.74237 11.7195C8.85431 11.7814 8.97749 11.8117 9.10012 11.8117C9.24937 11.8117 9.39862 11.7664 9.52555 11.6767C9.75637 11.5138 9.87449 11.2333 9.82912 10.9541L9.2788 7.58344L11.6025 5.20087C11.7954 5.0025 11.8618 4.71337 11.7739 4.45069Z" fill="#C7844F"/>
</g>
<defs>
<clipPath id="clip0_401_365">
<rect width="12" height="12" fill="white"/>
</clipPath>
</defs>
</svg>
