<svg width="36" height="36" viewBox="0 0 36 36" fill="none" xmlns="http://www.w3.org/2000/svg">
<g clip-path="url(#clip0_31_49)">
<path opacity="0.944" fill-rule="evenodd" clip-rule="evenodd" d="M0.597656 -0.0351562C6.01172 -0.0351562 11.4258 -0.0351562 16.8398 -0.0351562C16.8867 0.0585937 16.9336 0.0585937 16.9805 -0.0351562C22.3945 -0.0351562 27.8086 -0.0351562 33.2227 -0.0351562C33.5025 0.123106 33.7017 0.357481 33.8203 0.667969C33.8672 6.01172 33.8672 11.3555 33.8203 16.6992C33.7006 17.1467 33.4077 17.3928 32.9414 17.4375C27.7852 17.4727 22.629 17.4844 17.4727 17.4727C17.4973 17.8778 17.4622 18.2762 17.3672 18.668C17.1003 18.9002 16.8074 18.9354 16.4883 18.7734C16.4443 18.7207 16.4091 18.6621 16.3828 18.5977C16.3477 18.2234 16.336 17.8484 16.3477 17.4727C15.0351 17.4727 13.7227 17.4727 12.4102 17.4727C12.7984 19.6656 14.0875 20.9781 16.2773 21.4102C16.3355 21.1318 16.3706 20.8505 16.3828 20.5664C16.7604 20.08 17.112 20.1035 17.4375 20.6367C17.4844 24.7617 17.4844 28.8867 17.4375 33.0117C17.3609 33.4398 17.1148 33.7093 16.6992 33.8203C11.3789 33.8672 6.0586 33.8672 0.738281 33.8203C0.406963 33.7111 0.149151 33.5119 -0.0351562 33.2227C-0.0351562 27.8086 -0.0351562 22.3945 -0.0351562 16.9805C0.0585937 16.9336 0.0585937 16.8867 -0.0351562 16.8398C-0.0351562 11.4258 -0.0351562 6.01172 -0.0351562 0.597656C0.105469 0.316406 0.316406 0.105469 0.597656 -0.0351562ZM1.01953 1.01953C2.35567 1.00782 3.69161 1.01954 5.02734 1.05469C4.59375 3.26953 3.26953 4.59375 1.05469 5.02734C1.01954 3.69161 1.00782 2.35567 1.01953 1.01953ZM6.15234 1.01953C6.80859 1.01953 7.46487 1.01953 8.12109 1.01953C7.77248 4.05089 6.22559 6.21885 3.48047 7.52344C2.68958 7.8442 1.86927 8.0434 1.01953 8.12109C0.996215 7.46318 1.01965 6.80692 1.08984 6.15234C4.00523 5.65103 5.69273 3.94009 6.15234 1.01953ZM9.24609 1.08984C9.88994 1.00845 10.5462 0.996729 11.2148 1.05469C11.612 3.56111 13.0182 5.20174 15.4336 5.97656C15.7174 6.02772 15.9986 6.08632 16.2773 6.15234C16.3475 6.80692 16.371 7.46318 16.3477 8.12109C12.94 7.70091 10.6782 5.87279 9.5625 2.63672C9.42356 2.11765 9.31809 1.60203 9.24609 1.08984ZM12.4102 1.01953C13.7227 1.01953 15.0351 1.01953 16.3477 1.01953C16.3594 2.35567 16.3477 3.69161 16.3125 5.02734C14.5775 4.72205 13.3587 3.76112 12.6562 2.14453C12.5295 1.77836 12.4475 1.40336 12.4102 1.01953ZM17.4727 1.01953C18.786 0.996124 20.0985 1.01956 21.4102 1.08984C20.975 3.2829 19.6625 4.57196 17.4727 4.95703C17.4727 3.64453 17.4727 2.33203 17.4727 1.01953ZM22.5352 1.01953C23.1914 1.01953 23.8477 1.01953 24.5039 1.01953C24.3023 3.21154 23.3648 5.01623 21.6914 6.43359C21.5158 6.69516 21.5275 6.95298 21.7266 7.20703C22.0233 7.39434 22.3163 7.3826 22.6055 7.17187C23.7238 6.18908 24.5558 5.00548 25.1016 3.62109C26.0916 5.99396 27.7674 7.69317 30.1289 8.71875C27.75 9.69138 26.0742 11.3672 25.1016 13.7461C24.1289 11.3672 22.4531 9.69138 20.0742 8.71875C20.5751 8.49122 20.6923 8.13966 20.4258 7.66406C20.2929 7.58587 20.1523 7.52723 20.0039 7.48828C19.1874 7.80961 18.3437 8.02055 17.4727 8.12109C17.4493 7.46318 17.4728 6.80692 17.543 6.15234C20.4202 5.61888 22.0842 3.90795 22.5352 1.01953ZM25.6992 1.01953C26.3554 1.01953 27.0117 1.01953 27.668 1.01953C27.9374 3.26949 29.1092 4.85152 31.1836 5.76562C31.6637 5.94363 32.1559 6.07254 32.6602 6.15234C32.7303 6.80692 32.7538 7.46318 32.7305 8.12109C29.0713 7.61435 26.7626 5.5753 25.8047 2.00391C25.7348 1.6792 25.6996 1.35108 25.6992 1.01953ZM28.793 1.01953C30.1055 1.01953 31.4179 1.01953 32.7305 1.01953C32.7305 2.33203 32.7305 3.64453 32.7305 4.95703C30.7723 4.65153 29.4949 3.54997 28.8984 1.65234C28.8495 1.44295 28.8143 1.23201 28.793 1.01953ZM8.61328 3.69141C8.84327 4.00906 9.04247 4.36062 9.21094 4.74609C10.2826 6.56748 11.7944 7.89166 13.7461 8.71875C11.3672 9.69138 9.69138 11.3672 8.71875 13.7461C7.73648 11.3693 6.06074 9.68182 3.69141 8.68359C6.04456 7.71328 7.68516 6.04924 8.61328 3.69141ZM8.61328 7.48828C9.07664 7.83415 9.49851 8.23261 9.87891 8.68359C9.50393 9.10547 9.10547 9.50393 8.68359 9.87891C8.26172 9.50393 7.86326 9.10547 7.48828 8.68359C7.8648 8.28373 8.23978 7.88526 8.61328 7.48828ZM24.9961 7.48828C25.4272 7.88414 25.8491 8.29434 26.2617 8.71875C25.8739 9.11826 25.4756 9.50498 25.0664 9.87891C24.6445 9.50393 24.2461 9.10547 23.8711 8.68359C24.2476 8.28373 24.6226 7.88526 24.9961 7.48828ZM1.01953 9.24609C4.50809 9.69975 6.79324 11.5982 7.875 14.9414C7.99151 15.405 8.07356 15.8737 8.12109 16.3477C7.46318 16.371 6.80692 16.3475 6.15234 16.2773C5.69121 13.6481 4.16777 11.9958 1.58203 11.3203C1.39598 11.2854 1.20848 11.2736 1.01953 11.2852C1.01953 10.6054 1.01953 9.9258 1.01953 9.24609ZM16.2773 9.24609C16.3472 9.91308 16.3706 10.5927 16.3477 11.2852C13.9082 11.5857 12.2792 12.8982 11.4609 15.2227C11.3345 15.5875 11.2759 15.9625 11.2852 16.3477C10.6051 16.3593 9.92538 16.3477 9.24609 16.3125C9.69061 12.9395 11.5187 10.6895 14.7305 9.5625C15.2511 9.43312 15.7668 9.32765 16.2773 9.24609ZM17.4727 9.24609C21.1747 9.79038 23.4832 11.8763 24.3984 15.5039C24.4436 15.7845 24.4787 16.0658 24.5039 16.3477C23.8477 16.3477 23.1914 16.3477 22.5352 16.3477C22.0863 13.4144 20.3988 11.7269 17.4727 11.2852C17.4727 10.6054 17.4727 9.9258 17.4727 9.24609ZM32.6602 9.24609C32.73 9.91308 32.7535 10.5927 32.7305 11.2852C30.7911 11.487 29.3262 12.4244 28.3359 14.0977C27.9495 14.7998 27.7268 15.5498 27.668 16.3477C27.0117 16.3477 26.3554 16.3477 25.6992 16.3477C26.0728 13.056 27.8072 10.8177 30.9023 9.63281C31.4908 9.47081 32.0767 9.34186 32.6602 9.24609ZM1.01953 12.4102C2.75721 12.6761 3.98768 13.6136 4.71094 15.2227C4.83329 15.5835 4.93876 15.9468 5.02734 16.3125C3.69161 16.3477 2.35567 16.3594 1.01953 16.3477C1.01953 15.0351 1.01953 13.7227 1.01953 12.4102ZM15.9961 12.4102C16.1133 12.4102 16.2304 12.4102 16.3477 12.4102C16.3477 13.7227 16.3477 15.0351 16.3477 16.3477C15.0351 16.3477 13.7227 16.3477 12.4102 16.3477C12.7734 14.2736 13.9687 12.9611 15.9961 12.4102ZM17.4727 12.4102C19.6656 12.7984 20.9781 14.0875 21.4102 16.2773C20.0985 16.3477 18.786 16.3711 17.4727 16.3477C17.4727 15.0351 17.4727 13.7227 17.4727 12.4102ZM32.3789 12.4102C32.4961 12.4102 32.6133 12.4102 32.7305 12.4102C32.7305 13.7227 32.7305 15.0351 32.7305 16.3477C31.4179 16.3477 30.1055 16.3477 28.793 16.3477C29.1587 14.2713 30.354 12.9588 32.3789 12.4102ZM1.01953 17.4727C2.33203 17.4727 3.64453 17.4727 4.95703 17.4727C4.57196 19.6625 3.2829 20.975 1.08984 21.4102C1.01956 20.0985 0.996124 18.786 1.01953 17.4727ZM6.15234 17.4727C6.80859 17.4727 7.46487 17.4727 8.12109 17.4727C7.63453 21.036 5.66579 23.3212 2.21484 24.3281C1.8203 24.4173 1.42187 24.4759 1.01953 24.5039C1.01953 23.8477 1.01953 23.1914 1.01953 22.5352C3.94041 22.0752 5.65135 20.3877 6.15234 17.4727ZM9.31641 17.4727C9.97263 17.4727 10.6289 17.4727 11.2852 17.4727C11.7267 20.3986 13.4142 22.0861 16.3477 22.5352C16.3477 23.1914 16.3477 23.8477 16.3477 24.5039C13.3882 24.1561 11.2437 22.6561 9.91406 20.0039C9.55962 19.1957 9.36042 18.3519 9.31641 17.4727ZM8.61328 20.0742C8.67487 20.065 8.72177 20.0884 8.75391 20.1445C9.73055 22.4923 11.3946 24.1446 13.7461 25.1016C11.3672 26.0742 9.69138 27.75 8.71875 30.1289C7.695 27.7692 5.99575 26.0934 3.62109 25.1016C6.00773 24.1329 7.6718 22.4572 8.61328 20.0742ZM8.68359 23.8711C9.10399 24.2446 9.50245 24.6431 9.87891 25.0664C9.50393 25.4883 9.10547 25.8867 8.68359 26.2617C8.27444 25.8878 7.87605 25.5011 7.48828 25.1016C7.90101 24.7006 8.29941 24.2905 8.68359 23.8711ZM1.01953 25.6992C4.50932 26.1027 6.79448 27.9778 7.875 31.3242C7.97991 31.7899 8.06189 32.2587 8.12109 32.7305C7.46318 32.7538 6.80692 32.7303 6.15234 32.6602C5.81825 30.5104 4.66981 28.9753 2.70703 28.0547C2.16397 27.8369 1.60147 27.708 1.01953 27.668C1.01953 27.0117 1.01953 26.3554 1.01953 25.6992ZM15.7852 25.6992C15.9727 25.6992 16.1601 25.6992 16.3477 25.6992C16.3477 26.3554 16.3477 27.0117 16.3477 27.668C14.0164 27.9718 12.411 29.2139 11.5312 31.3945C11.3813 31.8279 11.2993 32.2732 11.2852 32.7305C10.6051 32.7421 9.92538 32.7305 9.24609 32.6953C9.84326 28.8757 12.0229 26.5437 15.7852 25.6992ZM1.01953 28.793C2.94906 29.0933 4.2264 30.1714 4.85156 32.0273C4.92489 32.2563 4.96005 32.4907 4.95703 32.7305C3.64453 32.7305 2.33203 32.7305 1.01953 32.7305C1.01953 31.4179 1.01953 30.1055 1.01953 28.793ZM16.0664 28.793C16.1601 28.793 16.2539 28.793 16.3477 28.793C16.3477 30.1055 16.3477 31.4179 16.3477 32.7305C15.0351 32.7305 13.7227 32.7305 12.4102 32.7305C12.7792 30.6271 13.998 29.3146 16.0664 28.793Z" fill="#C7844F"/>
<path opacity="0.923" fill-rule="evenodd" clip-rule="evenodd" d="M8.61328 6.08203C8.78372 6.11933 8.94776 6.17792 9.10547 6.25781C9.79685 6.94922 10.4883 7.64065 11.1797 8.33203C11.3203 8.56638 11.3203 8.8008 11.1797 9.03516C10.4648 9.75002 9.75002 10.4648 9.03516 11.1797C8.8008 11.3203 8.56638 11.3203 8.33203 11.1797C7.64065 10.4883 6.94922 9.79685 6.25781 9.10547C6.19236 8.96773 6.13376 8.8271 6.08203 8.68359C6.13376 8.54009 6.19236 8.39946 6.25781 8.26172C6.92578 7.59375 7.59375 6.92578 8.26172 6.25781C8.38934 6.2046 8.50648 6.146 8.61328 6.08203ZM8.61328 7.48828C8.23978 7.88527 7.8648 8.28373 7.48828 8.68359C7.86326 9.10547 8.26172 9.50393 8.68359 9.87891C9.10547 9.50393 9.50393 9.10547 9.87891 8.68359C9.49852 8.23261 9.07664 7.83415 8.61328 7.48828Z" fill="#C7844F"/>
<path opacity="0.928" fill-rule="evenodd" clip-rule="evenodd" d="M24.9961 6.08203C25.1076 6.1276 25.2248 6.16276 25.3477 6.1875C26.0859 6.92578 26.8242 7.66406 27.5625 8.40234C27.6199 8.64591 27.5965 8.88033 27.4922 9.10547C26.8242 9.77344 26.1562 10.4414 25.4883 11.1094C25.2423 11.2995 24.9844 11.3229 24.7148 11.1797C24 10.4648 23.2852 9.75002 22.5703 9.03516C22.4297 8.8008 22.4297 8.56638 22.5703 8.33203C23.2852 7.61716 24 6.90235 24.7148 6.1875C24.8244 6.17273 24.9181 6.13758 24.9961 6.08203ZM24.9961 7.48828C24.6226 7.88527 24.2476 8.28373 23.8711 8.68359C24.2461 9.10547 24.6445 9.50393 25.0664 9.87891C25.4756 9.50498 25.8739 9.11827 26.2617 8.71875C25.8491 8.29434 25.4272 7.88414 24.9961 7.48828Z" fill="#C7844F"/>
<path opacity="0.947" fill-rule="evenodd" clip-rule="evenodd" d="M35.9648 19.0899C35.9648 24.5039 35.9648 29.918 35.9648 35.332C35.8242 35.6133 35.6133 35.8242 35.332 35.9649C29.9414 35.9649 24.5508 35.9649 19.1601 35.9649C18.7981 35.8012 18.5754 35.52 18.4922 35.1211C18.4453 29.8711 18.4453 24.6211 18.4922 19.3711C18.5742 18.8672 18.8672 18.5743 19.3711 18.4922C24.6211 18.4453 29.8711 18.4453 35.1211 18.4922C35.4913 18.57 35.7726 18.7692 35.9648 19.0899ZM19.582 19.582C20.8945 19.582 22.207 19.582 23.5195 19.582C23.2127 21.5414 22.1112 22.8187 20.2148 23.4141C20.0087 23.4811 19.7977 23.5162 19.582 23.5195C19.582 22.207 19.582 20.8946 19.582 19.582ZM24.6445 19.582C25.3246 19.5704 26.0043 19.582 26.6836 19.6172C26.2346 22.8786 24.4768 25.1052 21.4101 26.2969C20.8202 26.4751 20.2225 26.6041 19.6172 26.6836C19.582 26.0043 19.5703 25.3246 19.582 24.6445C22.0215 24.344 23.6504 23.0315 24.4687 20.707C24.5774 20.3393 24.6361 19.9643 24.6445 19.582ZM27.8086 19.582C28.4665 19.5587 29.1227 19.5822 29.7773 19.6524C30.2384 22.2816 31.7619 23.9339 34.3476 24.6094C34.5337 24.6443 34.7212 24.6561 34.9101 24.6445C34.9218 25.3246 34.9101 26.0043 34.875 26.6836C31.4052 26.2136 29.1318 24.3151 28.0547 20.9883C27.9382 20.5247 27.8561 20.056 27.8086 19.582ZM30.9023 19.6524C32.226 19.5823 33.562 19.5588 34.9101 19.582C34.9101 20.8946 34.9101 22.207 34.9101 23.5195C32.7215 23.1122 31.3856 21.823 30.9023 19.6524ZM27.1758 22.1836C27.8503 23.7377 28.8581 25.0385 30.1992 26.086C30.8354 26.5448 31.5151 26.9315 32.2383 27.2461C29.8945 28.2305 28.2305 29.8946 27.2461 32.2383C26.2479 29.869 24.5604 28.1932 22.1836 27.211C24.1989 26.4145 25.7342 25.0669 26.7891 23.168C26.9669 22.8568 27.0958 22.5287 27.1758 22.1836ZM27.1758 26.0508C27.6391 26.3967 28.061 26.7951 28.4414 27.2461C28.0664 27.668 27.668 28.0664 27.2461 28.4414C26.8242 28.0664 26.4257 27.668 26.0508 27.2461C26.4273 26.8462 26.8023 26.4478 27.1758 26.0508ZM19.582 27.8086C22.9897 28.2288 25.2515 30.0569 26.3672 33.293C26.5093 33.8164 26.6148 34.3437 26.6836 34.875C26.0274 34.9219 25.3711 34.9219 24.7148 34.875C24.3177 32.3686 22.9115 30.728 20.4961 29.9531C20.2123 29.902 19.931 29.8434 19.6523 29.7774C19.5822 29.1228 19.5587 28.4665 19.582 27.8086ZM34.6289 27.8086C34.7226 27.8086 34.8164 27.8086 34.9101 27.8086C34.9335 28.4665 34.91 29.1228 34.8398 29.7774C34.3877 29.8494 33.9424 29.9548 33.5039 30.0938C33.1356 30.324 33.0536 30.6404 33.2578 31.043C33.4867 31.1786 33.7328 31.2138 33.9961 31.1485C34.2845 31.0401 34.5775 30.9581 34.875 30.9024C34.9101 32.2381 34.9219 33.574 34.9101 34.9102C33.574 34.9219 32.2381 34.9102 30.9023 34.875C31.0586 33.8945 31.4688 33.039 32.1328 32.3086C32.2352 31.6372 31.9657 31.3911 31.3242 31.5703C30.441 32.4814 29.9254 33.5712 29.7773 34.8399C29.1227 34.91 28.4665 34.9335 27.8086 34.9102C28.3896 30.9074 30.6631 28.5402 34.6289 27.8086ZM19.582 30.9024C21.3316 31.1973 22.5621 32.1581 23.2734 33.7852C23.4001 34.1514 23.4822 34.5263 23.5195 34.9102C22.207 34.9102 20.8945 34.9102 19.582 34.9102C19.582 33.5742 19.582 32.2383 19.582 30.9024Z" fill="#C7844F"/>
<path opacity="0.917" fill-rule="evenodd" clip-rule="evenodd" d="M8.40234 22.5351C8.64689 22.5129 8.88131 22.5481 9.10547 22.6406C9.77344 23.3086 10.4414 23.9765 11.1094 24.6445C11.2995 24.8905 11.3229 25.1484 11.1797 25.418C10.4648 26.1328 9.75002 26.8476 9.03515 27.5625C8.8008 27.7031 8.56638 27.7031 8.33203 27.5625C7.61716 26.8476 6.90234 26.1328 6.1875 25.418C6.05432 25.1122 6.10119 24.8309 6.32812 24.5742C7.01215 23.8784 7.70358 23.1987 8.40234 22.5351ZM8.68359 23.8711C8.2994 24.2905 7.90101 24.7006 7.48828 25.1015C7.87605 25.5011 8.27444 25.8878 8.68359 26.2617C9.10547 25.8867 9.50393 25.4883 9.8789 25.0664C9.50245 24.643 9.10399 24.2446 8.68359 23.8711Z" fill="#C7844F"/>
<path opacity="0.923" fill-rule="evenodd" clip-rule="evenodd" d="M27.1055 24.6445C27.2761 24.6461 27.4402 24.6813 27.5977 24.75C28.289 25.4414 28.9805 26.1328 29.6719 26.8242C29.7373 26.962 29.7959 27.1026 29.8477 27.2461C29.7959 27.3896 29.7373 27.5302 29.6719 27.668C29.0039 28.3359 28.3359 29.0039 27.668 29.6719C27.3784 29.8744 27.0971 29.8744 26.8242 29.6719C26.1328 28.9805 25.4414 28.289 24.75 27.5977C24.6094 27.3633 24.6094 27.1289 24.75 26.8945C25.5082 26.1008 26.2934 25.3508 27.1055 24.6445ZM27.1758 26.0508C26.8023 26.4478 26.4273 26.8462 26.0508 27.2461C26.4258 27.668 26.8242 28.0664 27.2461 28.4414C27.668 28.0664 28.0664 27.668 28.4414 27.2461C28.061 26.7951 27.6391 26.3966 27.1758 26.0508Z" fill="#C7844F"/>
</g>
<defs>
<clipPath id="clip0_31_49">
<rect width="36" height="36" fill="white"/>
</clipPath>
</defs>
</svg>
