<svg width="23" height="40" viewBox="0 0 23 40" fill="none" xmlns="http://www.w3.org/2000/svg">
<g clip-path="url(#clip0_401_327)">
<path opacity="0.91" fill-rule="evenodd" clip-rule="evenodd" d="M11.3584 0.836335C11.5823 0.819515 11.7814 0.880793 11.9558 1.02016C13.0316 3.18723 14.1193 5.34715 15.2187 7.49994C17.6084 7.89819 19.9981 8.29654 22.3878 8.69479C22.7821 8.92742 22.8586 9.24911 22.6176 9.65986C21.0551 11.4675 19.4926 13.275 17.9301 15.0827C18.2653 17.6586 18.6483 20.2321 19.079 22.8032C19.0543 23.119 18.8858 23.3028 18.5734 23.3547C17.9155 23.1101 17.2874 22.8036 16.6892 22.4356C16.5973 25.7132 16.5667 28.9914 16.5973 32.2702C17.6088 32.2548 18.6199 32.2702 19.6304 32.3161C19.707 32.3927 19.7836 32.4693 19.8602 32.5459C20.5161 34.4218 21.1902 36.2907 21.8823 38.1525C21.9745 38.4736 21.9286 38.7646 21.7444 39.0257C14.9429 39.087 8.14145 39.087 1.33998 39.0257C1.15579 38.7646 1.10983 38.4736 1.20211 38.1525C1.89421 36.2907 2.56829 34.4218 3.22417 32.5459C3.30073 32.4693 3.37739 32.3927 3.45395 32.3161C4.46452 32.2702 5.47555 32.2548 6.48704 32.2702C6.51764 28.9914 6.48704 25.7132 6.39513 22.4356C5.79696 22.8036 5.16884 23.1101 4.51093 23.3547C4.19853 23.3028 4.03005 23.119 4.00542 22.8032C4.43612 20.2321 4.81912 17.6586 5.15432 15.0827C3.59182 13.275 2.02932 11.4675 0.466817 9.65986C0.225732 9.24911 0.302295 8.92742 0.696596 8.69479C3.0863 8.29654 5.47601 7.89819 7.86571 7.49994C8.96507 5.34715 10.0528 3.18723 11.1286 1.02016C11.22 0.968146 11.2966 0.906868 11.3584 0.836335ZM11.4503 2.58266C11.5308 2.57063 11.5921 2.60127 11.6341 2.67457C12.5793 4.61096 13.5596 6.52576 14.5753 8.41906C16.8199 8.78799 19.0565 9.18634 21.2848 9.61391C19.8296 11.3143 18.3743 13.0146 16.919 14.715C16.8577 15.0214 16.8577 15.3278 16.919 15.6341C17.2661 17.7162 17.5725 19.7996 17.8381 21.8841C15.7774 20.7237 13.6788 19.6513 11.5422 18.6672C9.4056 19.6513 7.30698 20.7237 5.24623 21.8841C5.51185 19.7996 5.81829 17.7162 6.16535 15.6341C6.22665 15.3278 6.22665 15.0214 6.16535 14.715C4.71011 13.0146 3.25478 11.3143 1.79954 9.61391C4.02803 9.18634 6.26452 8.78799 8.5091 8.41906C9.55064 6.50444 10.5311 4.55895 11.4503 2.58266ZM10.9907 19.954C11.0825 24.0438 11.1131 28.1492 11.0826 32.2702C9.88777 32.2702 8.69292 32.2702 7.49807 32.2702C7.46746 28.777 7.49807 25.2843 7.58998 21.7922C8.74393 21.2002 9.87748 20.5874 10.9907 19.954ZM12.0017 19.954C13.1635 20.5656 14.3277 21.1783 15.4944 21.7922C15.5863 25.2843 15.6169 28.777 15.5863 32.2702C14.3914 32.2702 13.1966 32.2702 12.0017 32.2702C12.0017 28.1647 12.0017 24.0594 12.0017 19.954ZM4.00542 33.2812C9.02996 33.2812 14.0544 33.2812 19.079 33.2812C19.5932 34.8544 20.1447 36.4169 20.7334 37.9687C19.4788 38.0605 18.2226 38.0912 16.965 38.0606C17.2319 36.3707 16.5579 35.2831 14.9429 34.7977C12.6757 34.7364 10.4086 34.7364 8.14145 34.7977C6.52647 35.2831 5.85248 36.3707 6.11939 38.0606C4.86176 38.0912 3.6056 38.0605 2.35101 37.9687C2.9397 36.4169 3.49117 34.8544 4.00542 33.2812ZM8.32527 35.7628C10.4701 35.7475 12.6147 35.7628 14.7591 35.8088C15.2381 35.9022 15.5904 36.1627 15.8161 36.59C15.9818 37.0663 16.0584 37.5566 16.0459 38.0606C13.0434 38.0606 10.041 38.0606 7.03851 38.0606C6.88722 36.9397 7.31617 36.1738 8.32527 35.7628Z" fill="white"/>
</g>
<defs>
<clipPath id="clip0_401_327">
<rect width="23" height="40" fill="white"/>
</clipPath>
</defs>
</svg>
