<svg width="50" height="50" viewBox="0 0 50 50" fill="none" xmlns="http://www.w3.org/2000/svg">
<g clip-path="url(#clip0_402_18)">
<path opacity="0.949" fill-rule="evenodd" clip-rule="evenodd" d="M22.8027 -0.0488281C24.4304 -0.0488281 26.0579 -0.0488281 27.6856 -0.0488281C29.8027 0.114528 31.8861 0.52143 33.9356 1.17188C37.1641 2.25179 39.2637 4.4165 40.2344 7.66602C40.7561 10.2363 39.926 12.2383 37.7441 13.6719C37.0235 14.1298 36.2749 14.5367 35.4981 14.8926C37.5645 15.0979 39.6152 15.4072 41.6504 15.8203C43.2729 16.1545 44.7702 16.7729 46.1426 17.6758C47.1188 18.4874 47.5419 19.5291 47.4121 20.8008C47.4525 22.1445 47.0456 23.3327 46.1914 24.3652C45.0126 25.5657 43.6291 26.4609 42.041 27.0508C40.2572 27.6758 38.4343 28.1478 36.5723 28.4668C37.9316 28.9589 39.0547 29.7727 39.9414 30.9082C40.927 32.837 40.6177 34.5134 39.0137 35.9375C38.4111 36.3202 37.7927 36.6783 37.1582 37.0117C39.8877 37.4404 42.2151 38.6286 44.1406 40.5762C45.8541 43.2068 45.4147 45.4041 42.8223 47.168C41.5861 47.8296 40.2841 48.3179 38.916 48.6328C37.4024 48.9882 35.8724 49.2486 34.3262 49.4141C31.9392 49.6546 29.5629 49.8337 27.1973 49.9512C24.1048 49.9512 21.0124 49.9512 17.9199 49.9512C17.144 49.3161 17.144 48.6813 17.9199 48.0469C22.3151 47.9598 26.7097 47.8296 31.1035 47.6562C34.3034 47.5107 37.4284 46.9574 40.4785 45.9961C41.3657 45.6747 42.1308 45.1701 42.7734 44.4824C43.2903 43.5357 43.1927 42.6568 42.4805 41.8457C41.3374 40.712 39.9865 39.9146 38.4277 39.4531C35.9041 38.7353 33.3325 38.4748 30.7129 38.6719C26.9199 39.1591 23.1113 39.4194 19.2871 39.4531C16.3866 39.5878 13.5221 39.9784 10.6934 40.625C9.32662 40.9419 8.13846 41.5767 7.12891 42.5293C6.22161 44.1244 6.4983 45.4754 7.95899 46.582C8.67595 46.9568 9.42466 47.2498 10.2051 47.4609C10.8725 48.1594 10.8074 48.7778 10.0098 49.3164C7.66379 49.2152 5.9548 48.1248 4.88282 46.0449C4.02462 42.7647 5.18021 40.5023 8.34962 39.2578C9.84288 38.6974 11.3729 38.2742 12.9395 37.9883C9.8545 36.6291 7.85251 34.3342 6.9336 31.1035C6.63201 29.5095 7.20167 28.3539 8.64259 27.6367C6.99491 27.2186 5.49751 26.5024 4.1504 25.4883C2.39133 23.7464 1.98442 21.7119 2.9297 19.3848C3.63465 18.1265 4.62749 17.1661 5.90821 16.5039C7.93865 15.6484 10.0545 15.1276 12.2559 14.9414C9.67026 13.8229 8.67743 11.8861 9.27735 9.13086C9.85704 7.40158 10.8173 5.92047 12.1582 4.6875C15.2196 2.02282 18.7678 0.444051 22.8027 -0.0488281ZM24.5606 1.9043C26.791 1.92508 29.0046 2.13667 31.2012 2.53906C32.9982 2.88452 34.6259 3.60066 36.084 4.6875C37.7587 6.1303 38.4586 7.93694 38.1836 10.1074C37.849 10.7345 37.4096 11.2716 36.8652 11.7188C35.2542 12.7771 33.4964 13.4932 31.5918 13.8672C27.5447 14.5863 23.4757 14.7491 19.3848 14.3555C17.3409 14.2481 15.3553 13.8575 13.4277 13.1836C12.3802 12.8518 11.6478 12.1845 11.2305 11.1816C11.1366 10.5141 11.2017 9.86299 11.4258 9.22852C12.5389 7.13879 14.1177 5.49491 16.1621 4.29688C18.7725 2.79826 21.572 2.00073 24.5606 1.9043ZM24.1699 16.5527C28.8063 16.54 33.4287 16.7842 38.0371 17.2852C39.7299 17.4935 41.39 17.8516 43.0176 18.3594C43.6793 18.6088 44.2978 18.9343 44.8731 19.3359C45.0798 19.505 45.2263 19.7166 45.3125 19.9707C45.5848 21.3947 45.1779 22.5829 44.0918 23.5352C42.5081 24.6846 40.7503 25.4658 38.8184 25.8789C37.0783 26.2774 35.3205 26.5704 33.5449 26.7578C26.9658 27.3111 20.3902 27.246 13.8184 26.5625C11.3395 26.3253 8.96318 25.7068 6.68946 24.707C5.68814 24.2592 4.98827 23.5268 4.58985 22.5098C4.37445 20.3868 5.26963 18.9382 7.2754 18.1641C8.69627 17.6324 10.1611 17.2743 11.6699 17.0898C13.3241 16.885 14.9843 16.7548 16.6504 16.6992C19.1735 16.6828 21.68 16.634 24.1699 16.5527ZM14.5996 28.8574C19.2816 29.0713 23.9691 29.2178 28.6621 29.2969C30.9478 29.3591 33.1939 29.6846 35.4004 30.2734C36.3931 30.5659 37.2558 31.0705 37.9883 31.7871C38.6503 32.7031 38.5689 33.5332 37.7441 34.2773C36.6022 35.0107 35.3651 35.5316 34.0332 35.8398C32.202 36.3037 30.3465 36.6293 28.4668 36.8164C25.2547 37.0283 22.0482 37.2398 18.8477 37.4512C16.1081 37.2544 13.6504 36.3267 11.4746 34.668C10.2637 33.63 9.43361 32.3441 8.98438 30.8105C8.76246 30.1517 8.97404 29.7122 9.61915 29.4922C10.1247 29.3007 10.6455 29.1705 11.1816 29.1016C12.335 29.0069 13.4743 28.9255 14.5996 28.8574Z" fill="#C7844F"/>
<path opacity="0.882" fill-rule="evenodd" clip-rule="evenodd" d="M14.3067 49.9512C14.1113 49.9512 13.916 49.9512 13.7207 49.9512C12.8218 49.4438 12.7241 48.809 13.4277 48.0469C14.5939 47.7153 15.0985 48.1547 14.9414 49.3653C14.7955 49.6401 14.584 49.8354 14.3067 49.9512Z" fill="#C7844F"/>
</g>
<defs>
<clipPath id="clip0_402_18">
<rect width="50" height="50" fill="white"/>
</clipPath>
</defs>
</svg>
