<svg width="50" height="50" viewBox="0 0 50 50" fill="none" xmlns="http://www.w3.org/2000/svg">
<g clip-path="url(#clip0_402_23)">
<path opacity="0.941" fill-rule="evenodd" clip-rule="evenodd" d="M1.70898 -0.0488281C5.19206 -0.0488281 8.67513 -0.0488281 12.1582 -0.0488281C12.9187 0.223368 13.7 0.467509 14.502 0.683594C17.3015 0.748698 20.1009 0.748698 22.9004 0.683594C23.2513 0.362405 23.6419 0.118265 24.0723 -0.0488281C27.1973 -0.0488281 30.3223 -0.0488281 33.4473 -0.0488281C33.8776 0.118265 34.2683 0.362405 34.6191 0.683594C35.7585 0.748698 36.8978 0.748698 38.0371 0.683594C38.388 0.362405 38.7786 0.118265 39.209 -0.0488281C42.2038 -0.0488281 45.1985 -0.0488281 48.1934 -0.0488281C49.0723 0.244141 49.6582 0.830078 49.9512 1.70898C49.9512 3.56445 49.9512 5.41992 49.9512 7.27539C49.7841 7.70576 49.5399 8.09639 49.2188 8.44727C49.1536 10.2376 49.1536 12.028 49.2188 13.8184C49.5288 14.1424 49.7729 14.5005 49.9512 14.8926C49.9512 16.9759 49.9512 19.0593 49.9512 21.1426C49.7841 21.5729 49.5399 21.9636 49.2188 22.3145C49.1536 23.9746 49.1536 25.6348 49.2188 27.2949C49.5399 27.6458 49.7841 28.0364 49.9512 28.4668C49.9512 29.3457 49.9512 30.2246 49.9512 31.1035C49.7729 31.4956 49.5288 31.8537 49.2188 32.1777C49.1536 33.1868 49.1536 34.196 49.2188 35.2051C49.5288 35.5291 49.7729 35.8872 49.9512 36.2793C49.9512 40.2507 49.9512 44.222 49.9512 48.1934C49.6582 49.0723 49.0723 49.6582 48.1934 49.9512C43.6035 49.9512 39.0137 49.9512 34.4238 49.9512C33.9935 49.7841 33.6028 49.5399 33.252 49.2188C32.1126 49.1536 30.9733 49.1536 29.834 49.2188C29.51 49.5288 29.1519 49.7729 28.7598 49.9512C24.9187 49.9512 21.0774 49.9512 17.2363 49.9512C16.8204 49.807 16.4623 49.5629 16.1621 49.2188C14.209 49.1536 12.2559 49.1536 10.3027 49.2188C9.95186 49.5399 9.56123 49.7841 9.13086 49.9512C6.6569 49.9512 4.18294 49.9512 1.70898 49.9512C0.830078 49.6582 0.244141 49.0723 -0.0488281 48.1934C-0.0488281 45.3938 -0.0488281 42.5944 -0.0488281 39.7949C0.0952668 39.379 0.339407 39.0209 0.683594 38.7207C0.748698 37.679 0.748698 36.6374 0.683594 35.5957C0.339407 35.2955 0.0952668 34.9374 -0.0488281 34.5215C-0.0488281 31.5267 -0.0488281 28.5319 -0.0488281 25.5371C0.118265 25.1067 0.362405 24.7161 0.683594 24.3652C0.748698 23.3562 0.748698 22.347 0.683594 21.3379C0.37351 21.0139 0.129369 20.6558 -0.0488281 20.2637C-0.0488281 18.7337 -0.0488281 17.2038 -0.0488281 15.6738C0.118265 15.2435 0.362405 14.8528 0.683594 14.502C0.748698 13.2324 0.748698 11.9629 0.683594 10.6934C0.37351 10.3693 0.129369 10.0112 -0.0488281 9.61914C-0.0488281 6.98242 -0.0488281 4.3457 -0.0488281 1.70898C0.244141 0.830078 0.830078 0.244141 1.70898 -0.0488281ZM2.09961 1.70898C5.32243 1.69271 8.54509 1.70898 11.7676 1.75781C13.5407 2.21886 15.2823 2.75597 16.9922 3.36914C17.8479 4.65791 18.6779 5.96 19.4824 7.27539C19.4011 7.43815 19.3196 7.60091 19.2383 7.76367C18.4668 8.60054 17.6367 9.36551 16.748 10.0586C14.2202 10.8165 11.6975 11.5815 9.17969 12.3535C6.85386 11.4263 4.52639 10.4985 2.19727 9.57031C2.02285 9.4937 1.87637 9.37977 1.75781 9.22852C1.69271 6.85222 1.69271 4.47591 1.75781 2.09961C1.82517 1.91893 1.9391 1.78871 2.09961 1.70898ZM24.4629 1.70898C27.4012 1.6617 30.3309 1.71053 33.252 1.85547C33.3851 2.0454 33.4665 2.25699 33.4961 2.49023C33.6437 3.47401 33.8228 4.45058 34.0332 5.41992C33.5144 6.45757 32.9447 7.46669 32.3242 8.44727C32.0979 8.70083 31.8213 8.78222 31.4941 8.69141C29.5663 8.05965 27.6457 7.40861 25.7324 6.73828C25.0029 5.52376 24.3356 4.27051 23.7305 2.97852C23.6653 2.81575 23.6653 2.653 23.7305 2.49023C23.9285 2.1785 24.1727 1.91808 24.4629 1.70898ZM39.5996 1.70898C42.4077 1.66177 45.2072 1.7106 47.998 1.85547C48.0592 1.92875 48.108 2.01014 48.1445 2.09961C48.2097 3.72722 48.2097 5.35481 48.1445 6.98242C46.7046 8.0523 45.2561 9.11024 43.7988 10.1562C43.4895 10.4134 43.1639 10.446 42.8223 10.2539C41.6071 9.46186 40.4189 8.63178 39.2578 7.76367C39.1927 5.87565 39.1927 3.98763 39.2578 2.09961C39.3252 1.91893 39.4391 1.78871 39.5996 1.70898ZM18.6035 2.58789C19.6928 2.49074 20.7996 2.45819 21.9238 2.49023C21.9086 2.88884 21.9574 3.27946 22.0703 3.66211C22.7214 4.96419 23.3724 6.26628 24.0234 7.56836C24.2351 7.77995 24.4466 7.99153 24.6582 8.20312C26.6869 8.97705 28.7377 9.6932 30.8105 10.3516C31.9265 10.6951 32.8868 10.451 33.6914 9.61914C34.3099 8.57747 34.9284 7.53581 35.5469 6.49414C35.6667 6.16141 35.748 5.81961 35.791 5.46875C35.6333 4.47379 35.4706 3.48096 35.3027 2.49023C36.0188 2.49023 36.7351 2.49023 37.4512 2.49023C37.4349 4.37854 37.4512 6.26655 37.5 8.1543C37.676 8.68448 37.9853 9.12394 38.4277 9.47266C39.5996 10.2539 40.7715 11.0352 41.9434 11.8164C42.7425 12.2235 43.5563 12.2561 44.3848 11.9141C45.3861 11.2262 46.379 10.5264 47.3633 9.81445C47.4121 10.9533 47.4284 12.0927 47.4121 13.2324C46.2213 13.2992 45.3912 13.8852 44.9219 14.9902C44.6414 16.6281 44.3973 18.2721 44.1895 19.9219C44.2003 20.7044 44.4933 21.3555 45.0684 21.875C45.5404 22.1926 46.0287 22.4855 46.5332 22.7539C46.8157 22.8661 47.1087 22.9149 47.4121 22.9004C47.4284 23.9426 47.4121 24.9843 47.3633 26.0254C45.7845 24.9675 44.2058 23.9095 42.627 22.8516C42.3455 22.6945 42.0525 22.5644 41.748 22.4609C38.5104 22.1693 35.2716 21.8927 32.0312 21.6309C31.0309 21.6908 30.2822 22.1466 29.7852 22.998C29.2519 24.8708 28.7799 26.7588 28.3691 28.6621C28.4349 29.3791 28.7115 29.9976 29.1992 30.5176C30.6804 31.9987 32.1614 33.4798 33.6426 34.9609C34.5825 35.7297 35.6241 35.8924 36.7676 35.4492C40.3136 34.6034 43.8618 33.7733 47.4121 32.959C47.4121 33.4798 47.4121 34.0007 47.4121 34.5215C43.6304 35.4181 39.8543 36.3458 36.084 37.3047C35.7795 37.4081 35.4865 37.5383 35.2051 37.6953C33.8489 39.4746 32.5306 41.2812 31.25 43.1152C30.97 43.7866 30.9374 44.4702 31.1523 45.166C31.5143 45.9061 31.8886 46.6385 32.2754 47.3633C31.6903 47.412 31.1044 47.4283 30.5176 47.4121C30.4599 46.9295 30.3134 46.4738 30.0781 46.0449C29.4557 44.9789 28.8209 43.9209 28.1738 42.8711C27.8596 42.5999 27.5015 42.4046 27.0996 42.2852C26.1648 42.0271 25.2208 41.8154 24.2676 41.6504C23.9681 41.6608 23.6751 41.7097 23.3887 41.7969C21.5657 42.5781 19.7429 43.3594 17.9199 44.1406C17.0167 44.8483 16.2517 45.6784 15.625 46.6309C15.5447 46.8864 15.4959 47.1469 15.4785 47.4121C14.3713 47.4284 13.2645 47.4121 12.1582 47.3633C12.5977 46.9238 13.0371 46.4844 13.4766 46.0449C14.2878 44.7387 14.1413 43.5505 13.0371 42.4805C11.5397 41.6341 10.0423 40.7878 8.54492 39.9414C6.54435 39.2365 4.52612 38.6018 2.49023 38.0371C2.45818 37.5122 2.49074 36.9914 2.58789 36.4746C4.17933 37.0214 5.77437 37.5585 7.37305 38.0859C7.85435 38.2244 8.34263 38.2569 8.83789 38.1836C12.5942 36.9232 16.3052 35.5561 19.9707 34.082C20.438 33.6847 20.7147 33.1801 20.8008 32.5684C20.8659 31.2663 20.8659 29.9642 20.8008 28.6621C20.5926 27.8349 20.1206 27.2001 19.3848 26.7578C17.0254 25.1061 14.6491 23.4785 12.2559 21.875C11.7109 21.7269 11.1575 21.6942 10.5957 21.7773C7.90139 22.3899 5.21584 23.0247 2.53906 23.6816C2.45806 23.1578 2.47434 22.6369 2.58789 22.1191C3.28276 22.3817 3.99892 22.4631 4.73633 22.3633C6.22728 21.9825 7.69213 21.5269 9.13086 20.9961C10.0619 20.1883 10.3386 19.1955 9.96094 18.0176C9.70052 17.4968 9.44011 16.9759 9.17969 16.4551C8.93197 16.1746 8.65528 15.9305 8.34961 15.7227C6.43181 14.991 4.47868 14.3889 2.49023 13.916C2.47398 13.1341 2.49026 12.3528 2.53906 11.5723C4.70962 12.5345 6.92316 13.3808 9.17969 14.1113C12.1629 13.3339 15.1089 12.4387 18.0176 11.4258C18.9099 10.6313 19.7725 9.80117 20.6055 8.93555C21.3576 7.9378 21.4228 6.89613 20.8008 5.81055C20.0661 4.72989 19.3337 3.65567 18.6035 2.58789ZM24.2676 11.9629C26.6462 12.7506 28.9899 13.6458 31.2988 14.6484C31.4349 14.7628 31.5163 14.9093 31.543 15.0879C31.6342 15.8794 31.6017 16.6606 31.4453 17.4316C31.2987 17.6352 31.1034 17.7653 30.8594 17.8223C29.334 17.4531 27.8203 17.0463 26.3184 16.6016C25.4499 15.3748 24.6198 14.1216 23.8281 12.8418C23.7673 12.4426 23.9138 12.1496 24.2676 11.9629ZM37.3535 13.2324C38.2534 13.6173 39.1323 14.0567 39.9902 14.5508C40.4838 14.7841 40.9232 15.0933 41.3086 15.4785C41.3007 16.2029 41.203 16.919 41.0156 17.627C40.9466 17.7813 40.8652 17.9278 40.7715 18.0664C39.5438 18.2253 38.3068 18.2578 37.0605 18.1641C36.9792 18.0827 36.8978 18.0013 36.8164 17.9199C36.6574 16.6597 36.6249 15.3901 36.7188 14.1113C36.804 13.7183 37.0155 13.4253 37.3535 13.2324ZM47.4121 14.8926C47.7108 14.9216 47.955 15.0518 48.1445 15.2832C48.2097 17.1062 48.2097 18.929 48.1445 20.752C48.0216 21.0173 47.81 21.1475 47.5098 21.1426C47.1125 20.993 46.7219 20.814 46.3379 20.6055C46.1063 20.4353 45.9761 20.2073 45.9473 19.9219C46.1589 18.506 46.3704 17.0899 46.582 15.6738C46.7846 15.3245 47.0612 15.0641 47.4121 14.8926ZM18.4082 15.2832C18.8999 15.1857 19.3068 15.3159 19.6289 15.6738C19.9005 16.3146 20.1446 16.9657 20.3613 17.627C20.3273 17.8415 20.2297 18.0205 20.0684 18.1641C19.2707 18.677 18.4569 19.1652 17.627 19.6289C17.4642 19.694 17.3015 19.694 17.1387 19.6289C16.3574 19.2383 15.5762 18.8477 14.7949 18.457C14.4158 18.0455 14.074 17.6061 13.7695 17.1387C13.6433 16.74 13.7572 16.4308 14.1113 16.2109C15.5603 15.9181 16.9926 15.6089 18.4082 15.2832ZM2.29492 15.5762C4.02149 16.1354 5.74676 16.7051 7.4707 17.2852C8.09708 17.8669 8.34122 18.5668 8.20312 19.3848C8.11499 19.5021 8.00105 19.5835 7.86133 19.6289C6.61267 19.9909 5.35941 20.3327 4.10156 20.6543C3.38705 20.5286 2.68718 20.3495 2.00195 20.1172C1.92058 20.0358 1.83919 19.9544 1.75781 19.873C1.69271 18.571 1.69271 17.2688 1.75781 15.9668C1.90428 15.7745 2.08331 15.6443 2.29492 15.5762ZM23.291 21.8262C23.9897 22.0211 24.6733 22.2652 25.3418 22.5586C25.8415 22.7277 26.0205 23.0695 25.8789 23.584C25.5534 24.2351 25.2278 24.886 24.9023 25.5371C24.5724 25.7737 24.2306 25.79 23.877 25.5859C22.9866 25.0199 22.1565 24.3852 21.3867 23.6816C21.2604 23.283 21.3744 22.9737 21.7285 22.7539C22.2426 22.4162 22.7634 22.1069 23.291 21.8262ZM31.8848 23.3887C35.0464 23.6331 38.2039 23.9098 41.3574 24.2188C43.6863 25.683 45.9487 27.2292 48.1445 28.8574C48.2097 29.4759 48.2097 30.0944 48.1445 30.7129C48.0632 30.7942 47.9817 30.8757 47.9004 30.957C43.7119 32.0124 39.5127 32.989 35.3027 33.8867C33.5668 32.3136 31.8903 30.6697 30.2734 28.9551C30.2083 28.6946 30.2083 28.4343 30.2734 28.1738C30.6315 26.7415 30.9896 25.3093 31.3477 23.877C31.4797 23.6573 31.6587 23.4945 31.8848 23.3887ZM10.8887 23.4863C11.1962 23.4581 11.4892 23.5069 11.7676 23.6328C14.1859 25.3059 16.5785 27.0148 18.9453 28.7598C19.0555 29.3845 19.1043 30.0192 19.0918 30.6641C19.1043 31.3089 19.0555 31.9437 18.9453 32.5684C15.4382 33.9654 11.89 35.2675 8.30078 36.4746C6.18807 35.8138 4.08846 35.1139 2.00195 34.375C1.92058 34.2937 1.83919 34.2122 1.75781 34.1309C1.66181 31.3229 1.69437 28.5234 1.85547 25.7324C2.01638 25.6136 2.19541 25.5322 2.39258 25.4883C5.2472 24.8625 8.07923 24.1951 10.8887 23.4863ZM23.877 32.4707C24.8541 32.4545 25.8307 32.4707 26.8066 32.5195C27.0359 32.5533 27.2149 32.6673 27.3438 32.8613C28.2878 34.0007 29.2317 35.1399 30.1758 36.2793C30.215 36.4133 30.2639 36.5435 30.3223 36.6699C29.9608 37.3435 29.5377 37.9782 29.0527 38.5742C28.8795 38.6689 28.7005 38.7504 28.5156 38.8184C27.2949 38.4114 26.0742 38.0046 24.8535 37.5977C24.2405 36.9417 23.7359 36.2093 23.3398 35.4004C23.251 34.5465 23.2836 33.7001 23.4375 32.8613C23.5739 32.708 23.7204 32.5777 23.877 32.4707ZM47.3145 36.2793C47.6587 36.2643 47.9354 36.3944 48.1445 36.6699C48.2097 40.3809 48.2097 44.0918 48.1445 47.8027C48.108 47.8922 48.0592 47.9736 47.998 48.0469C45.7767 48.1599 43.5468 48.2087 41.3086 48.1934C39.1438 48.1771 36.9792 48.1608 34.8145 48.1445C34.725 48.108 34.6436 48.0592 34.5703 47.998C33.9275 46.7614 33.3253 45.5082 32.7637 44.2383C33.8611 42.5009 35.033 40.8081 36.2793 39.1602C39.9638 38.1822 43.6422 37.2219 47.3145 36.2793ZM18.2129 37.8418C18.4431 37.8259 18.6709 37.8421 18.8965 37.8906C19.1849 38.2234 19.4616 38.5652 19.7266 38.916C19.8269 39.2754 19.7455 39.5847 19.4824 39.8438C18.8405 40.1173 18.1895 40.3614 17.5293 40.5762C16.899 40.3994 16.3293 40.1064 15.8203 39.6973C15.675 39.376 15.7238 39.0667 15.9668 38.7695C16.7371 38.4863 17.4858 38.1771 18.2129 37.8418ZM2.09961 39.7949C3.97745 40.2742 5.83292 40.8439 7.66602 41.5039C9.08152 42.2604 10.4812 43.0416 11.8652 43.8477C12.2113 44.1353 12.2927 44.4771 12.1094 44.873C11.016 45.999 9.89297 47.0896 8.74023 48.1445C6.45299 48.2401 4.17435 48.2076 1.9043 48.0469C1.84318 47.9736 1.79436 47.8922 1.75781 47.8027C1.69271 45.2637 1.69271 42.7246 1.75781 40.1855C1.86545 40.044 1.97938 39.9139 2.09961 39.7949ZM24.0723 43.4082C25.05 43.563 25.994 43.8234 26.9043 44.1895C27.5312 45.2151 28.1334 46.2568 28.7109 47.3145C28.7752 47.6587 28.6612 47.9354 28.3691 48.1445C24.7884 48.2097 21.2077 48.2097 17.627 48.1445C17.2444 47.8678 17.163 47.526 17.3828 47.1191C17.8548 46.6472 18.3269 46.1751 18.7988 45.7031C20.5769 44.9601 22.3347 44.195 24.0723 43.4082Z" fill="#C7844F"/>
<path opacity="0.934" fill-rule="evenodd" clip-rule="evenodd" d="M23.877 10.2051C24.4073 10.172 24.9282 10.2208 25.4395 10.3516C27.8086 11.276 30.1524 12.2526 32.4707 13.2813C32.938 13.6786 33.2148 14.1832 33.3008 14.7949C33.366 15.7064 33.366 16.6179 33.3008 17.5293C32.9639 18.7775 32.1501 19.4611 30.8594 19.5801C29.2721 19.2443 27.6933 18.8699 26.1231 18.4571C25.7704 18.3458 25.4448 18.183 25.1465 17.9688C24.2153 16.7085 23.3201 15.4228 22.461 14.1114C21.6307 12.3208 22.1027 11.0188 23.877 10.2051ZM24.2676 11.9629C23.9138 12.1496 23.7673 12.4426 23.8282 12.8418C24.6199 14.1216 25.4499 15.3748 26.3184 16.6016C27.8204 17.0463 29.334 17.4531 30.8594 17.8223C31.1035 17.7654 31.2988 17.6352 31.4454 17.4317C31.6017 16.6607 31.6342 15.8794 31.543 15.0879C31.5164 14.9093 31.4349 14.7628 31.2989 14.6485C28.99 13.6458 26.6462 12.7506 24.2676 11.9629Z" fill="#C7844F"/>
<path opacity="0.938" fill-rule="evenodd" clip-rule="evenodd" d="M37.0606 11.4746C37.6772 11.4335 38.2631 11.5475 38.8184 11.8164C39.8767 12.4596 40.9509 13.078 42.041 13.6719C42.7716 14.1726 43.1297 14.8725 43.1153 15.7715C43.013 16.6248 42.8665 17.4711 42.6758 18.3105C42.3898 19.15 41.82 19.6871 40.9668 19.9219C39.5671 19.987 38.1673 19.987 36.7676 19.9219C35.8424 19.6478 35.2403 19.0455 34.961 18.1152C34.8958 16.6829 34.8958 15.2507 34.961 13.8184C35.207 12.613 35.9068 11.8317 37.0606 11.4746ZM37.3535 13.2324C37.0156 13.4253 36.804 13.7183 36.7188 14.1113C36.6249 15.3901 36.6574 16.6597 36.8164 17.9199C36.8978 18.0013 36.9792 18.0827 37.0606 18.1641C38.3069 18.2578 39.5439 18.2253 40.7715 18.0664C40.8653 17.9278 40.9466 17.7813 41.0156 17.627C41.2031 16.919 41.3007 16.2029 41.3086 15.4785C40.9233 15.0933 40.4838 14.7841 39.9903 14.5508C39.1323 14.0567 38.2534 13.6173 37.3535 13.2324Z" fill="#C7844F"/>
<path opacity="0.936" fill-rule="evenodd" clip-rule="evenodd" d="M18.7986 13.4277C19.852 13.4416 20.6496 13.8974 21.1912 14.7949C21.5037 15.5697 21.7967 16.351 22.0701 17.1387C22.2404 18.1487 21.9311 18.9788 21.1424 19.6289C20.3124 20.0926 19.4986 20.5809 18.701 21.0938C17.9802 21.4582 17.2314 21.5232 16.4549 21.2891C15.5434 20.8333 14.6319 20.3776 13.7205 19.9219C12.9939 19.2327 12.4243 18.4353 12.0115 17.5293C11.7603 15.9925 12.3625 14.9671 13.8181 14.4531C15.4951 14.1275 17.1553 13.7857 18.7986 13.4277ZM18.408 15.2832C16.9924 15.6089 15.56 15.9181 14.1111 16.2109C13.757 16.4308 13.643 16.74 13.7693 17.1387C14.0738 17.6061 14.4156 18.0455 14.7947 18.457C15.576 18.8477 16.3572 19.2383 17.1385 19.6289C17.3012 19.694 17.4639 19.694 17.6267 19.6289C18.4567 19.1652 19.2705 18.677 20.0681 18.1641C20.2295 18.0205 20.3271 17.8415 20.3611 17.627C20.1444 16.9657 19.9003 16.3146 19.6287 15.6738C19.3066 15.3159 18.8997 15.1857 18.408 15.2832Z" fill="#C7844F"/>
<path opacity="0.933" fill-rule="evenodd" clip-rule="evenodd" d="M22.998 20.0684C24.2669 20.2133 25.4713 20.5877 26.6113 21.1914C27.5488 21.887 27.8906 22.8147 27.6367 23.9746C27.2128 25.0345 26.6757 26.0273 26.0254 26.9531C25.0489 27.6537 24.0398 27.7188 22.998 27.1484C22.1191 26.53 21.2402 25.9114 20.3613 25.293C19.4987 24.3055 19.3522 23.215 19.9219 22.0215C20.824 21.1565 21.8494 20.5055 22.998 20.0684ZM23.291 21.8262C22.7634 22.1069 22.2426 22.4162 21.7285 22.7539C21.3744 22.9737 21.2604 23.283 21.3867 23.6816C22.1565 24.3852 22.9866 25.0199 23.8769 25.5859C24.2306 25.79 24.5724 25.7737 24.9023 25.5371C25.2278 24.886 25.5534 24.2351 25.8789 23.584C26.0205 23.0695 25.8415 22.7277 25.3418 22.5586C24.6733 22.2652 23.9897 22.0211 23.291 21.8262Z" fill="#C7844F"/>
<path opacity="0.935" fill-rule="evenodd" clip-rule="evenodd" d="M23.6815 30.7129C24.8213 30.6966 25.9606 30.7129 27.0995 30.7617C27.7561 30.8653 28.2932 31.1746 28.7108 31.6895C29.6549 32.8288 30.5988 33.9681 31.5429 35.1074C32.259 36.1491 32.259 37.1907 31.5429 38.2324C31.1034 38.8021 30.664 39.3718 30.2245 39.9414C29.4578 40.518 28.6114 40.6807 27.6854 40.4297C26.4484 40.0066 25.2115 39.5833 23.9745 39.1602C22.99 38.3049 22.2251 37.2795 21.6796 36.084C21.532 35.0467 21.4995 34.005 21.5819 32.959C21.7997 31.7487 22.4995 31 23.6815 30.7129ZM23.8768 32.4707C23.7203 32.5777 23.5738 32.708 23.4374 32.8613C23.2835 33.7001 23.2509 34.5465 23.3397 35.4004C23.7358 36.2093 24.2404 36.9417 24.8534 37.5977C26.0741 38.0046 27.2948 38.4114 28.5155 38.8184C28.7004 38.7504 28.8794 38.669 29.0526 38.5742C29.5376 37.9782 29.9607 37.3435 30.3222 36.6699C30.2638 36.5435 30.2149 36.4133 30.1757 36.2793C29.2316 35.14 28.2877 34.0007 27.3436 32.8613C27.2148 32.6673 27.0358 32.5533 26.8065 32.5195C25.8306 32.4707 24.854 32.4545 23.8768 32.4707Z" fill="#C7844F"/>
<path opacity="0.935" fill-rule="evenodd" clip-rule="evenodd" d="M17.9198 36.084C18.9992 35.9174 19.8944 36.243 20.6054 37.0606C21.6357 38.182 21.7984 39.419 21.0936 40.7715C20.8783 41.0196 20.6342 41.2312 20.3612 41.4063C19.6234 41.7263 18.8747 42.0193 18.1151 42.2852C17.7245 42.3504 17.3339 42.3504 16.9433 42.2852C15.8571 41.9957 14.9619 41.4259 14.2577 40.5762C13.6348 39.0269 14.0417 37.8387 15.4784 37.0118C16.3133 36.7285 17.1271 36.4193 17.9198 36.084ZM18.2128 37.8419C17.4857 38.1772 16.737 38.4864 15.9667 38.7696C15.7237 39.0668 15.6749 39.376 15.8202 39.6973C16.3292 40.1065 16.8989 40.3995 17.5292 40.5762C18.1893 40.3615 18.8404 40.1173 19.4823 39.8438C19.7454 39.5847 19.8267 39.2755 19.7265 38.9161C19.4615 38.5653 19.1848 38.2235 18.8964 37.8907C18.6708 37.8421 18.443 37.8259 18.2128 37.8419Z" fill="#C7844F"/>
</g>
<defs>
<clipPath id="clip0_402_23">
<rect width="50" height="50" fill="white"/>
</clipPath>
</defs>
</svg>
