<svg width="22" height="22" viewBox="0 0 22 22" fill="none" xmlns="http://www.w3.org/2000/svg">
<g clip-path="url(#clip0_292_1590)">
<path opacity="0.964" fill-rule="evenodd" clip-rule="evenodd" d="M10.7429 0.242159C11.2876 0.214254 11.7876 0.347065 12.2429 0.640597C12.8632 1.12005 13.4413 1.6513 13.9772 2.23435C14.2732 2.49163 14.6169 2.64788 15.0085 2.7031C15.7905 2.74525 16.5718 2.79212 17.3522 2.84372C18.2819 3.08591 18.8678 3.67185 19.1101 4.60153C19.1678 5.31844 19.1991 6.03717 19.2038 6.75778C19.1865 7.22025 19.3271 7.62652 19.6257 7.97653C20.2399 8.54367 20.8024 9.15305 21.3132 9.80466C21.8018 10.5826 21.8331 11.3795 21.4069 12.1953C20.8982 12.8919 20.32 13.5325 19.6726 14.1172C19.3318 14.4867 19.1755 14.9242 19.2038 15.4297C19.1882 16.0703 19.1725 16.7109 19.1569 17.3515C18.9791 18.4668 18.3307 19.1153 17.2116 19.2968C16.4178 19.3876 15.6209 19.4345 14.821 19.4375C14.6565 19.4573 14.5002 19.5041 14.3522 19.5781C13.9786 19.9048 13.6193 20.2485 13.2741 20.6093C12.806 21.0619 12.2747 21.4212 11.6804 21.6875C10.9171 21.9067 10.214 21.7817 9.57099 21.3125C8.97722 20.7812 8.41472 20.2187 7.88349 19.625C7.58185 19.3415 7.22251 19.2009 6.80537 19.2031C3.75033 19.6167 2.39876 18.2964 2.75068 15.2422C2.77561 14.7632 2.63499 14.3414 2.3288 13.9765C1.78193 13.4922 1.2663 12.9765 0.781928 12.4297C0.125776 11.5554 0.0789012 10.6492 0.641303 9.71091C1.12075 9.09061 1.65201 8.51246 2.23505 7.97653C2.56396 7.56816 2.73583 7.09941 2.75068 6.57028C2.75472 5.88066 2.78597 5.19314 2.84443 4.50778C3.06582 3.58325 3.63613 2.99732 4.55537 2.74997C5.33344 2.65826 6.11471 2.61139 6.89912 2.60935C7.21988 2.5662 7.51679 2.45682 7.78974 2.28122C8.38524 1.73249 8.99462 1.20124 9.61786 0.687472C9.97079 0.468579 10.3458 0.32014 10.7429 0.242159ZM10.8366 1.69528C11.0482 1.69941 11.2357 1.76972 11.3991 1.90622C11.9616 2.43747 12.5241 2.96872 13.0866 3.49997C13.5678 3.88894 14.1147 4.13897 14.7272 4.24997C15.3825 4.29994 16.0388 4.33121 16.696 4.34372C17.0195 4.36214 17.2773 4.49494 17.4694 4.74216C17.5354 4.90889 17.5823 5.08078 17.6101 5.25778C17.6218 5.94628 17.653 6.6338 17.7038 7.32028C17.7844 7.78121 17.9563 8.20308 18.2194 8.58591C18.7962 9.20953 19.3899 9.81891 20.0007 10.414C20.1245 10.5835 20.2104 10.771 20.2585 10.9765C20.1617 11.2169 20.0289 11.4357 19.8601 11.6328C19.343 12.1342 18.843 12.6498 18.3601 13.1797C18.0061 13.6004 17.7873 14.0848 17.7038 14.6328C17.653 15.3193 17.6218 16.0068 17.6101 16.6953C17.5916 17.0188 17.4588 17.2766 17.2116 17.4687C17.0449 17.5347 16.873 17.5816 16.696 17.6093C16.0396 17.6378 15.3833 17.669 14.7272 17.7031C13.6818 17.8386 12.8771 18.3464 12.3132 19.2265C12.0541 19.4856 11.7963 19.7434 11.5397 20C11.3702 20.1238 11.1827 20.2097 10.9772 20.2578C10.7717 20.2097 10.5842 20.1238 10.4147 20C9.97463 19.6067 9.58402 19.1693 9.24286 18.6875C8.69996 18.1738 8.05937 17.8457 7.32099 17.7031C6.63441 17.6537 5.9469 17.6225 5.25849 17.6093C4.93496 17.5909 4.67715 17.4581 4.48505 17.2109C4.41905 17.0442 4.37218 16.8723 4.34443 16.6953C4.33266 16.0068 4.30144 15.3193 4.25068 14.6328C4.17005 14.1719 3.99821 13.75 3.73505 13.3672C3.15831 12.7435 2.56456 12.1342 1.9538 11.539C1.83636 11.3745 1.75042 11.1948 1.69599 11C1.78621 10.7493 1.91902 10.5228 2.09443 10.3203C2.58022 9.85017 3.04897 9.36577 3.50068 8.86716C3.88965 8.38594 4.13968 7.83905 4.25068 7.22653C4.30205 6.57136 4.33332 5.91511 4.34443 5.25778C4.36787 4.67185 4.67255 4.36716 5.25849 4.34372C5.90021 4.33224 6.54085 4.30097 7.18037 4.24997C7.8008 4.12721 8.3633 3.87722 8.86786 3.49997C9.27296 3.11044 9.66362 2.70418 10.0397 2.28122C10.2752 2.03912 10.5408 1.84381 10.8366 1.69528Z" fill="#C7844F"/>
<path opacity="0.959" fill-rule="evenodd" clip-rule="evenodd" d="M13.696 7.69531C14.5882 7.6573 14.9085 8.06356 14.657 8.91406C13.2361 10.6241 11.8064 12.3272 10.3679 14.0234C10.1647 14.1368 9.95372 14.2306 9.73509 14.3047C9.57647 14.2779 9.42801 14.2232 9.28978 14.1406C8.64136 13.5547 7.99289 12.9687 7.34447 12.3828C7.21017 12.0926 7.19451 11.7957 7.29759 11.4922C7.43634 11.2351 7.65511 11.1101 7.95384 11.1172C8.16276 11.1245 8.35809 11.1792 8.53978 11.2812C8.92261 11.6328 9.30539 11.9844 9.68822 12.3359C10.8601 10.9297 12.032 9.52344 13.2038 8.11719C13.3493 7.94778 13.5134 7.80715 13.696 7.69531Z" fill="#C7844F"/>
</g>
<defs>
<clipPath id="clip0_292_1590">
<rect width="22" height="22" fill="white"/>
</clipPath>
</defs>
</svg>
