<svg width="60" height="60" viewBox="0 0 60 60" fill="none" xmlns="http://www.w3.org/2000/svg">
<g clip-path="url(#clip0_219_17)">
<path opacity="0.928" fill-rule="evenodd" clip-rule="evenodd" d="M21.2695 -0.0585938C22.0898 -0.0585938 22.9102 -0.0585938 23.7305 -0.0585938C25.2968 0.325514 26.6053 1.14583 27.6562 2.40234C28.0036 3.33582 28.6677 3.8827 29.6484 4.04297C31.6354 3.26793 33.6861 2.74058 35.8008 2.46094C37.5234 2.36122 39.2422 2.40028 40.957 2.57812C42.0096 2.63352 42.3806 3.16086 42.0703 4.16016C41.9645 4.30095 41.8279 4.39861 41.6602 4.45312C39.7523 4.2925 37.8382 4.25344 35.918 4.33594C34.9238 4.44305 33.9472 4.63836 32.9883 4.92188C31.9089 5.37288 30.7956 5.70491 29.6484 5.91797C28.0799 5.83266 26.947 5.09047 26.25 3.69141C23.7799 1.09758 21.2798 1.05852 18.75 3.57422C16.9902 6.6505 17.6347 9.0919 20.6836 10.8984C21.6602 11.8931 22.0314 13.0846 21.7969 14.4727C21.3279 15.7037 20.9177 16.9538 20.5664 18.2227C23.5591 18.1745 26.4498 18.6824 29.2383 19.7461C29.3548 19.1653 29.3938 18.5794 29.3555 17.9883C28.2226 17.7149 27.5195 17.0118 27.2461 15.8789C26.3734 15.9292 25.5139 15.8706 24.668 15.7031C24.163 15.068 24.2412 14.5212 24.9023 14.0625C25.6445 14.0235 26.3868 13.9843 27.1289 13.9453C27.5214 12.8688 28.2635 12.1852 29.3555 11.8945C29.336 11.1123 29.3555 10.3311 29.4141 9.55078C29.9948 8.77151 30.5808 8.77151 31.1719 9.55078C31.2305 10.3311 31.2499 11.1123 31.2305 11.8945C32.3633 12.1679 33.0664 12.8711 33.3398 14.0039C34.1221 13.9845 34.9034 14.0039 35.6836 14.0625C36.4634 14.6953 36.4242 15.2812 35.5664 15.8203C34.8252 15.8789 34.083 15.8984 33.3398 15.8789C33.0664 17.0118 32.3633 17.7149 31.2305 17.9883C31.211 18.5366 31.2306 19.0834 31.2891 19.6289C33.4814 16.1637 36.5088 15.1286 40.3711 16.5234C43.6786 18.5541 44.7137 21.4252 43.4766 25.1367C42.9286 26.3488 42.0888 27.3059 40.957 28.0078C41.4693 28.1048 41.9771 28.0853 42.4805 27.9492C42.8251 26.9209 43.5087 26.2178 44.5312 25.8398C44.5454 25.0493 44.6236 24.268 44.7656 23.4961C45.2979 22.8802 45.8447 22.8802 46.4062 23.4961C46.4261 24.2802 46.4846 25.0615 46.582 25.8398C47.6367 26.1914 48.3398 26.8945 48.6914 27.9492C49.4698 28.0466 50.2511 28.1052 51.0352 28.125C51.6148 28.6289 51.6538 29.1758 51.1523 29.7656C50.3413 29.9085 49.521 29.9866 48.6914 30C48.3019 31.0733 47.5597 31.7569 46.4648 32.0508C46.4843 32.833 46.4648 33.6143 46.4062 34.3945C46.1118 34.8295 45.7016 34.9662 45.1758 34.8047C45.0081 34.7502 44.8714 34.6525 44.7656 34.5117C44.6474 33.6955 44.5498 32.8752 44.4727 32.0508C43.5352 31.6602 42.8711 30.9961 42.4805 30.0586C41.7806 29.9613 41.0775 29.9027 40.3711 29.8828C40.2227 29.8466 40.086 29.788 39.9609 29.707C40.371 31.0559 40.7616 32.4231 41.1328 33.8086C41.4403 35.6313 41.6161 37.4673 41.6602 39.3164C42.9291 38.9651 44.1791 38.5549 45.4102 38.0859C46.6291 37.8829 47.723 38.1564 48.6914 38.9062C49.1159 39.4623 49.526 40.0287 49.9219 40.6055C51.9163 42.4175 54.0452 42.5933 56.3086 41.1328C57.9943 39.6441 58.4827 37.8277 57.7734 35.6836C57.6079 35.3132 57.4125 34.9616 57.1875 34.6289C56.4716 33.8815 55.6903 33.2174 54.8438 32.6367C54.3053 31.93 54.0123 31.1291 53.9648 30.2344C54.4127 28.656 54.8619 27.0739 55.3125 25.4883C56.0168 21.7739 55.6262 18.1801 54.1406 14.707C53.726 12.5871 54.4877 11.0441 56.4258 10.0781C58.2686 8.21732 58.5615 6.12746 57.3047 3.80859C55.6151 1.74705 53.5643 1.25877 51.1523 2.34375C50.3065 2.83807 49.662 3.52166 49.2188 4.39453C47.6168 6.11822 45.8198 6.35259 43.8281 5.09766C43.4536 4.02819 43.8247 3.53992 44.9414 3.63281C45.73 4.14394 46.5111 4.14394 47.2852 3.63281C48.163 2.16901 49.3739 1.07526 50.918 0.351562C51.3579 0.198191 51.7876 0.0614725 52.207 -0.0585938C53.0273 -0.0585938 53.8477 -0.0585938 54.668 -0.0585938C57.4805 0.644531 59.2383 2.40234 59.9414 5.21484C59.9414 6.03516 59.9414 6.85547 59.9414 7.67578C59.6882 8.73002 59.2389 9.70658 58.5938 10.6055C57.8779 11.3529 57.0966 12.017 56.25 12.5977C56.0557 12.9268 55.9189 13.2784 55.8398 13.6523C58.0262 19.1794 58.0262 24.7068 55.8398 30.2344C56.0002 31.2151 56.547 31.8792 57.4805 32.2266C58.7354 33.2735 59.5557 34.5821 59.9414 36.1523C59.9414 36.9727 59.9414 37.793 59.9414 38.6133C58.7487 42.6488 56.0534 44.387 51.8555 43.8281C50.5534 43.4996 49.4401 42.8551 48.5156 41.8945C48.111 41.2944 47.6618 40.728 47.168 40.1953C46.7323 39.926 46.2635 39.8479 45.7617 39.9609C44.3584 40.5329 42.9131 40.9625 41.4258 41.25C41.0114 42.7668 40.5231 44.2707 39.9609 45.7617C39.8479 46.2635 39.926 46.7323 40.1953 47.168C40.728 47.6618 41.2944 48.111 41.8945 48.5156C43.9951 50.6982 44.5225 53.2178 43.4766 56.0742C42.477 58.1634 40.8559 59.4525 38.6133 59.9414C37.793 59.9414 36.9727 59.9414 36.1523 59.9414C34.5821 59.5557 33.2735 58.7354 32.2266 57.4805C31.8792 56.547 31.2151 56.0002 30.2344 55.8398C24.7068 58.0262 19.1794 58.0262 13.6523 55.8398C13.2784 55.9189 12.9268 56.0557 12.5977 56.25C11.7198 57.7138 10.5089 58.8075 8.96484 59.5312C8.52491 59.6846 8.09523 59.8213 7.67578 59.9414C6.85547 59.9414 6.03516 59.9414 5.21484 59.9414C2.40234 59.2383 0.644531 57.4805 -0.0585938 54.668C-0.0585938 53.8477 -0.0585938 53.0273 -0.0585938 52.207C0.373729 50.2304 1.46748 48.7264 3.22266 47.6953C3.66299 47.3032 3.93643 46.8149 4.04297 46.2305C3.74228 45.2698 3.42977 44.3128 3.10547 43.3594C3.36452 42.4939 3.91139 42.2596 4.74609 42.6562C5.45307 43.917 5.82417 45.2646 5.85938 46.6992C5.59071 48.1405 4.78993 49.1756 3.45703 49.8047C1.61429 51.6655 1.32132 53.7553 2.57812 56.0742C4.26773 58.1358 6.31852 58.624 8.73047 57.5391C9.57638 57.0448 10.2209 56.3611 10.6641 55.4883C11.7304 54.1954 13.078 53.7462 14.707 54.1406C18.1801 55.6262 21.7739 56.0168 25.4883 55.3125C27.0739 54.8619 28.656 54.4127 30.2344 53.9648C31.7953 54.0613 32.928 54.8034 33.6328 56.1914C35.5857 58.3419 37.7927 58.6739 40.2539 57.1875C42.2169 55.4487 42.6271 53.3979 41.4844 51.0352C40.9077 50.1502 40.146 49.4666 39.1992 48.9844C38.2167 47.9898 37.8457 46.7984 38.0859 45.4102C40.1953 40.4094 40.1953 35.4095 38.0859 30.4102C37.8468 28.4469 38.6085 27.0211 40.3711 26.1328C42.3121 24.3013 42.6441 22.2114 41.3672 19.8633C39.4138 17.4926 37.1286 17.1214 34.5117 18.75C33.8086 19.5703 33.1055 20.3906 32.4023 21.2109C31.505 21.7965 30.5285 21.9919 29.4727 21.7969C24.4738 19.6904 19.4737 19.6904 14.4727 21.7969C13.2537 22 12.1598 21.7264 11.1914 20.9766C10.6836 20.3125 10.1758 19.6485 9.66797 18.9844C7.69161 17.4441 5.66037 17.366 3.57422 18.75C1.67051 20.5172 1.29942 22.568 2.46094 24.9023C2.82786 25.3867 3.23802 25.8359 3.69141 26.25C5.07939 26.9548 5.82157 28.0875 5.91797 29.6484C5.35916 31.4426 4.87087 33.259 4.45312 35.0977C4.31135 36.8514 4.23322 38.6092 4.21875 40.3711C4.05552 40.707 3.78209 40.8632 3.39844 40.8398C2.88886 40.8593 2.57637 40.6249 2.46094 40.1367C2.09664 36.6053 2.60445 33.2068 3.98438 29.9414C4.03765 29.4359 3.92046 28.9671 3.63281 28.5352C2.70901 27.9636 1.8887 27.2605 1.17188 26.4258C0.628818 25.575 0.218661 24.6765 -0.0585938 23.7305C-0.0585938 22.8711 -0.0585938 22.0117 -0.0585938 21.1523C1.20032 17.2014 3.89563 15.5021 8.02734 16.0547C9.32945 16.3832 10.4427 17.0277 11.3672 17.9883C11.7718 18.5884 12.221 19.1548 12.7148 19.6875C13.1505 19.9568 13.6193 20.035 14.1211 19.9219C15.5238 19.3501 16.9691 18.9205 18.457 18.6328C18.8714 17.1161 19.3597 15.6121 19.9219 14.1211C20.035 13.6193 19.9568 13.1505 19.6875 12.7148C19.1548 12.221 18.5884 11.7718 17.9883 11.3672C15.8877 9.18462 15.3604 6.66509 16.4062 3.80859C17.4059 1.71938 19.0269 0.430317 21.2695 -0.0585938ZM30.0586 13.5352C31.003 13.5422 31.5499 14.0109 31.6992 14.9414C31.3813 16.1795 30.6391 16.5505 29.4727 16.0547C28.8565 15.4853 28.7588 14.8407 29.1797 14.1211C29.434 13.8489 29.727 13.6535 30.0586 13.5352ZM45.293 13.5352C46.641 13.6515 47.1293 14.3546 46.7578 15.6445C45.9765 16.582 45.1954 16.582 44.4141 15.6445C44.0292 14.6566 44.3222 13.9535 45.293 13.5352ZM45.1758 27.5977C46.4066 27.5588 46.9731 28.1447 46.875 29.3555C46.5273 30.1703 45.9219 30.4632 45.0586 30.2344C44.2041 29.6864 44.0283 28.9638 44.5312 28.0664C44.7674 27.9261 44.9823 27.7699 45.1758 27.5977ZM13.7695 29.5898C15.3933 29.5566 15.9206 30.2987 15.3516 31.8164C14.394 32.5311 13.6127 32.3749 13.0078 31.3477C12.8798 30.5885 13.1338 30.0026 13.7695 29.5898ZM29.1211 29.5898C30.0224 29.4444 30.6278 29.796 30.9375 30.6445C30.9379 31.7769 30.3715 32.3043 29.2383 32.2266C27.9161 31.4003 27.8769 30.5214 29.1211 29.5898ZM14.1211 43.5352C15.4153 43.7137 15.8645 44.4169 15.4688 45.6445C14.6875 46.582 13.9063 46.582 13.125 45.6445C12.7512 44.5952 13.0832 43.8921 14.1211 43.5352ZM29.4727 43.5352C30.8032 43.7747 31.2134 44.517 30.7031 45.7617C29.961 46.543 29.2187 46.543 28.4766 45.7617C27.9843 44.6407 28.3164 43.8986 29.4727 43.5352Z" fill="#2B1E16"/>
<path opacity="0.931" fill-rule="evenodd" clip-rule="evenodd" d="M45.2929 8.96495C45.753 8.91181 46.124 9.06806 46.4062 9.4337C46.4452 10.215 46.4844 10.9962 46.5234 11.7774C47.5325 12.181 48.2552 12.8842 48.6914 13.8868C49.5212 13.9537 50.3415 14.0515 51.1523 14.1798C51.671 14.8174 51.5928 15.3643 50.9179 15.8204C50.1758 15.8594 49.4335 15.8986 48.6914 15.9376C48.2843 16.9698 47.5616 17.6924 46.5234 18.1056C46.4844 18.8869 46.4452 19.668 46.4062 20.4493C45.6641 21.1134 45.0781 20.9962 44.6484 20.0978C44.6285 19.3914 44.5699 18.6882 44.4726 17.9884C43.5382 17.6007 42.8741 16.9367 42.4804 15.9962C41.7413 15.8988 40.9991 15.8402 40.2539 15.8204C39.7003 15.5351 39.5245 15.0858 39.7265 14.4728C39.8688 14.2912 40.0446 14.1546 40.2539 14.0626C40.9991 14.0428 41.7413 13.9842 42.4804 13.8868C42.8877 12.8932 43.5908 12.2292 44.5898 11.8946C44.5448 11.0639 44.6034 10.2436 44.7656 9.4337C44.9293 9.24968 45.1051 9.09343 45.2929 8.96495ZM45.2929 13.5353C44.3222 13.9536 44.0292 14.6567 44.414 15.6446C45.1953 16.5821 45.9765 16.5821 46.7578 15.6446C47.1293 14.3548 46.6409 13.6516 45.2929 13.5353Z" fill="#2B1E16"/>
<path opacity="0.93" fill-rule="evenodd" clip-rule="evenodd" d="M13.8868 25.0195C14.3574 24.9492 14.7676 25.0664 15.1172 25.3711C15.2355 26.1873 15.3331 27.0076 15.4102 27.832C16.3477 28.2226 17.0118 28.8867 17.4024 29.8242C18.2288 29.8959 19.0491 29.9937 19.8633 30.1172C20.1874 30.4682 20.285 30.8783 20.1563 31.3477C20.0977 31.5625 19.9609 31.6992 19.7461 31.7578C18.962 31.7776 18.1808 31.8362 17.4024 31.9336C17.0577 32.9619 16.3742 33.665 15.3516 34.043C15.3126 34.7071 15.2734 35.3711 15.2344 36.0352C14.8301 36.9817 14.2442 37.0989 13.4766 36.3867C13.4568 35.6026 13.3982 34.8213 13.3008 34.043C12.2461 33.6914 11.543 32.9883 11.1915 31.9336C10.4131 31.8362 9.63187 31.7776 8.84771 31.7578C8.26811 31.2539 8.22904 30.707 8.73052 30.1172C9.54159 29.9743 10.3619 29.8962 11.1915 29.8828C11.581 28.8095 12.3231 28.1259 13.418 27.832C13.3986 27.0498 13.418 26.2685 13.4766 25.4883C13.5575 25.2715 13.6941 25.1152 13.8868 25.0195ZM13.7696 29.5898C13.1338 30.0026 12.8799 30.5885 13.0079 31.3477C13.6128 32.3749 14.3941 32.5311 15.3516 31.8164C15.9207 30.2987 15.3933 29.5566 13.7696 29.5898Z" fill="#2B1E16"/>
<path opacity="0.929" fill-rule="evenodd" clip-rule="evenodd" d="M29.1211 25.0194C29.6746 24.9085 30.1238 25.0647 30.4688 25.4882C30.4886 26.2723 30.5472 27.0536 30.6446 27.8319C31.7143 28.1594 32.3784 28.8625 32.6368 29.9413C33.38 29.9219 34.1221 29.9413 34.8633 29.9999C35.7395 30.5472 35.7787 31.1331 34.9805 31.7577C34.2384 31.7967 33.4961 31.8359 32.7539 31.8749C32.3438 32.91 31.6211 33.6327 30.586 34.0429C30.547 34.785 30.5078 35.5273 30.4688 36.2694C30.0127 36.9443 29.4658 37.0225 28.8282 36.5038C28.6805 35.6959 28.6025 34.8756 28.5938 34.0429C27.5205 33.6533 26.8369 32.9112 26.543 31.8163C25.7608 31.8358 24.9795 31.8163 24.1993 31.7577C23.4145 31.1357 23.4535 30.5497 24.3164 29.9999C25.0577 29.9413 25.7998 29.9219 26.543 29.9413C26.8776 28.9423 27.5416 28.2392 28.5352 27.8319C28.6326 27.0928 28.6912 26.3506 28.711 25.6054C28.8278 25.3917 28.9646 25.1964 29.1211 25.0194ZM29.1211 29.5897C27.877 30.5213 27.9161 31.4002 29.2383 32.2265C30.3715 32.3042 30.9379 31.7768 30.9375 30.6444C30.6278 29.7959 30.0224 29.4443 29.1211 29.5897Z" fill="#2B1E16"/>
<path opacity="0.931" fill-rule="evenodd" clip-rule="evenodd" d="M14.1211 38.9648C14.5241 38.9753 14.8561 39.1315 15.1171 39.4336C15.2793 40.2435 15.3379 41.0638 15.2929 41.8945C16.292 42.2291 16.9951 42.8931 17.4023 43.8867C18.1414 43.9841 18.8837 44.0427 19.6289 44.0625C20.1825 44.3479 20.3582 44.7971 20.1562 45.4102C20.0139 45.5917 19.8382 45.7283 19.6289 45.8203C18.8837 45.8401 18.1414 45.8987 17.4023 45.9961C16.9951 46.9897 16.292 47.6537 15.2929 47.9883C15.3379 48.819 15.2793 49.6393 15.1171 50.4492C14.5702 51.0742 14.0234 51.0742 13.4765 50.4492C13.4375 49.6679 13.3984 48.8868 13.3593 48.1055C12.3502 47.7019 11.6276 46.9987 11.1914 45.9961C10.4522 45.8987 9.71005 45.8401 8.96481 45.8203C8.37474 45.4672 8.23802 44.9789 8.55465 44.3555C8.66041 44.2147 8.79713 44.117 8.96481 44.0625C9.70699 44.0235 10.4492 43.9843 11.1914 43.9453C11.5985 42.9131 12.3212 42.1905 13.3593 41.7773C13.3984 40.9961 13.4375 40.2149 13.4765 39.4336C13.6523 39.2029 13.8671 39.0466 14.1211 38.9648ZM14.1211 43.5352C13.0831 43.8921 12.7511 44.5952 13.125 45.6445C13.9063 46.582 14.6874 46.582 15.4687 45.6445C15.8645 44.4169 15.4153 43.7137 14.1211 43.5352Z" fill="#2B1E16"/>
<path opacity="0.929" fill-rule="evenodd" clip-rule="evenodd" d="M29.4727 38.9648C29.9078 38.9965 30.2398 39.1917 30.4688 39.5508C30.5274 40.331 30.5468 41.1123 30.5274 41.8945C31.6602 42.1679 32.3634 42.8711 32.6368 44.0039C33.5095 43.9536 34.3689 44.0122 35.2149 44.1797C35.7183 44.8196 35.6402 45.3664 34.9805 45.8203C34.2384 45.8593 33.4961 45.8985 32.754 45.9375C32.3438 46.9726 31.6211 47.6953 30.586 48.1055C30.547 48.8476 30.5078 49.5899 30.4688 50.332C30.0149 50.9917 29.4681 51.0698 28.8282 50.5664C28.6607 49.7204 28.6021 48.861 28.6524 47.9883C27.5195 47.7149 26.8164 47.0118 26.543 45.8789C25.7608 45.8984 24.9795 45.8789 24.1993 45.8203C23.3924 45.1799 23.4315 44.5939 24.3165 44.0625C25.0577 44.0039 25.7998 43.9845 26.543 44.0039C26.8164 42.8711 27.5195 42.1679 28.6524 41.8945C28.6329 41.1513 28.6524 40.4092 28.711 39.668C28.8414 39.2835 29.0954 39.0491 29.4727 38.9648ZM29.4727 43.5352C28.3164 43.8986 27.9843 44.6407 28.4766 45.7617C29.2188 46.543 29.961 46.543 30.7032 45.7617C31.2134 44.517 30.8033 43.7747 29.4727 43.5352Z" fill="#2B1E16"/>
</g>
<defs>
<clipPath id="clip0_219_17">
<rect width="60" height="60" fill="white"/>
</clipPath>
</defs>
</svg>
