<svg width="36" height="36" viewBox="0 0 36 36" fill="none" xmlns="http://www.w3.org/2000/svg">
<g clip-path="url(#clip0_249_47)">
<path d="M35.9668 10.5841C35.8824 8.67122 35.5731 7.35626 35.1299 6.2167C34.6728 5.00716 33.9695 3.92427 33.0483 3.02403C32.1479 2.10979 31.0579 1.39935 29.8623 0.949404C28.7163 0.506349 27.4081 0.196913 25.4953 0.112663C23.5681 0.0210979 22.9564 0 18.0687 0C13.181 0 12.5693 0.0210979 10.6493 0.105489C8.73648 0.189881 7.42145 0.499457 6.28224 0.942231C5.07234 1.39935 3.98946 2.10261 3.08921 3.02403C2.17497 3.9242 1.46489 5.01426 1.01459 6.20981C0.571534 7.35626 0.262169 8.66419 0.177848 10.5769C0.0863538 12.5041 0.0651855 13.1158 0.0651855 18.0035C0.0651855 22.8912 0.0863537 23.503 0.170675 25.4229C0.255066 27.3358 0.564642 28.6508 1.00777 29.7903C1.46489 30.9999 2.17497 32.0828 3.08921 32.983C3.98946 33.8972 5.07952 34.6077 6.27506 35.0576C7.42138 35.5007 8.72931 35.8101 10.6425 35.8944C12.5621 35.979 13.1742 35.9999 18.0619 35.9999C22.9496 35.9999 23.5613 35.979 25.4813 35.8944C27.3941 35.81 28.7091 35.5008 29.8483 35.0576C31.0448 34.595 32.1315 33.8875 33.0386 32.9804C33.9457 32.0734 34.6533 30.9868 35.116 29.7903C35.5588 28.6439 35.8684 27.3357 35.9527 25.4229C36.0371 23.503 36.0582 22.8912 36.0582 18.0035C36.0582 13.1158 36.0511 12.504 35.9668 10.5841ZM32.7249 25.2823C32.6474 27.0404 32.3521 27.9898 32.106 28.6228C31.501 30.1911 30.2563 31.4358 28.688 32.0408C28.055 32.2869 27.0988 32.5822 25.3475 32.6594C23.4487 32.744 22.8792 32.7649 18.0759 32.7649C13.2725 32.7649 12.6959 32.744 10.8039 32.6594C9.04578 32.5822 8.09637 32.2869 7.46344 32.0408C6.68303 31.7523 5.97266 31.2952 5.39599 30.6974C4.79821 30.1137 4.34109 29.4104 4.05261 28.6299C3.80647 27.997 3.51117 27.0404 3.43402 25.2895C3.34935 23.3906 3.32853 22.8209 3.32853 18.0175C3.32853 13.2142 3.34935 12.6376 3.43402 10.7459C3.51117 8.98776 3.80647 8.03836 4.05261 7.40542C4.34109 6.62466 4.79821 5.91444 5.40316 5.33762C5.98658 4.73985 6.68985 4.28273 7.47061 3.9946C8.10355 3.74846 9.06012 3.45309 10.8111 3.37566C12.7099 3.29127 13.2797 3.27017 18.0827 3.27017C22.8932 3.27017 23.4627 3.29127 25.3546 3.37566C27.1128 3.45316 28.0622 3.74839 28.6951 3.99453C29.4755 4.28273 30.186 4.73985 30.7626 5.33762C31.3604 5.9214 31.8175 6.62466 32.106 7.40542C32.3521 8.03836 32.6474 8.99458 32.7248 10.7459C32.8092 12.6447 32.8303 13.2142 32.8303 18.0175C32.8303 22.8209 32.8093 23.3835 32.7249 25.2823Z" fill="#C7844F"/>
<path d="M18.067 8.75748C12.9614 8.75748 8.81909 12.8996 8.81909 18.0054C8.81909 23.1112 12.9614 27.2533 18.067 27.2533C23.1727 27.2533 27.3149 23.1112 27.3149 18.0054C27.3149 12.8996 23.1727 8.75748 18.067 8.75748ZM18.067 24.0042C14.7548 24.0042 12.068 21.3179 12.068 18.0054C12.068 14.6929 14.7548 12.0066 18.0669 12.0066C21.3794 12.0066 24.0658 14.6929 24.0658 18.0054C24.0658 21.3179 21.3794 24.0042 18.067 24.0042ZM29.8397 8.39179C29.8397 9.5841 28.873 10.5508 27.6804 10.5508C26.4882 10.5508 25.5215 9.5841 25.5215 8.39179C25.5215 7.19933 26.4882 6.23291 27.6805 6.23291C28.873 6.23291 29.8397 7.19926 29.8397 8.39179Z" fill="#C7844F"/>
</g>
<defs>
<clipPath id="clip0_249_47">
<rect width="36" height="36" fill="white"/>
</clipPath>
</defs>
</svg>
