<svg width="83" height="60" viewBox="0 0 83 60" fill="none" xmlns="http://www.w3.org/2000/svg">
<path opacity="0.7" fill-rule="evenodd" clip-rule="evenodd" d="M26.4375 31.1111V35.875C26.4375 44.1366 19.7681 50.5625 11.75 50.5625C10.1269 50.5625 8.8125 51.9414 8.8125 53.5C8.8125 55.1824 10.0676 56.4375 11.75 56.4375C22.9942 56.4375 32.3125 47.2729 32.3125 35.875V18.25C32.3125 10.1419 25.7331 3.5625 17.625 3.5625C9.35323 3.5625 2.9375 10.1218 2.9375 18.25C2.9375 26.5417 9.33327 32.9375 17.625 32.9375C19.272 32.9375 20.8228 32.6424 22.7271 32.123L26.4375 31.1111ZM73.4375 31.1111V35.875C73.4375 44.1366 66.7681 50.5625 58.75 50.5625C57.1269 50.5625 55.8125 51.9414 55.8125 53.5C55.8125 55.1824 57.0676 56.4375 58.75 56.4375C69.9942 56.4375 79.3125 47.2729 79.3125 35.875V18.25C79.3125 10.1419 72.7331 3.5625 64.625 3.5625C56.3532 3.5625 49.9375 10.1218 49.9375 18.25C49.9375 26.5417 56.3333 32.9375 64.625 32.9375C66.272 32.9375 67.8228 32.6424 69.7271 32.123L73.4375 31.1111ZM23.3039 38.0444C22.2882 43.5758 17.453 47.625 11.75 47.625C8.44531 47.625 5.875 50.3789 5.875 53.5C5.875 56.8047 8.44531 59.375 11.75 59.375C24.6016 59.375 35.25 48.9102 35.25 35.875V18.25C35.25 8.51953 27.3555 0.625 17.625 0.625C7.71094 0.625 0 8.51953 0 18.25C0 28.1641 7.71094 35.875 17.625 35.875C18.6348 35.875 19.5986 35.7832 20.5625 35.6226C21.5264 35.4619 22.4902 35.2324 23.5 34.957V35.875C23.5 36.6185 23.4326 37.3434 23.3039 38.0444ZM70.3039 38.0444C69.2882 43.5758 64.453 47.625 58.75 47.625C55.4453 47.625 52.875 50.3789 52.875 53.5C52.875 56.8047 55.4453 59.375 58.75 59.375C71.6016 59.375 82.25 48.9102 82.25 35.875V18.25C82.25 8.51953 74.3555 0.625 64.625 0.625C54.7109 0.625 47 8.51953 47 18.25C47 28.1641 54.7109 35.875 64.625 35.875C65.6348 35.875 66.5986 35.7832 67.5625 35.6226C68.5264 35.4619 69.4902 35.2324 70.5 34.957V35.875C70.5 36.6185 70.4326 37.3434 70.3039 38.0444Z" fill="#C7844F"/>
</svg>
