<svg width="36" height="36" viewBox="0 0 36 36" fill="none" xmlns="http://www.w3.org/2000/svg">
<g clip-path="url(#clip0_37_316)">
<path opacity="0.98" fill-rule="evenodd" clip-rule="evenodd" d="M-0.0351562 -0.0351562C11.9649 -0.0351562 23.9648 -0.0351562 35.9648 -0.0351562C35.9648 11.9649 35.9648 23.9648 35.9648 35.9648C23.9648 35.9648 11.9649 35.9648 -0.0351562 35.9648C-0.0351562 23.9648 -0.0351562 11.9649 -0.0351562 -0.0351562ZM2.07422 2.07422C6.38678 2.0625 10.6993 2.07422 15.0117 2.10938C14.0118 2.92718 13.2032 3.89983 12.5859 5.02734C11.6727 4.7437 10.7352 4.60307 9.77344 4.60547C8.16757 4.72074 6.56208 4.83793 4.95703 4.95703C4.82928 6.56155 4.71209 8.16701 4.60547 9.77344C4.59261 10.7368 4.73323 11.6743 5.02734 12.5859C3.93246 13.2109 2.9598 13.996 2.10938 14.9414C2.07422 10.6524 2.0625 6.36334 2.07422 2.07422ZM20.918 2.14453C25.2186 2.07428 29.5311 2.05085 33.8555 2.07422C33.8672 6.36334 33.8555 10.6524 33.8203 14.9414C32.9699 13.996 31.9972 13.2109 30.9023 12.5859C31.1965 11.6743 31.3371 10.7368 31.3242 9.77344C31.2176 8.16701 31.1004 6.56155 30.9727 4.95703C29.3676 4.83793 27.7621 4.72074 26.1562 4.60547C25.1945 4.60307 24.257 4.7437 23.3438 5.02734C22.7325 3.89727 21.9239 2.93634 20.918 2.14453ZM17.8945 2.49609C19.2478 3.35711 20.3728 4.45868 21.2695 5.80078C19.9914 6.58666 18.8899 7.57104 17.9648 8.75391C17.0398 7.57104 15.9383 6.58666 14.6602 5.80078C14.9161 5.41598 15.1856 5.04097 15.4688 4.67578C16.2491 3.90659 17.0577 3.18003 17.8945 2.49609ZM9.10547 6.78516C9.98121 6.75968 10.8484 6.82999 11.707 6.99609C11.3443 8.48334 11.274 9.98339 11.4961 11.4961C9.98325 11.2735 8.4832 11.3438 6.99609 11.707C6.87097 11.0692 6.80066 10.4247 6.78516 9.77344C6.83416 8.84552 6.90448 7.91972 6.99609 6.99609C7.71159 6.94836 8.41472 6.87805 9.10547 6.78516ZM25.4883 6.78516C26.64 6.80496 27.7884 6.87528 28.9336 6.99609C29.0252 7.91972 29.0955 8.84552 29.1445 9.77344C29.1291 10.4247 29.0588 11.0692 28.9336 11.707C27.4465 11.3438 25.9464 11.2735 24.4336 11.4961C24.6557 9.98339 24.5854 8.48334 24.2227 6.99609C24.6564 6.94185 25.0783 6.87154 25.4883 6.78516ZM13.7461 7.91016C14.5427 8.3283 15.2342 8.8908 15.8203 9.59766C16.5488 10.5957 17.2637 11.6035 17.9648 12.6211C18.666 11.6035 19.3809 10.5957 20.1094 9.59766C20.6847 8.91619 21.3526 8.35369 22.1133 7.91016C22.3675 8.78365 22.4496 9.67423 22.3594 10.582C22.1736 11.7803 21.9744 12.9756 21.7617 14.168C22.9562 13.9689 24.1515 13.7696 25.3477 13.5703C26.2564 13.4801 27.147 13.5622 28.0195 13.8164C27.5524 14.6007 26.9665 15.2921 26.2617 15.8906C25.287 16.5957 24.3027 17.2871 23.3086 17.9648C24.3027 18.6426 25.287 19.334 26.2617 20.0391C26.9665 20.6376 27.5524 21.329 28.0195 22.1133C27.1465 22.3632 26.2559 22.4453 25.3477 22.3594C24.1515 22.16 22.9562 21.9608 21.7617 21.7617C21.9744 22.9541 22.1736 24.1494 22.3594 25.3477C22.4496 26.2555 22.3675 27.146 22.1133 28.0195C21.3526 27.576 20.6847 27.0135 20.1094 26.332C19.3809 25.334 18.666 24.3262 17.9648 23.3086C17.2637 24.3262 16.5488 25.334 15.8203 26.332C15.245 27.0135 14.577 27.576 13.8164 28.0195C13.5622 27.147 13.4801 26.2564 13.5703 25.3477C13.7561 24.1494 13.9553 22.9541 14.168 21.7617C12.9735 21.9608 11.7782 22.16 10.582 22.3594C9.67423 22.4496 8.78365 22.3675 7.91016 22.1133C8.37731 21.329 8.96323 20.6376 9.66797 20.0391C10.6426 19.334 11.627 18.6426 12.6211 17.9648C11.627 17.2871 10.6426 16.5957 9.66797 15.8906C8.96323 15.2921 8.37731 14.6007 7.91016 13.8164C8.78365 13.5622 9.67423 13.4801 10.582 13.5703C11.7782 13.7696 12.9735 13.9689 14.168 14.168C13.9688 12.9732 13.7696 11.7779 13.5703 10.582C13.5032 9.68266 13.5618 8.79209 13.7461 7.91016ZM5.73047 14.6602C5.80049 14.6541 5.85908 14.6776 5.90625 14.7305C6.64324 15.9948 7.59248 17.0729 8.75391 17.9648C7.569 18.8917 6.58462 19.9932 5.80078 21.2695C5.07175 20.8393 4.42722 20.3002 3.86719 19.6523C3.39684 19.1 2.93981 18.5375 2.49609 17.9648C3.38723 16.6753 4.46536 15.5737 5.73047 14.6602ZM30.0586 14.6602C30.8187 15.0715 31.4867 15.6106 32.0625 16.2773C32.5328 16.8296 32.9899 17.3921 33.4336 17.9648C32.7491 18.8724 31.9991 19.7279 31.1836 20.5312C30.8417 20.7911 30.4902 21.0371 30.1289 21.2695C29.3451 19.9932 28.3607 18.8917 27.1758 17.9648C28.3641 17.058 29.325 15.9565 30.0586 14.6602ZM17.332 16.9805C17.7539 17.0742 18.1758 17.0742 18.5977 16.9805C18.6119 17.384 18.776 17.7121 19.0898 17.9648C18.776 18.2175 18.6119 18.5457 18.5977 18.9492C18.1758 18.8555 17.7539 18.8555 17.332 18.9492C17.3178 18.5457 17.1537 18.2175 16.8398 17.9648C17.1537 17.7121 17.3178 17.384 17.332 16.9805ZM2.07422 20.9883C2.94107 21.925 3.92544 22.7102 5.02734 23.3438C4.73323 24.2554 4.59261 25.1929 4.60547 26.1562C4.71209 27.7627 4.82928 29.3681 4.95703 30.9727C6.56208 31.0918 8.16757 31.209 9.77344 31.3242C10.7352 31.3266 11.6727 31.186 12.5859 30.9023C13.2032 32.0299 14.0118 33.0025 15.0117 33.8203C10.6993 33.8555 6.38678 33.8672 2.07422 33.8555C2.07422 29.5664 2.07422 25.2773 2.07422 20.9883ZM33.7852 20.9883C33.8554 25.2655 33.8788 29.5545 33.8555 33.8555C29.5429 33.8672 25.2304 33.8555 20.918 33.8203C21.9179 33.0025 22.7265 32.0299 23.3438 30.9023C24.2455 31.1835 25.1713 31.3241 26.1211 31.3242C27.7388 31.2109 29.356 31.0937 30.9727 30.9727C31.1004 29.3681 31.2176 27.7627 31.3242 26.1562C31.3371 25.1931 31.1965 24.2556 30.9023 23.3438C31.9991 22.7277 32.96 21.9426 33.7852 20.9883ZM6.99609 24.2227C8.4832 24.5859 9.98325 24.6562 11.4961 24.4336C11.274 25.9463 11.3443 27.4463 11.707 28.9336C11.0679 29.0471 10.4234 29.1175 9.77344 29.1445C8.84623 29.0878 7.92042 29.0175 6.99609 28.9336C6.90448 28.01 6.83416 27.0842 6.78516 26.1562C6.80066 25.505 6.87097 24.8605 6.99609 24.2227ZM28.582 24.2227C28.6992 24.2227 28.8164 24.2227 28.9336 24.2227C29.0588 24.8605 29.1291 25.505 29.1445 26.1562C29.0955 27.0842 29.0252 28.01 28.9336 28.9336C28.0093 29.0175 27.0835 29.0878 26.1562 29.1445C25.5063 29.1175 24.8618 29.0471 24.2227 28.9336C24.5854 27.4463 24.6557 25.9463 24.4336 24.4336C25.8409 24.666 27.2237 24.5957 28.582 24.2227ZM17.8945 27.1758C18.4863 27.8028 19.0957 28.4239 19.7227 29.0391C20.2302 29.4183 20.7458 29.7816 21.2695 30.1289C20.8058 30.832 20.2667 31.4764 19.6523 32.0625C19.1 32.5328 18.5375 32.9899 17.9648 33.4336C17.0808 32.7726 16.2487 32.046 15.4688 31.2539C15.1856 30.8887 14.9161 30.5137 14.6602 30.1289C15.415 29.6208 16.1415 29.07 16.8398 28.4766C17.233 28.0722 17.5846 27.6386 17.8945 27.1758Z" fill="#C7844F"/>
<path opacity="0.963" fill-rule="evenodd" clip-rule="evenodd" d="M15.8555 14.3086C16.5526 14.4946 17.2557 14.6587 17.9648 14.8008C18.674 14.6467 19.3771 14.4944 20.0742 14.3438C20.2912 15.059 20.5139 15.7739 20.7422 16.4883C21.2109 16.9571 21.6797 17.4258 22.1484 17.8945C22.1953 17.9414 22.1953 17.9883 22.1484 18.0352C21.6797 18.5039 21.2109 18.9726 20.7422 19.4414C20.5139 20.1558 20.2912 20.8706 20.0742 21.5859C19.3771 21.4353 18.674 21.283 17.9648 21.1289C17.2557 21.283 16.5525 21.4353 15.8555 21.5859C15.6385 20.8706 15.4158 20.1558 15.1875 19.4414C14.7187 18.9726 14.25 18.5039 13.7812 18.0352C13.7343 17.9883 13.7343 17.9414 13.7812 17.8945C14.25 17.4258 14.7187 16.9571 15.1875 16.4883C15.4213 15.7633 15.644 15.0368 15.8555 14.3086ZM17.332 16.9805C17.3177 17.384 17.1537 17.7121 16.8398 17.9648C17.1537 18.2175 17.3177 18.5457 17.332 18.9492C17.7539 18.8555 18.1758 18.8555 18.5976 18.9492C18.6119 18.5457 18.776 18.2175 19.0898 17.9648C18.776 17.7121 18.6119 17.384 18.5976 16.9805C18.1758 17.0742 17.7539 17.0742 17.332 16.9805Z" fill="#C7844F"/>
</g>
<defs>
<clipPath id="clip0_37_316">
<rect width="36" height="36" fill="white"/>
</clipPath>
</defs>
</svg>
