<svg width="36" height="36" viewBox="0 0 36 36" fill="none" xmlns="http://www.w3.org/2000/svg">
<g clip-path="url(#clip0_37_326)">
<path opacity="0.944" fill-rule="evenodd" clip-rule="evenodd" d="M18.457 -0.0351562C23.7539 -0.0351562 29.0508 -0.0351562 34.3477 -0.0351562C34.3477 10.5586 34.3477 21.1523 34.3477 31.7461C32.918 31.7461 31.4883 31.7461 30.0586 31.7461C30.0586 31.3945 30.0586 31.043 30.0586 30.6914C30.7152 30.7031 31.3715 30.6914 32.0273 30.6562C27.7448 27.3755 24.9441 23.0982 23.625 17.8242C22.6724 13.9918 22.1333 10.1012 22.0078 6.15234C21.9283 4.4423 21.8931 2.73136 21.9023 1.01953C21.1289 1.01953 20.3555 1.01953 19.582 1.01953C19.5703 8.14458 19.582 15.2696 19.6172 22.3945C19.8826 25.5147 21.1365 28.1514 23.3789 30.3047C23.5429 30.4219 23.7071 30.539 23.8711 30.6562C25.6053 30.6914 27.3397 30.7031 29.0742 30.6914C29.0742 31.043 29.0742 31.3945 29.0742 31.7461C25.5352 31.7461 21.9961 31.7461 18.457 31.7461C18.457 21.1523 18.457 10.5586 18.457 -0.0351562ZM23.0273 1.01953C23.8711 1.01953 24.7148 1.01953 25.5586 1.01953C25.5308 4.08525 25.8707 7.10866 26.5781 10.0898C27.3343 13.1398 28.8695 15.7062 31.1836 17.7891C31.8323 18.2736 32.5003 18.7306 33.1875 19.1602C33.2344 22.8164 33.2344 26.4727 33.1875 30.1289C30.3777 28.0936 28.1745 25.5389 26.5781 22.4648C25.5693 20.3763 24.8193 18.1966 24.3281 15.9258C23.3672 11.0044 22.9336 6.03565 23.0273 1.01953ZM26.6836 1.01953C27.1992 1.01953 27.7149 1.01953 28.2305 1.01953C28.1167 3.51548 28.4331 5.95298 29.1797 8.33203C29.9908 10.4435 31.3151 12.1544 33.1523 13.4648C33.2343 14.9174 33.2461 16.3705 33.1875 17.8242C30.8346 16.2391 29.1705 14.1062 28.1953 11.4258C27.4527 9.28343 27.0075 7.08033 26.8594 4.81641C26.7879 3.55104 26.7294 2.28542 26.6836 1.01953ZM29.3555 1.01953C30.6445 1.01953 31.9336 1.01953 33.2227 1.01953C33.2344 4.69929 33.2227 8.379 33.1875 12.0586C31.0413 10.1571 29.8226 7.76644 29.5312 4.88672C29.3919 3.60139 29.3333 2.31233 29.3555 1.01953ZM19.582 26.8945C20.1708 28.3174 21.0145 29.5713 22.1133 30.6562C21.2699 30.6914 20.4261 30.7031 19.582 30.6914C19.582 29.4258 19.582 28.1602 19.582 26.8945Z" fill="#C7844F"/>
<path opacity="0.938" fill-rule="evenodd" clip-rule="evenodd" d="M31.1133 2.07422C31.4883 2.07422 31.8633 2.07422 32.2383 2.07422C32.2383 2.42578 32.2383 2.77734 32.2383 3.12891C31.8633 3.12891 31.4883 3.12891 31.1133 3.12891C31.1133 2.77734 31.1133 2.42578 31.1133 2.07422Z" fill="#C7844F"/>
<path opacity="0.946" fill-rule="evenodd" clip-rule="evenodd" d="M17.4727 35.9648C12.1758 35.9648 6.8789 35.9648 1.58203 35.9648C1.58203 26.7773 1.58203 17.5899 1.58203 8.40234C1.95703 8.40234 2.33203 8.40234 2.70703 8.40234C2.69531 11.59 2.70703 14.7774 2.74219 17.9648C4.01209 16.4315 4.80896 14.6737 5.13281 12.6914C5.55448 10.2222 5.68339 7.73782 5.51953 5.23828C4.58203 5.23828 3.64453 5.23828 2.70703 5.23828C2.70703 5.94141 2.70703 6.64453 2.70703 7.34766C2.33203 7.34766 1.95703 7.34766 1.58203 7.34766C1.58203 6.29297 1.58203 5.23828 1.58203 4.18359C6.8789 4.18359 12.1758 4.18359 17.4727 4.18359C17.4727 14.7774 17.4727 25.3711 17.4727 35.9648ZM6.64453 5.23828C7.48828 5.23828 8.33203 5.23828 9.17578 5.23828C9.40613 8.29505 9.18345 11.3185 8.50781 14.3086C7.97386 16.4259 7.41136 18.5353 6.82031 20.6367C6.34212 22.7659 6.31868 24.8986 6.75 27.0352C7.083 28.6987 7.89159 30.0698 9.17578 31.1484C10.478 32.0209 11.8842 32.2318 13.3945 31.7812C14.4917 31.4381 15.4644 30.8873 16.3125 30.1289C16.3477 31.7225 16.3594 33.3162 16.3477 34.9102C13.2304 34.9219 10.1132 34.9102 6.99609 34.875C5.18666 33.4617 3.9562 31.6453 3.30469 29.4258C3.02705 28.5063 2.83955 27.5688 2.74219 26.6133C2.69531 24.2461 2.69531 21.8789 2.74219 19.5117C4.33219 18.1147 5.38687 16.3804 5.90625 14.3086C6.61376 11.324 6.85986 8.30053 6.64453 5.23828ZM10.3008 5.23828C11.1211 5.23828 11.9414 5.23828 12.7617 5.23828C12.8339 8.65308 12.6347 12.0516 12.1641 15.4336C11.8775 17.1011 11.5727 18.7651 11.25 20.4258C11.059 21.4723 11.1762 22.4802 11.6016 23.4492C11.9806 24.0256 12.5197 24.3068 13.2188 24.293C14.4878 24.1272 15.519 23.5413 16.3125 22.5352C16.3594 24.5742 16.3594 26.6133 16.3125 28.6523C15.3516 29.5842 14.2383 30.2756 12.9727 30.7266C10.8775 31.138 9.36577 30.3762 8.4375 28.4414C7.71532 26.7801 7.43407 25.0458 7.59375 23.2383C7.64803 22.53 7.74183 21.8268 7.875 21.1289C8.43743 19.0199 8.99993 16.9105 9.5625 14.8008C10.2981 11.6511 10.5442 8.46359 10.3008 5.23828ZM13.8867 5.23828C14.7071 5.23828 15.5273 5.23828 16.3477 5.23828C16.3594 10.2305 16.3477 15.2227 16.3125 20.2148C15.8804 21.4674 15.0718 22.3931 13.8867 22.9922C13.4841 23.2143 13.0856 23.2143 12.6914 22.9922C12.4028 22.547 12.2622 22.0549 12.2695 21.5156C12.3119 21.0331 12.3705 20.5526 12.4453 20.0742C13.5478 15.19 14.0283 10.2446 13.8867 5.23828ZM2.70703 31.1133C3.29572 32.5361 4.13947 33.79 5.23828 34.875C4.39485 34.9102 3.5511 34.9219 2.70703 34.9102C2.70703 33.6445 2.70703 32.3789 2.70703 31.1133Z" fill="#C7844F"/>
<path opacity="0.938" fill-rule="evenodd" clip-rule="evenodd" d="M31.1133 4.18359C31.4883 4.18359 31.8633 4.18359 32.2383 4.18359C32.2383 4.53516 32.2383 4.88672 32.2383 5.23828C31.8633 5.23828 31.4883 5.23828 31.1133 5.23828C31.1133 4.88672 31.1133 4.53516 31.1133 4.18359Z" fill="#C7844F"/>
</g>
<defs>
<clipPath id="clip0_37_326">
<rect width="36" height="36" fill="white"/>
</clipPath>
</defs>
</svg>
