<svg width="36" height="36" viewBox="0 0 36 36" fill="none" xmlns="http://www.w3.org/2000/svg">
<path opacity="0.961" fill-rule="evenodd" clip-rule="evenodd" d="M1.79297 0.808595C4.13684 0.796874 6.48059 0.808595 8.82422 0.843751C8.97659 0.902342 9.08206 1.00781 9.14063 1.16016C9.17578 1.76908 9.18745 2.37845 9.17578 2.98828C10.5588 2.97657 11.9416 2.98828 13.3242 3.02344C13.4331 3.1088 13.5151 3.21427 13.5703 3.33984C13.6172 13.8398 13.6172 24.3399 13.5703 34.8398C13.5117 34.9922 13.4063 35.0977 13.2539 35.1562C10.9102 35.2031 8.56638 35.2031 6.22266 35.1562C6.09375 35.1211 6.01172 35.039 5.97656 34.9102C5.94142 34.2778 5.92971 33.645 5.94141 33.0117C4.53496 33.0235 3.12871 33.0117 1.72266 32.9766C1.63818 32.9131 1.57959 32.8311 1.54688 32.7305C1.5 22.1836 1.5 11.6367 1.54688 1.08984C1.59537 0.959753 1.6774 0.865998 1.79297 0.808595ZM2.63672 1.93359C4.44141 1.93359 6.24609 1.93359 8.05078 1.93359C8.05078 2.28516 8.05078 2.63672 8.05078 2.98828C7.44096 2.97658 6.83159 2.9883 6.22266 3.02344C6.09375 3.05859 6.01172 3.14063 5.97656 3.26953C5.94141 12.8085 5.92969 22.3476 5.94141 31.8867C4.83984 31.8867 3.73829 31.8867 2.63672 31.8867C2.63672 21.9023 2.63672 11.918 2.63672 1.93359ZM7.06641 4.11328C8.87112 4.11328 10.6758 4.11328 12.4805 4.11328C12.4805 14.0977 12.4805 24.082 12.4805 34.0664C10.6758 34.0664 8.87112 34.0664 7.06641 34.0664C7.06641 24.082 7.06641 14.0977 7.06641 4.11328Z" fill="#C7844F"/>
<path opacity="0.949" fill-rule="evenodd" clip-rule="evenodd" d="M22.1836 2.21484C22.8293 2.26334 23.0285 2.59147 22.7813 3.19922C21.7383 4.24219 20.6953 5.28516 19.6523 6.32812C20.9062 7.58201 22.1602 8.83596 23.4141 10.0898C25.9336 7.57034 28.4532 5.05078 30.9727 2.53125C31.492 2.28713 31.8201 2.43948 31.957 2.98828C31.9181 3.13661 31.8594 3.27724 31.7813 3.41016C27.3282 7.86326 22.875 12.3164 18.4219 16.7695C18.375 16.8164 18.375 16.8633 18.4219 16.9102C19.7344 18.2227 21.0469 19.5351 22.3594 20.8477C26.1445 17.0625 29.9297 13.2773 33.7148 9.49219C34.4834 9.25305 34.7764 9.52263 34.5938 10.3008C32.7646 12.1181 30.9483 13.9463 29.1445 15.7852C30.4443 17.1201 31.7569 18.4443 33.082 19.7578C33.1289 19.8047 33.1758 19.8047 33.2227 19.7578C33.548 19.3731 33.923 19.0567 34.3477 18.8086C34.8846 18.9093 35.0604 19.214 34.875 19.7227C32.6006 21.9853 30.3389 24.2588 28.0898 26.543C29.4024 27.9023 30.7383 29.2383 32.0977 30.5508C32.7412 29.9424 33.374 29.3213 33.9961 28.6875C34.6712 28.4716 34.9641 28.7177 34.875 29.4258C33.3399 30.9609 31.8047 32.4961 30.2695 34.0312C29.6602 34.1483 29.3906 33.9022 29.4609 33.293C30.033 32.6505 30.6307 32.0295 31.2539 31.4297C29.9062 30.082 28.5586 28.7344 27.2109 27.3867C24.8086 29.7891 22.4063 32.1914 20.0039 34.5938C19.2656 34.7929 18.9961 34.5234 19.1953 33.7852C23.5664 29.414 27.9375 25.043 32.3086 20.6719C30.9609 19.3242 29.6133 17.9766 28.2656 16.6289C24.1758 20.7188 20.086 24.8086 15.9961 28.8984C15.3848 29.091 15.0918 28.8684 15.1172 28.2305C15.1641 28.1367 15.2109 28.0429 15.2578 27.9492C17.3447 25.874 19.4189 23.7881 21.4805 21.6914C20.1689 20.3447 18.8447 19.0088 17.5078 17.6836C16.908 18.3068 16.287 18.9045 15.6445 19.4766C14.9165 19.5 14.6939 19.1836 14.9766 18.5273C17.5088 16.0069 20.0283 13.4756 22.5352 10.9336C21.3164 9.66797 20.0742 8.42576 18.8086 7.20703C17.6494 8.33105 16.501 9.46779 15.3633 10.6172C14.5957 10.8573 14.3027 10.5878 14.4844 9.80859C17.0236 7.23403 19.59 4.7028 22.1836 2.21484Z" fill="#C7844F"/>
</svg>
