<svg width="41" height="41" viewBox="0 0 41 41" fill="none" xmlns="http://www.w3.org/2000/svg">
<path opacity="0.944" fill-rule="evenodd" clip-rule="evenodd" d="M1.66406 0.960938C7.67969 0.960938 13.6953 0.960938 19.7109 0.960938C19.763 1.0651 19.8151 1.0651 19.8672 0.960938C25.8828 0.960938 31.8984 0.960938 37.9141 0.960938C38.225 1.13678 38.4463 1.3972 38.5781 1.74219C38.6302 7.67969 38.6302 13.6172 38.5781 19.5547C38.4452 20.0519 38.1197 20.3253 37.6016 20.375C31.8724 20.4141 26.1433 20.4271 20.4141 20.4141C20.4415 20.8642 20.4024 21.3069 20.2969 21.7422C20.0004 22.0002 19.6748 22.0393 19.3203 21.8594C19.2714 21.8008 19.2323 21.7356 19.2031 21.6641C19.1641 21.2482 19.1511 20.8316 19.1641 20.4141C17.7057 20.4141 16.2474 20.4141 14.7891 20.4141C15.2204 22.8506 16.6527 24.309 19.0859 24.7891C19.1505 24.4798 19.1896 24.1673 19.2031 23.8516C19.6227 23.3111 20.0133 23.3372 20.375 23.9297C20.4271 28.513 20.4271 33.0963 20.375 37.6797C20.2898 38.1553 20.0164 38.4548 19.5547 38.5781C13.6432 38.6302 7.73177 38.6302 1.82031 38.5781C1.45218 38.4568 1.16572 38.2355 0.960938 37.9141C0.960938 31.8984 0.960938 25.8828 0.960938 19.8672C1.0651 19.8151 1.0651 19.763 0.960938 19.7109C0.960938 13.6953 0.960938 7.67969 0.960938 1.66406C1.11719 1.35156 1.35156 1.11719 1.66406 0.960938ZM2.13281 2.13281C3.61741 2.1198 5.10179 2.13282 6.58594 2.17187C6.10416 4.63281 4.63281 6.10416 2.17187 6.58594C2.13282 5.10179 2.1198 3.61741 2.13281 2.13281ZM7.83594 2.13281C8.5651 2.13281 9.2943 2.13281 10.0234 2.13281C9.63609 5.50098 7.91733 7.90984 4.86719 9.35937C3.98842 9.71578 3.07697 9.93711 2.13281 10.0234C2.10691 9.29242 2.13295 8.56325 2.21094 7.83594C5.45026 7.27892 7.32526 5.37788 7.83594 2.13281ZM11.2734 2.21094C11.9888 2.1205 12.718 2.10748 13.4609 2.17187C13.9022 4.95679 15.4647 6.77971 18.1484 7.64062C18.4637 7.69747 18.7762 7.76258 19.0859 7.83594C19.1639 8.56325 19.19 9.29242 19.1641 10.0234C15.3777 9.55656 12.8647 7.52532 11.625 3.92969C11.4706 3.35295 11.3534 2.78003 11.2734 2.21094ZM14.7891 2.13281C16.2474 2.13281 17.7057 2.13281 19.1641 2.13281C19.1771 3.61741 19.1641 5.10179 19.125 6.58594C17.1972 6.24673 15.843 5.17902 15.0625 3.38281C14.9217 2.97595 14.8305 2.55929 14.7891 2.13281ZM20.4141 2.13281C21.8734 2.1068 23.3316 2.13284 24.7891 2.21094C24.3055 4.64766 22.8472 6.07995 20.4141 6.50781C20.4141 5.04948 20.4141 3.59115 20.4141 2.13281ZM26.0391 2.13281C26.7682 2.13281 27.4974 2.13281 28.2266 2.13281C28.0026 4.56837 26.9609 6.57359 25.1016 8.14844C24.9064 8.43907 24.9195 8.72553 25.1406 9.00781C25.4703 9.21594 25.7959 9.20289 26.1172 8.96875C27.3598 7.87676 28.2842 6.56165 28.8906 5.02344C29.9907 7.65996 31.8527 9.54797 34.4766 10.6875C31.8334 11.7682 29.9713 13.6302 28.8906 16.2734C27.8099 13.6302 25.9479 11.7682 23.3047 10.6875C23.8612 10.4347 23.9914 10.0441 23.6953 9.51562C23.5477 9.42875 23.3914 9.36359 23.2266 9.32031C22.3194 9.67734 21.3819 9.91172 20.4141 10.0234C20.3881 9.29242 20.4142 8.56325 20.4922 7.83594C23.6891 7.2432 25.538 5.34216 26.0391 2.13281ZM29.5547 2.13281C30.2838 2.13281 31.013 2.13281 31.7422 2.13281C32.0416 4.63277 33.3436 6.39058 35.6484 7.40625C36.1819 7.60404 36.7287 7.74726 37.2891 7.83594C37.367 8.56325 37.3931 9.29242 37.3672 10.0234C33.3014 9.46039 30.7362 7.19477 29.6719 3.22656C29.5942 2.86578 29.5552 2.5012 29.5547 2.13281ZM32.9922 2.13281C34.4505 2.13281 35.9088 2.13281 37.3672 2.13281C37.3672 3.59115 37.3672 5.04948 37.3672 6.50781C35.1914 6.16837 33.7721 4.94441 33.1094 2.83594C33.055 2.60327 33.0159 2.3689 32.9922 2.13281ZM10.5703 5.10156C10.8259 5.45451 11.0472 5.84513 11.2344 6.27344C12.4252 8.29719 14.1048 9.76851 16.2734 10.6875C13.6302 11.7682 11.7682 13.6302 10.6875 16.2734C9.59609 13.6326 7.73416 11.7576 5.10156 10.6484C7.71618 9.57031 9.53906 7.72138 10.5703 5.10156ZM10.5703 9.32031C11.0852 9.70461 11.5539 10.1473 11.9766 10.6484C11.5599 11.1172 11.1172 11.5599 10.6484 11.9766C10.1797 11.5599 9.73695 11.1172 9.32031 10.6484C9.73867 10.2041 10.1553 9.7614 10.5703 9.32031ZM28.7734 9.32031C29.2524 9.76016 29.7212 10.2159 30.1797 10.6875C29.7488 11.1314 29.3062 11.5611 28.8516 11.9766C28.3828 11.5599 27.9401 11.1172 27.5234 10.6484C27.9418 10.2041 28.3584 9.7614 28.7734 9.32031ZM2.13281 11.2734C6.00898 11.7775 8.54805 13.8869 9.75 17.6016C9.87945 18.1166 9.97062 18.6374 10.0234 19.1641C9.29242 19.19 8.56325 19.1639 7.83594 19.0859C7.32356 16.1646 5.63085 14.3287 2.75781 13.5781C2.55109 13.5393 2.34276 13.5262 2.13281 13.5391C2.13281 12.7838 2.13281 12.0287 2.13281 11.2734ZM19.0859 11.2734C19.1636 12.0145 19.1896 12.7697 19.1641 13.5391C16.4535 13.873 14.6436 15.3313 13.7344 17.9141C13.5939 18.3195 13.5288 18.7361 13.5391 19.1641C12.7834 19.177 12.0282 19.1641 11.2734 19.125C11.7673 15.3772 13.7986 12.8772 17.3672 11.625C17.9457 11.4812 18.5187 11.3641 19.0859 11.2734ZM20.4141 11.2734C24.5274 11.8782 27.0925 14.1959 28.1094 18.2266C28.1595 18.5384 28.1986 18.8509 28.2266 19.1641C27.4974 19.1641 26.7682 19.1641 26.0391 19.1641C25.5403 15.9049 23.6653 14.0299 20.4141 13.5391C20.4141 12.7838 20.4141 12.0287 20.4141 11.2734ZM37.2891 11.2734C37.3667 12.0145 37.3927 12.7697 37.3672 13.5391C35.2123 13.7633 33.5847 14.8049 32.4844 16.6641C32.055 17.4442 31.8076 18.2776 31.7422 19.1641C31.013 19.1641 30.2838 19.1641 29.5547 19.1641C29.9698 15.5066 31.8969 13.0197 35.3359 11.7031C35.9898 11.5231 36.6408 11.3798 37.2891 11.2734ZM2.13281 14.7891C4.06357 15.0846 5.43076 16.1262 6.23437 17.9141C6.37032 18.315 6.48751 18.7187 6.58594 19.125C5.10179 19.1641 3.61741 19.1771 2.13281 19.1641C2.13281 17.7057 2.13281 16.2474 2.13281 14.7891ZM18.7734 14.7891C18.9037 14.7891 19.0338 14.7891 19.1641 14.7891C19.1641 16.2474 19.1641 17.7057 19.1641 19.1641C17.7057 19.1641 16.2474 19.1641 14.7891 19.1641C15.1927 16.8595 16.5208 15.4012 18.7734 14.7891ZM20.4141 14.7891C22.8506 15.2204 24.309 16.6527 24.7891 19.0859C23.3316 19.1641 21.8734 19.1901 20.4141 19.1641C20.4141 17.7057 20.4141 16.2474 20.4141 14.7891ZM36.9766 14.7891C37.1068 14.7891 37.2369 14.7891 37.3672 14.7891C37.3672 16.2474 37.3672 17.7057 37.3672 19.1641C35.9088 19.1641 34.4505 19.1641 32.9922 19.1641C33.3986 16.857 34.7267 15.3987 36.9766 14.7891ZM2.13281 20.4141C3.59115 20.4141 5.04948 20.4141 6.50781 20.4141C6.07995 22.8472 4.64766 24.3055 2.21094 24.7891C2.13284 23.3316 2.1068 21.8734 2.13281 20.4141ZM7.83594 20.4141C8.5651 20.4141 9.2943 20.4141 10.0234 20.4141C9.48281 24.3734 7.29533 26.9124 3.46094 28.0312C3.02255 28.1304 2.57985 28.1955 2.13281 28.2266C2.13281 27.4974 2.13281 26.7682 2.13281 26.0391C5.37823 25.528 7.27927 23.653 7.83594 20.4141ZM11.3516 20.4141C12.0807 20.4141 12.8099 20.4141 13.5391 20.4141C14.0297 23.6652 15.9047 25.5402 19.1641 26.0391C19.1641 26.7682 19.1641 27.4974 19.1641 28.2266C15.8758 27.8401 13.493 26.1734 12.0156 23.2266C11.6218 22.3285 11.4005 21.391 11.3516 20.4141ZM10.5703 23.3047C10.6387 23.2945 10.6909 23.3205 10.7266 23.3828C11.8117 25.9914 13.6606 27.8273 16.2734 28.8906C13.6302 29.9713 11.7682 31.8334 10.6875 34.4766C9.55 31.8547 7.66194 29.9927 5.02344 28.8906C7.67526 27.8144 9.52422 25.9524 10.5703 23.3047ZM10.6484 27.5234C11.1155 27.9384 11.5583 28.3812 11.9766 28.8516C11.5599 29.3203 11.1172 29.763 10.6484 30.1797C10.1938 29.7642 9.75117 29.3345 9.32031 28.8906C9.77891 28.4452 10.2216 27.9895 10.6484 27.5234ZM2.13281 29.5547C6.01036 30.003 8.54942 32.0864 9.75 35.8047C9.86656 36.3221 9.95765 36.843 10.0234 37.3672C9.29242 37.3931 8.56325 37.367 7.83594 37.2891C7.46472 34.9005 6.18868 33.1948 4.00781 32.1719C3.40441 31.9298 2.77941 31.7866 2.13281 31.7422C2.13281 31.013 2.13281 30.2838 2.13281 29.5547ZM18.5391 29.5547C18.7474 29.5547 18.9557 29.5547 19.1641 29.5547C19.1641 30.2838 19.1641 31.013 19.1641 31.7422C16.5738 32.0798 14.79 33.4599 13.8125 35.8828C13.6459 36.3643 13.5548 36.8591 13.5391 37.3672C12.7834 37.3802 12.0282 37.3672 11.2734 37.3281C11.937 33.0841 14.3588 30.493 18.5391 29.5547ZM2.13281 32.9922C4.27673 33.3259 5.696 34.5237 6.39062 36.5859C6.4721 36.8404 6.51116 37.1008 6.50781 37.3672C5.04948 37.3672 3.59115 37.3672 2.13281 37.3672C2.13281 35.9088 2.13281 34.4505 2.13281 32.9922ZM18.8516 32.9922C18.9557 32.9922 19.0599 32.9922 19.1641 32.9922C19.1641 34.4505 19.1641 35.9088 19.1641 37.3672C17.7057 37.3672 16.2474 37.3672 14.7891 37.3672C15.1991 35.0302 16.5533 33.5718 18.8516 32.9922Z" fill="white"/>
<path opacity="0.923" fill-rule="evenodd" clip-rule="evenodd" d="M10.5703 7.75781C10.7597 7.79926 10.942 7.86436 11.1172 7.95312C11.8854 8.72135 12.6537 9.48961 13.4219 10.2578C13.5781 10.5182 13.5781 10.7787 13.4219 11.0391C12.6276 11.8334 11.8334 12.6276 11.0391 13.4219C10.7787 13.5781 10.5182 13.5781 10.2578 13.4219C9.48961 12.6537 8.72135 11.8854 7.95312 11.1172C7.8804 10.9641 7.81529 10.8079 7.75781 10.6484C7.81529 10.489 7.8804 10.3327 7.95312 10.1797C8.69531 9.4375 9.4375 8.69531 10.1797 7.95312C10.3215 7.894 10.4516 7.82889 10.5703 7.75781ZM10.5703 9.32031C10.1553 9.76141 9.73867 10.2041 9.32031 10.6484C9.73695 11.1172 10.1797 11.5599 10.6484 11.9766C11.1172 11.5599 11.5599 11.1172 11.9766 10.6484C11.5539 10.1473 11.0852 9.70461 10.5703 9.32031Z" fill="white"/>
<path opacity="0.928" fill-rule="evenodd" clip-rule="evenodd" d="M28.7734 7.75781C28.8973 7.80845 29.0276 7.84751 29.1641 7.875C29.9844 8.69531 30.8047 9.51562 31.625 10.3359C31.6888 10.6066 31.6627 10.867 31.5469 11.1172C30.8047 11.8594 30.0625 12.6016 29.3203 13.3437C29.047 13.555 28.7605 13.581 28.4609 13.4219C27.6666 12.6276 26.8724 11.8334 26.0781 11.0391C25.9219 10.7787 25.9219 10.5182 26.0781 10.2578C26.8724 9.46352 27.6666 8.66927 28.4609 7.875C28.5827 7.85859 28.6868 7.81953 28.7734 7.75781ZM28.7734 9.32031C28.3584 9.76141 27.9418 10.2041 27.5234 10.6484C27.9401 11.1172 28.3828 11.5599 28.8516 11.9766C29.3062 11.5611 29.7488 11.1314 30.1797 10.6875C29.7212 10.2159 29.2524 9.76016 28.7734 9.32031Z" fill="white"/>
<path opacity="0.947" fill-rule="evenodd" clip-rule="evenodd" d="M40.961 22.211C40.961 28.2266 40.961 34.2422 40.961 40.2578C40.8047 40.5703 40.5703 40.8047 40.2578 40.961C34.2682 40.961 28.2787 40.961 22.2891 40.961C21.8868 40.7792 21.6394 40.4667 21.5469 40.0235C21.4948 34.1901 21.4948 28.3568 21.5469 22.5235C21.6381 21.9635 21.9635 21.6381 22.5235 21.5469C28.3568 21.4948 34.1901 21.4948 40.0235 21.5469C40.4349 21.6334 40.7474 21.8547 40.961 22.211ZM22.7578 22.7578C24.2162 22.7578 25.6745 22.7578 27.1328 22.7578C26.792 24.9349 25.568 26.3542 23.461 27.0156C23.2319 27.0901 22.9975 27.1292 22.7578 27.1328C22.7578 25.6745 22.7578 24.2162 22.7578 22.7578ZM28.3828 22.7578C29.1385 22.7449 29.8937 22.7578 30.6485 22.7969C30.1496 26.4206 28.1964 28.8946 24.7891 30.2188C24.1335 30.4168 23.4695 30.5601 22.7969 30.6485C22.7578 29.8937 22.7449 29.1385 22.7578 28.3828C25.4684 28.0488 27.2783 26.5906 28.1875 24.0078C28.3083 23.5992 28.3735 23.1826 28.3828 22.7578ZM31.8985 22.7578C32.6295 22.7319 33.3586 22.758 34.086 22.836C34.5983 25.7573 36.291 27.5932 39.1641 28.3438C39.3708 28.3826 39.5792 28.3956 39.7891 28.3828C39.802 29.1385 39.7891 29.8937 39.75 30.6485C35.8947 30.1262 33.3687 28.0168 32.1719 24.3203C32.0424 23.8053 31.9513 23.2845 31.8985 22.7578ZM35.336 22.836C36.8067 22.7581 38.2911 22.7321 39.7891 22.7578C39.7891 24.2162 39.7891 25.6745 39.7891 27.1328C37.3573 26.6802 35.8729 25.2478 35.336 22.836ZM31.1953 25.6485C31.9449 27.3753 33.0646 28.8206 34.5547 29.9844C35.2616 30.4942 36.0168 30.9239 36.8203 31.2735C34.2162 32.3672 32.3672 34.2162 31.2735 36.8203C30.1643 34.1878 28.2893 32.3258 25.6485 31.2344C27.8878 30.3495 29.5935 28.8521 30.7656 26.7422C30.9632 26.3964 31.1064 26.0319 31.1953 25.6485ZM31.1953 29.9453C31.7102 30.3296 32.1789 30.7724 32.6016 31.2735C32.1849 31.7422 31.7422 32.1849 31.2735 32.6016C30.8047 32.1849 30.362 31.7422 29.9453 31.2735C30.3637 30.8292 30.7803 30.3864 31.1953 29.9453ZM22.7578 31.8985C26.5442 32.3653 29.0572 34.3966 30.2969 37.9922C30.4549 38.5738 30.5721 39.1597 30.6485 39.75C29.9193 39.8021 29.1901 39.8021 28.461 39.75C28.0197 36.9651 26.4572 35.1422 23.7735 34.2813C23.4581 34.2244 23.1456 34.1593 22.836 34.086C22.758 33.3586 22.7319 32.6295 22.7578 31.8985ZM39.4766 31.8985C39.5807 31.8985 39.6849 31.8985 39.7891 31.8985C39.815 32.6295 39.7889 33.3586 39.711 34.086C39.2086 34.166 38.7138 34.2831 38.2266 34.4375C37.8174 34.6933 37.7263 35.0449 37.9531 35.4922C38.2075 35.6429 38.481 35.682 38.7735 35.6094C39.0939 35.489 39.4195 35.3979 39.75 35.336C39.7891 36.8201 39.8021 38.3045 39.7891 39.7891C38.3045 39.8021 36.8201 39.7891 35.336 39.75C35.5096 38.6606 35.9654 37.71 36.7031 36.8985C36.817 36.1524 36.5175 35.879 35.8047 36.0781C34.8234 37.0904 34.2505 38.3013 34.086 39.711C33.3586 39.7889 32.6295 39.815 31.8985 39.7891C32.5441 35.3416 35.0701 32.7113 39.4766 31.8985ZM22.7578 35.336C24.7018 35.6636 26.069 36.7313 26.8594 38.5391C27.0002 38.946 27.0913 39.3626 27.1328 39.7891C25.6745 39.7891 24.2162 39.7891 22.7578 39.7891C22.7578 38.3047 22.7578 36.8203 22.7578 35.336Z" fill="white"/>
<path opacity="0.917" fill-rule="evenodd" clip-rule="evenodd" d="M10.336 26.0389C10.6077 26.0142 10.8682 26.0533 11.1172 26.1561C11.8594 26.8983 12.6016 27.6405 13.3438 28.3827C13.5551 28.656 13.5811 28.9425 13.4219 29.242C12.6276 30.0363 11.8334 30.8305 11.0391 31.6248C10.7787 31.7811 10.5183 31.7811 10.2579 31.6248C9.46358 30.8305 8.66933 30.0363 7.87506 29.242C7.72708 28.9023 7.77916 28.5898 8.03131 28.3045C8.79134 27.5314 9.55959 26.7762 10.336 26.0389ZM10.6485 27.5233C10.2216 27.9893 9.77897 28.445 9.32037 28.8905C9.75123 29.3344 10.1939 29.7641 10.6485 30.1795C11.1172 29.7629 11.56 29.3202 11.9766 28.8514C11.5583 28.381 11.1156 27.9383 10.6485 27.5233Z" fill="white"/>
<path opacity="0.923" fill-rule="evenodd" clip-rule="evenodd" d="M31.1172 28.3828C31.3068 28.3846 31.4891 28.4237 31.6641 28.5C32.4323 29.2682 33.2005 30.0365 33.9688 30.8047C34.0415 30.9577 34.1066 31.114 34.1641 31.2734C34.1066 31.4329 34.0415 31.5891 33.9688 31.7422C33.2266 32.4844 32.4844 33.2266 31.7422 33.9688C31.4204 34.1938 31.1079 34.1938 30.8047 33.9688C30.0365 33.2005 29.2682 32.4323 28.5 31.6641C28.3438 31.4037 28.3438 31.1432 28.5 30.8828C29.3424 30.0009 30.2148 29.1676 31.1172 28.3828ZM31.1953 29.9453C30.7803 30.3864 30.3637 30.8291 29.9453 31.2734C30.362 31.7422 30.8047 32.1849 31.2734 32.6016C31.7422 32.1849 32.1849 31.7422 32.6016 31.2734C32.1789 30.7723 31.7102 30.3296 31.1953 29.9453Z" fill="white"/>
</svg>
