<svg width="40" height="40" viewBox="0 0 40 40" fill="none" xmlns="http://www.w3.org/2000/svg">
<path opacity="0.945" fill-rule="evenodd" clip-rule="evenodd" d="M1.40625 0C4.89584 0 8.38539 0 11.875 0C12.635 0.25259 13.1168 0.773423 13.3203 1.5625C13.3463 3.80209 13.3724 6.04166 13.3984 8.28125C14.4724 6.36745 15.5662 4.46641 16.6797 2.57812C17.4973 1.74796 18.4217 1.60473 19.4531 2.14844C22.1875 3.73698 24.9219 5.32552 27.6562 6.91406C28.3296 7.51967 28.5509 8.26188 28.3203 9.14062C27.2704 11.0712 26.1896 12.9852 25.0781 14.8828C26.9255 13.8672 28.7745 12.8255 30.625 11.7578C31.7081 11.3751 32.5805 11.6485 33.2422 12.5781C34.8777 15.4065 36.4922 18.245 38.0859 21.0938C38.317 21.9695 38.0955 22.7117 37.4219 23.3203C35.5336 24.4338 33.6326 25.5276 31.7188 26.6016C33.9584 26.6276 36.1979 26.6537 38.4375 26.6797C39.2246 26.8811 39.7454 27.3628 40 28.125C40 31.6146 40 35.1041 40 38.5938C39.7135 39.2448 39.2448 39.7135 38.5938 40C26.1979 40 13.8021 40 1.40625 40C0.755209 39.7135 0.286459 39.2448 0 38.5938C0 26.1979 0 13.8021 0 1.40625C0.286459 0.755209 0.755209 0.286459 1.40625 0ZM1.71875 1.40625C5.05873 1.36805 8.39203 1.40711 11.7188 1.52344C11.8126 1.59395 11.8777 1.68509 11.9141 1.79688C11.9531 4.29674 11.9662 6.79674 11.9531 9.29688C8.4375 9.29688 4.92188 9.29688 1.40625 9.29688C1.39323 6.7707 1.40625 4.24466 1.44531 1.71875C1.55278 1.6246 1.64393 1.52044 1.71875 1.40625ZM18.2031 3.20312C18.7677 3.4333 19.3145 3.70673 19.8438 4.02344C22.2209 5.38554 24.5777 6.77877 26.9141 8.20312C27.0436 8.47062 27.0176 8.73109 26.8359 8.98438C25.6577 11.0545 24.4598 13.1118 23.2422 15.1562C20.202 13.3953 17.168 11.6245 14.1406 9.84375C15.3516 7.73438 16.5625 5.625 17.7734 3.51562C17.8906 3.36182 18.0338 3.25766 18.2031 3.20312ZM1.40625 10.7031C4.92197 10.6901 8.43758 10.7031 11.9531 10.7422C10.4624 13.3591 8.95203 15.9633 7.42188 18.5547C5.41684 18.5938 3.41162 18.6068 1.40625 18.5938C1.40625 15.9635 1.40625 13.3334 1.40625 10.7031ZM13.3594 11.0938C16.4169 12.844 19.4638 14.6148 22.5 16.4062C19.9123 17.9648 17.2952 19.4752 14.6484 20.9375C12.9174 19.9362 11.1857 18.9336 9.45312 17.9297C10.8064 15.6785 12.1085 13.3999 13.3594 11.0938ZM31.4062 12.9688C31.6452 12.992 31.8405 13.0961 31.9922 13.2812C33.6047 16.0769 35.2062 18.8763 36.7969 21.6797C36.7333 21.8849 36.6291 22.0672 36.4844 22.2266C34.375 23.4375 32.2656 24.6484 30.1562 25.8594C28.3755 22.832 26.6047 19.798 24.8438 16.7578C27.0259 15.4719 29.2134 14.2088 31.4062 12.9688ZM23.4375 17.5C23.6009 17.5048 23.7181 17.5829 23.7891 17.7344C25.4948 20.6901 27.2005 23.6459 28.9062 26.6016C25.8591 26.6666 22.8122 26.6537 19.7656 26.5625C18.776 24.8438 17.7865 23.125 16.7969 21.4062C19.0282 20.1218 21.2417 18.8197 23.4375 17.5ZM8.67188 19.2188C10.1907 20.0434 11.7011 20.8898 13.2031 21.7578C10.4427 23.3724 7.68229 24.987 4.92188 26.6016C4.76562 26.6537 4.60938 26.6537 4.45312 26.6016C5.89087 24.1554 7.29712 21.6945 8.67188 19.2188ZM1.40625 20C3.12579 19.974 4.84454 20 6.5625 20.0781C5.33223 22.2523 4.08223 24.4138 2.8125 26.5625C2.36816 26.6178 1.92545 26.6699 1.48438 26.7188C1.40627 24.4798 1.38022 22.2402 1.40625 20ZM15.4688 22.1094C16.3816 23.5825 17.267 25.0799 18.125 26.6016C14.6615 26.6537 11.1979 26.6537 7.73438 26.6016C10.343 25.1416 12.9211 23.6441 15.4688 22.1094ZM1.79688 28.0469C4.73959 28.0469 7.68229 28.0469 10.625 28.0469C10.625 31.5625 10.625 35.0781 10.625 38.5938C7.65613 38.6068 4.68738 38.5938 1.71875 38.5547C1.6276 38.4635 1.53646 38.3724 1.44531 38.2812C1.39323 35 1.39323 31.7188 1.44531 28.4375C1.52539 28.2666 1.64258 28.1364 1.79688 28.0469ZM12.0312 28.0469C14.6875 28.0469 17.3438 28.0469 20 28.0469C20 31.5625 20 35.0781 20 38.5938C17.3438 38.5938 14.6875 38.5938 12.0312 38.5938C12.0312 35.0781 12.0312 31.5625 12.0312 28.0469ZM21.4062 28.0469C24.0365 28.0469 26.6666 28.0469 29.2969 28.0469C29.2969 31.5625 29.2969 35.0781 29.2969 38.5938C26.6666 38.5938 24.0365 38.5938 21.4062 38.5938C21.4062 35.0781 21.4062 31.5625 21.4062 28.0469ZM30.7031 28.0469C33.262 28.0089 35.8141 28.048 38.3594 28.1641C38.4532 28.2346 38.5184 28.3257 38.5547 28.4375C38.6068 31.7188 38.6068 35 38.5547 38.2812C38.4635 38.3724 38.3724 38.4635 38.2812 38.5547C35.7553 38.5938 33.2293 38.6068 30.7031 38.5938C30.7031 35.0781 30.7031 31.5625 30.7031 28.0469ZM6.40625 32.0312C7.17513 31.98 7.68295 32.3186 7.92969 33.0469C7.93422 34.3019 7.32222 34.7837 6.09375 34.4922C5.34041 33.9666 5.19719 33.3025 5.66406 32.5C5.88614 32.292 6.13354 32.1357 6.40625 32.0312Z" fill="white"/>
</svg>
