<svg width="36" height="36" viewBox="0 0 36 36" fill="none" xmlns="http://www.w3.org/2000/svg">
<g clip-path="url(#clip0_37_335)">
<path opacity="0.944" fill-rule="evenodd" clip-rule="evenodd" d="M15.8555 -0.0351562C16.0664 -0.0351562 16.2773 -0.0351562 16.4883 -0.0351562C17.8902 1.33156 19.2848 2.71438 20.6719 4.11328C22.059 2.71438 23.4536 1.33156 24.8555 -0.0351562C25.0664 -0.0351562 25.2773 -0.0351562 25.4883 -0.0351562C27.1235 1.50619 28.7407 3.0765 30.3398 4.67578C30.5665 4.98186 30.6017 5.30999 30.4453 5.66016C28.7696 7.33591 27.0937 9.01174 25.418 10.6875C28.5938 13.8633 31.7695 17.039 34.9453 20.2148C35.115 20.5973 35.0681 20.9489 34.8047 21.2695C29.9883 26.0859 25.1719 30.9023 20.3555 35.7188C20.1999 35.8324 20.0358 35.9144 19.8633 35.9648C19.8164 35.9648 19.7696 35.9648 19.7227 35.9648C19.5898 35.907 19.4492 35.8485 19.3008 35.7891C17.9756 34.4521 16.6397 33.1279 15.293 31.8164C13.8833 33.2026 12.4771 34.5855 11.0742 35.9648C10.8399 35.9648 10.6054 35.9648 10.3711 35.9648C8.78168 34.4106 7.19965 32.8403 5.625 31.2539C5.33327 30.8964 5.30984 30.5215 5.55469 30.1289C7.19628 28.4991 8.82521 26.8584 10.4414 25.207C7.34864 22.0791 4.24315 18.9619 1.125 15.8555C0.796874 15.4336 0.796874 15.0117 1.125 14.5898C6.00627 9.67338 10.9164 4.79837 15.8555 -0.0351562ZM16.1367 1.86328C17.2837 2.96337 18.4087 4.08837 19.5117 5.23828C16.6055 8.19141 13.6758 11.1211 10.7227 14.0273C9.5869 12.9267 8.4619 11.8135 7.34766 10.6875C10.2915 7.7554 13.2212 4.81397 16.1367 1.86328ZM25.1367 1.86328C26.3284 2.93775 27.4769 4.06275 28.582 5.23828C25.6533 8.20216 22.7119 11.1553 19.7578 14.0977C18.6211 12.9609 17.4844 11.8242 16.3477 10.6875C19.2915 7.7554 22.2212 4.81397 25.1367 1.86328ZM6.15235 11.8477C9.11475 14.7749 12.0679 17.7163 15.0117 20.6719C13.8975 21.7979 12.7725 22.9111 11.6367 24.0117C8.6836 21.1055 5.75391 18.1758 2.84766 15.2227C3.19817 14.837 3.56144 14.4619 3.9375 14.0977C5.84766 16.0078 7.75779 17.9179 9.66797 19.8281C10.0626 20.1531 10.4493 20.1414 10.8281 19.793C11.026 19.4761 11.0494 19.148 10.8984 18.8086C8.97659 16.8867 7.05467 14.9648 5.13281 13.043C5.08594 12.9961 5.08594 12.9492 5.13281 12.9023C5.48694 12.56 5.82678 12.2084 6.15235 11.8477ZM15.1523 11.8477C18.1709 14.749 21.1474 17.7021 24.082 20.707C22.9814 21.8428 21.8682 22.9678 20.7422 24.082C17.7773 21.1172 14.8125 18.1524 11.8477 15.1875C12.9634 14.0835 14.065 12.9702 15.1523 11.8477ZM24.2227 11.8477C27.2178 14.7255 30.1709 17.6552 33.082 20.6367C31.9804 21.7851 30.8554 22.9101 29.707 24.0117C26.7539 21.1055 23.8242 18.1758 20.918 15.2227C21.248 14.8094 21.6231 14.4696 22.043 14.2031C23.9648 16.125 25.8867 18.0469 27.8086 19.9688C28.4989 20.3031 28.9443 20.1039 29.1445 19.3711C29.1244 19.1345 29.0423 18.9236 28.8984 18.7383C27 16.8398 25.1016 14.9414 23.2031 13.043C23.1562 12.9961 23.1562 12.9492 23.2031 12.9023C23.5573 12.56 23.8971 12.2084 24.2227 11.8477ZM16.0664 21.832C17.2674 22.9274 18.4393 24.0642 19.582 25.2422C16.6407 28.1836 13.6992 31.125 10.7578 34.0664C9.60842 32.9287 8.47167 31.7803 7.34766 30.6211C10.2554 27.6899 13.1617 24.7603 16.0664 21.832ZM25.207 21.832C26.3413 22.9312 27.4663 24.0444 28.582 25.1719C25.6406 28.1133 22.6992 31.0547 19.7578 33.9961C18.6446 32.8828 17.5312 31.7695 16.418 30.6562C19.3618 27.7241 22.2915 24.7827 25.207 21.832Z" fill="#C7844F"/>
<path opacity="0.893" fill-rule="evenodd" clip-rule="evenodd" d="M11.6367 20.0742C12.3976 20.0734 12.714 20.4484 12.5859 21.1992C12.3305 21.6377 11.9673 21.7666 11.4961 21.5859C11.1017 21.3555 10.9728 21.0157 11.1094 20.5664C11.2319 20.3382 11.4076 20.1741 11.6367 20.0742Z" fill="#C7844F"/>
<path opacity="0.904" fill-rule="evenodd" clip-rule="evenodd" d="M29.6367 20.2148C30.5285 20.1568 30.8684 20.5552 30.6562 21.4101C30.2986 21.805 29.8885 21.8636 29.4258 21.5859C29.3413 21.5224 29.2827 21.4404 29.25 21.3398C29.1105 20.8589 29.2394 20.4839 29.6367 20.2148Z" fill="#C7844F"/>
</g>
<defs>
<clipPath id="clip0_37_335">
<rect width="36" height="36" fill="white"/>
</clipPath>
</defs>
</svg>
