<svg width="40" height="40" viewBox="0 0 40 40" fill="none" xmlns="http://www.w3.org/2000/svg">
<path opacity="0.96" fill-rule="evenodd" clip-rule="evenodd" d="M14.8438 0C22.9427 0 31.0416 0 39.1406 0C39.5052 0.208334 39.7916 0.494791 40 0.859375C40 5.54688 40 10.2344 40 14.9219C39.6223 15.3348 39.2446 15.3348 38.8672 14.9219C38.8412 10.4166 38.8151 5.91146 38.7891 1.40625C38.75 1.3151 38.6849 1.25 38.5938 1.21094C30.8334 1.15885 23.0729 1.15885 15.3125 1.21094C15.1574 3.10714 15.1054 5.0212 15.1562 6.95312C17.4741 6.94011 19.7918 6.95312 22.1094 6.99219C22.4307 7.26636 22.4958 7.59188 22.3047 7.96875C22.2132 8.07758 22.096 8.14273 21.9531 8.16406C17.3698 8.20312 12.7866 8.21617 8.20312 8.20312C8.20312 10.1041 8.20312 12.0052 8.20312 13.9062C13.8282 13.8932 19.4532 13.9062 25.0781 13.9453C25.5599 14.1146 25.8854 14.4401 26.0547 14.9219C26.0938 20.5468 26.1068 26.1718 26.0938 31.7969C27.9948 31.7969 29.8959 31.7969 31.7969 31.7969C31.7839 31.0673 31.7969 30.338 31.8359 29.6094C32.1937 29.0182 32.5844 28.9921 33.0078 29.5312C33.0599 30.3906 33.0599 31.25 33.0078 32.1094C32.8646 32.5651 32.5651 32.8646 32.1094 33.0078C30.1043 33.0469 28.0991 33.0599 26.0938 33.0469C26.1068 35.0262 26.0938 37.0054 26.0547 38.9844C25.9284 39.4877 25.6289 39.8262 25.1562 40C17.0573 40 8.95836 40 0.859375 40C0.494791 39.7916 0.208334 39.5052 0 39.1406C0 31.0416 0 22.9427 0 14.8438C0.17379 14.3711 0.512331 14.0716 1.01562 13.9453C2.99462 13.9062 4.97379 13.8932 6.95312 13.9062C6.94011 11.9009 6.95312 9.8957 6.99219 7.89062C7.13541 7.4349 7.4349 7.13541 7.89062 6.99219C9.8957 6.95312 11.9009 6.94011 13.9062 6.95312C13.8932 4.97379 13.9062 2.99462 13.9453 1.01562C14.0716 0.512331 14.3711 0.17379 14.8438 0ZM2.1875 15.2344C3.13748 15.1438 4.10102 15.1307 5.07812 15.1953C5.39062 15.5078 5.70312 15.8203 6.01562 16.1328C6.60259 16.4948 6.99321 16.3515 7.1875 15.7031C7.14101 15.519 7.06288 15.3498 6.95312 15.1953C7.91664 15.1432 8.88023 15.1432 9.84375 15.1953C10.1823 15.5338 10.5209 15.8724 10.8594 16.2109C11.5698 16.4637 11.8954 16.2162 11.8359 15.4688C11.7996 15.357 11.7345 15.2659 11.6406 15.1953C12.6041 15.1432 13.5677 15.1432 14.5312 15.1953C14.8438 15.5078 15.1562 15.8203 15.4688 16.1328C16.0557 16.4948 16.4463 16.3515 16.6406 15.7031C16.5941 15.519 16.516 15.3498 16.4062 15.1953C17.3698 15.1432 18.3334 15.1432 19.2969 15.1953C19.6354 15.5338 19.974 15.8724 20.3125 16.2109C21.023 16.4637 21.3485 16.2162 21.2891 15.4688C21.2527 15.357 21.1876 15.2659 21.0938 15.1953C22.3366 15.1309 23.5735 15.144 24.8047 15.2344C24.8568 16.4584 24.8568 17.6823 24.8047 18.9062C24.244 18.5095 23.8403 18.6267 23.5938 19.2578C23.6402 19.4758 23.7313 19.6711 23.8672 19.8438C24.1797 20.1562 24.4922 20.4688 24.8047 20.7812C24.8568 21.7448 24.8568 22.7084 24.8047 23.6719C24.2318 23.187 23.8281 23.3041 23.5938 24.0234C23.6328 24.1406 23.6719 24.2578 23.7109 24.375C24.0755 24.7396 24.4401 25.1041 24.8047 25.4688C24.8568 26.4323 24.8568 27.3959 24.8047 28.3594C24.4401 28.0469 24.0755 28.0469 23.7109 28.3594C23.5547 28.5938 23.5547 28.8281 23.7109 29.0625C24.0755 29.4271 24.4401 29.7916 24.8047 30.1562C24.8568 31.1459 24.8568 32.1354 24.8047 33.125C24.2318 32.6401 23.8281 32.7573 23.5938 33.4766C23.6328 33.5938 23.6719 33.7109 23.7109 33.8281C24.0755 34.1927 24.4401 34.5573 24.8047 34.9219C24.8568 35.8854 24.8568 36.849 24.8047 37.8125C24.4401 37.5 24.0755 37.5 23.7109 37.8125C23.5462 38.2042 23.6373 38.5297 23.9844 38.7891C22.9948 38.8412 22.0052 38.8412 21.0156 38.7891C20.651 38.4245 20.2865 38.0599 19.9219 37.6953C19.2114 37.4426 18.8859 37.69 18.9453 38.4375C19.0066 38.577 19.0977 38.6942 19.2188 38.7891C18.2552 38.8412 17.2916 38.8412 16.3281 38.7891C15.9635 38.4245 15.599 38.0599 15.2344 37.6953C14.4213 37.4163 14.0959 37.6898 14.2578 38.5156C14.349 38.6068 14.4401 38.6979 14.5312 38.7891C13.5416 38.8412 12.5521 38.8412 11.5625 38.7891C11.1979 38.4245 10.8334 38.0599 10.4688 37.6953C9.75828 37.4426 9.43273 37.69 9.49219 38.4375C9.55352 38.577 9.64461 38.6942 9.76562 38.7891C8.80211 38.8412 7.83854 38.8412 6.875 38.7891C6.51041 38.4245 6.14584 38.0599 5.78125 37.6953C5.2047 37.4238 4.84011 37.593 4.6875 38.2031C4.73871 38.4499 4.86891 38.6452 5.07812 38.7891C3.85416 38.8412 2.63021 38.8412 1.40625 38.7891C1.34312 38.765 1.29104 38.7259 1.25 38.6719C1.16006 37.4253 1.14705 36.1753 1.21094 34.9219C1.52966 35.3433 1.89424 35.3953 2.30469 35.0781C2.46094 34.7916 2.46094 34.5052 2.30469 34.2188C1.9401 33.8541 1.57552 33.4896 1.21094 33.125C1.15885 32.1615 1.15885 31.1979 1.21094 30.2344C1.60156 30.651 1.99219 30.651 2.38281 30.2344C2.44454 29.9895 2.4185 29.7552 2.30469 29.5312C1.9401 29.1666 1.57552 28.8021 1.21094 28.4375C1.15885 27.4479 1.15885 26.4584 1.21094 25.4688C1.52966 25.8902 1.89424 25.9422 2.30469 25.625C2.46094 25.3385 2.46094 25.0521 2.30469 24.7656C1.9401 24.401 1.57552 24.0365 1.21094 23.6719C1.15885 22.7084 1.15885 21.7448 1.21094 20.7812C1.60747 21.1919 1.99809 21.1919 2.38281 20.7812C2.44454 20.5364 2.4185 20.302 2.30469 20.0781C1.9401 19.7135 1.57552 19.349 1.21094 18.9844C1.15885 17.9948 1.15885 17.0052 1.21094 16.0156C1.60747 16.4263 1.99809 16.4263 2.38281 16.0156C2.47161 15.706 2.40651 15.4456 2.1875 15.2344Z" fill="white"/>
<path opacity="0.945" fill-rule="evenodd" clip-rule="evenodd" d="M39.9998 16.875C39.9998 19.6354 39.9998 22.3959 39.9998 25.1563C39.826 25.6289 39.4875 25.9284 38.9842 26.0547C37.0052 26.0938 35.0261 26.1068 33.0467 26.0938C33.0597 26.5632 33.0466 27.032 33.0076 27.5C32.7405 27.8323 32.4149 27.8974 32.0311 27.6953C31.9372 27.6248 31.8721 27.5337 31.8358 27.4219C31.8097 21.0416 31.7837 14.6615 31.7576 8.28125C29.2502 8.21649 26.7372 8.17742 24.2186 8.16406C23.7812 7.95352 23.664 7.62799 23.867 7.1875C23.9376 7.09364 24.0287 7.02853 24.1405 6.99219C26.7707 6.9401 29.4008 6.9401 32.0311 6.99219C32.5129 7.16146 32.8383 7.48698 33.0076 7.96875C33.0467 13.5937 33.0597 19.2187 33.0467 24.8438C34.9484 24.8698 36.8495 24.8438 38.7498 24.7656C38.8144 22.1387 38.8534 19.5084 38.867 16.875C39.2443 16.4634 39.6219 16.4634 39.9998 16.875Z" fill="white"/>
<path opacity="0.899" fill-rule="evenodd" clip-rule="evenodd" d="M3.90649 16.3279C4.63137 16.2401 4.90481 16.5526 4.72681 17.2654C4.27108 17.7211 3.81534 18.1769 3.35962 18.6326C2.53931 18.8539 2.23983 18.5545 2.46118 17.7342C2.93477 17.2475 3.41654 16.7787 3.90649 16.3279Z" fill="white"/>
<path opacity="0.903" fill-rule="evenodd" clip-rule="evenodd" d="M8.59357 16.3279C9.4449 16.2861 9.69225 16.6507 9.33576 17.4217C8.90053 17.9093 8.41873 18.339 7.89045 18.7108C7.24922 18.7461 7.00182 18.4466 7.14826 17.8123C7.64587 17.3278 8.12764 16.833 8.59357 16.3279Z" fill="white"/>
<path opacity="0.898" fill-rule="evenodd" clip-rule="evenodd" d="M13.3596 16.3279C14.0845 16.2401 14.3579 16.5526 14.1799 17.2654C13.7242 17.7211 13.2684 18.1769 12.8127 18.6326C11.9924 18.8539 11.693 18.5545 11.9143 17.7342C12.3879 17.2475 12.8697 16.7787 13.3596 16.3279Z" fill="white"/>
<path opacity="0.879" fill-rule="evenodd" clip-rule="evenodd" d="M18.0467 16.3279C18.898 16.2861 19.1454 16.6507 18.7889 17.4217C18.3537 17.9093 17.8719 18.339 17.3436 18.7108C16.7023 18.7461 16.4549 18.4466 16.6014 17.8123C17.0466 17.2761 17.5284 16.7813 18.0467 16.3279Z" fill="white"/>
<path opacity="0.899" fill-rule="evenodd" clip-rule="evenodd" d="M22.7346 16.3279C23.5667 16.2224 23.8402 16.5609 23.5549 17.3435C23.1252 17.7732 22.6955 18.2029 22.2659 18.6326C21.4455 18.8539 21.1461 18.5545 21.3674 17.7341C21.839 17.2756 22.2948 16.8069 22.7346 16.3279Z" fill="white"/>
<path opacity="0.895" fill-rule="evenodd" clip-rule="evenodd" d="M5.07826 18.6717C5.32429 18.6492 5.55866 18.6882 5.78138 18.7889C6.18503 19.1926 6.58867 19.5962 6.99232 19.9999C7.34946 20.7777 7.10206 21.1292 6.25013 21.0545C5.76836 20.5727 5.28659 20.091 4.80482 19.6092C4.66634 19.2303 4.75749 18.9178 5.07826 18.6717Z" fill="white"/>
<path opacity="0.898" fill-rule="evenodd" clip-rule="evenodd" d="M9.76566 18.6717C10.0117 18.6492 10.2461 18.6882 10.4688 18.7889C10.8985 19.2186 11.3282 19.6483 11.7578 20.078C11.96 20.4618 11.8948 20.7874 11.5625 21.0545C11.3177 21.1163 11.0833 21.0902 10.8594 20.9764C10.4297 20.5467 10 20.117 9.57035 19.6874C9.38332 19.2988 9.44847 18.9603 9.76566 18.6717Z" fill="white"/>
<path opacity="0.896" fill-rule="evenodd" clip-rule="evenodd" d="M14.5314 18.672C14.8219 18.6331 15.0824 18.6983 15.3127 18.8674C15.6902 19.2449 16.0679 19.6226 16.4455 20.0002C16.8026 20.778 16.5552 21.1295 15.7033 21.0549C15.2215 20.5731 14.7398 20.0913 14.258 19.6095C14.1194 19.2306 14.2106 18.9181 14.5314 18.672Z" fill="white"/>
<path opacity="0.9" fill-rule="evenodd" clip-rule="evenodd" d="M19.2188 18.6717C19.4648 18.6492 19.6992 18.6882 19.9219 18.7889C20.3516 19.2186 20.7813 19.6483 21.211 20.078C21.4897 20.6482 21.3204 20.9867 20.7032 21.0936C20.5626 21.0876 20.4324 21.0485 20.3125 20.9764C19.8828 20.5467 19.4532 20.117 19.0235 19.6874C18.8364 19.2988 18.9016 18.9603 19.2188 18.6717Z" fill="white"/>
<path opacity="0.903" fill-rule="evenodd" clip-rule="evenodd" d="M3.98423 21.0156C4.73486 21.0512 4.95622 21.4158 4.64829 22.1094C4.21616 22.5677 3.76043 22.9973 3.28111 23.3984C2.53822 23.5152 2.26479 23.2157 2.46079 22.5C2.96042 21.9873 3.46823 21.4924 3.98423 21.0156Z" fill="white"/>
<path opacity="0.896" fill-rule="evenodd" clip-rule="evenodd" d="M8.6721 21.0155C9.41686 20.9953 9.66421 21.3338 9.41428 22.0311C8.9846 22.4608 8.55491 22.8905 8.12522 23.3202C7.25282 23.5936 6.95335 23.2942 7.22678 22.4218C7.70037 21.935 8.18218 21.4663 8.6721 21.0155Z" fill="white"/>
<path opacity="0.879" fill-rule="evenodd" clip-rule="evenodd" d="M13.4373 21.0156C14.0776 21.0179 14.325 21.3304 14.1795 21.9531C13.7498 22.487 13.268 22.9688 12.7342 23.3984C11.8818 23.4783 11.6345 23.1267 11.992 22.3438C12.4422 21.854 12.9239 21.4112 13.4373 21.0156Z" fill="white"/>
<path opacity="0.897" fill-rule="evenodd" clip-rule="evenodd" d="M18.1252 21.0155C18.87 20.9953 19.1173 21.3338 18.8674 22.0311C18.4377 22.4608 18.008 22.8905 17.5784 23.3202C16.7059 23.5936 16.4065 23.2942 16.6799 22.4218C17.1535 21.935 17.6353 21.4663 18.1252 21.0155Z" fill="white"/>
<path opacity="0.879" fill-rule="evenodd" clip-rule="evenodd" d="M22.8904 21.0156C23.5307 21.0179 23.7781 21.3304 23.6326 21.9531C23.2029 22.487 22.7211 22.9688 22.1873 23.3984C21.3349 23.4783 21.0876 23.1267 21.4451 22.3438C21.8953 21.854 22.377 21.4112 22.8904 21.0156Z" fill="white"/>
<path opacity="0.897" fill-rule="evenodd" clip-rule="evenodd" d="M5.23453 23.3594C5.3958 23.374 5.55205 23.413 5.70328 23.4766C6.159 23.9323 6.61474 24.388 7.07046 24.8438C7.27821 25.3658 7.10895 25.7043 6.56265 25.8594C6.43647 25.8083 6.30626 25.7692 6.17203 25.7422C5.7163 25.2865 5.26056 24.8307 4.80484 24.375C4.62213 23.8937 4.76537 23.5552 5.23453 23.3594Z" fill="white"/>
<path opacity="0.895" fill-rule="evenodd" clip-rule="evenodd" d="M9.92191 23.3595C10.1504 23.3564 10.3587 23.4214 10.5469 23.5548C10.9506 23.9585 11.3542 24.3621 11.7578 24.7657C12.0368 25.5788 11.7634 25.9042 10.9375 25.7423C10.4557 25.2605 9.97402 24.7788 9.49222 24.297C9.36667 23.8455 9.50995 23.533 9.92191 23.3595Z" fill="white"/>
<path opacity="0.895" fill-rule="evenodd" clip-rule="evenodd" d="M14.6094 23.3594C14.799 23.3612 14.9813 23.4002 15.1563 23.4766C15.612 23.9323 16.0678 24.388 16.5235 24.8438C16.7195 25.3617 16.5502 25.7003 16.0157 25.8594C15.8895 25.8083 15.7593 25.7692 15.625 25.7422C15.1693 25.2865 14.7135 24.8307 14.2578 24.375C14.0875 23.9357 14.2046 23.5972 14.6094 23.3594Z" fill="white"/>
<path opacity="0.896" fill-rule="evenodd" clip-rule="evenodd" d="M19.375 23.3595C19.6035 23.3564 19.8118 23.4214 20 23.5548C20.3776 23.9324 20.7553 24.31 21.1328 24.6876C21.4949 25.2703 21.3517 25.661 20.7032 25.8595C20.602 25.8128 20.4978 25.7737 20.3907 25.7423C19.9089 25.2605 19.4271 24.7788 18.9453 24.297C18.8198 23.8455 18.9631 23.533 19.375 23.3595Z" fill="white"/>
<path opacity="0.9" fill-rule="evenodd" clip-rule="evenodd" d="M3.82816 25.7813C4.59613 25.6507 4.89561 25.9632 4.7266 26.7188C4.27087 27.1745 3.81514 27.6303 3.35941 28.086C2.68183 28.3007 2.35631 28.0532 2.38285 27.3438C2.85197 26.8097 3.33373 26.2888 3.82816 25.7813Z" fill="white"/>
<path opacity="0.879" fill-rule="evenodd" clip-rule="evenodd" d="M8.59357 25.7811C9.4449 25.7392 9.69225 26.1038 9.33576 26.8748C8.90053 27.3625 8.41873 27.7922 7.89045 28.1639C7.24922 28.1992 7.00182 27.8997 7.14826 27.2654C7.59345 26.7292 8.07522 26.2344 8.59357 25.7811Z" fill="white"/>
<path opacity="0.897" fill-rule="evenodd" clip-rule="evenodd" d="M13.2815 25.7813C14.0495 25.6507 14.3489 25.9632 14.1799 26.7188C13.7242 27.1745 13.2684 27.6303 12.8127 28.086C11.9924 28.3073 11.693 28.0079 11.9143 27.1875C12.3859 26.729 12.8416 26.2603 13.2815 25.7813Z" fill="white"/>
<path opacity="0.879" fill-rule="evenodd" clip-rule="evenodd" d="M18.0467 25.7811C18.898 25.7392 19.1454 26.1038 18.7889 26.8748C18.3537 27.3625 17.8719 27.7922 17.3436 28.1639C16.7023 28.1992 16.4549 27.8997 16.6014 27.2654C17.0466 26.7292 17.5284 26.2344 18.0467 25.7811Z" fill="white"/>
<path opacity="0.898" fill-rule="evenodd" clip-rule="evenodd" d="M22.7346 25.781C23.5667 25.6755 23.8402 26.014 23.5549 26.7966C23.1252 27.2263 22.6955 27.656 22.2659 28.0857C21.4455 28.307 21.1461 28.0076 21.3674 27.1873C21.839 26.7288 22.2948 26.26 22.7346 25.781Z" fill="white"/>
<path opacity="0.895" fill-rule="evenodd" clip-rule="evenodd" d="M5.07826 28.1249C5.32429 28.1023 5.55866 28.1413 5.78138 28.242C6.18503 28.6457 6.58867 29.0493 6.99232 29.453C7.34946 30.2308 7.10206 30.5824 6.25013 30.5077C5.76836 30.0259 5.28659 29.5442 4.80482 29.0624C4.66634 28.6834 4.75749 28.3709 5.07826 28.1249Z" fill="white"/>
<path opacity="0.9" fill-rule="evenodd" clip-rule="evenodd" d="M9.76566 28.1249C10.0117 28.1023 10.2461 28.1413 10.4688 28.242C10.8985 28.6717 11.3282 29.1014 11.7578 29.5311C12.0366 30.1013 11.8673 30.4399 11.25 30.5467C11.1095 30.5407 10.9793 30.5017 10.8594 30.4295C10.4297 29.9999 10 29.5702 9.57035 29.1405C9.38332 28.752 9.44847 28.4134 9.76566 28.1249Z" fill="white"/>
<path opacity="0.897" fill-rule="evenodd" clip-rule="evenodd" d="M14.5314 28.1249C14.7774 28.1023 15.0118 28.1413 15.2345 28.242C15.6382 28.6457 16.0418 29.0493 16.4455 29.453C16.7099 29.7888 16.6969 30.1143 16.4064 30.4295C16.1825 30.5434 15.9481 30.5694 15.7033 30.5077C15.2215 30.0259 14.7398 29.5442 14.258 29.0624C14.1194 28.6834 14.2106 28.3709 14.5314 28.1249Z" fill="white"/>
<path opacity="0.898" fill-rule="evenodd" clip-rule="evenodd" d="M19.2186 28.1249C19.4646 28.1023 19.699 28.1413 19.9217 28.242C20.3514 28.6717 20.7811 29.1014 21.2108 29.5311C21.4895 30.1013 21.3202 30.4399 20.703 30.5467C20.5624 30.5407 20.4322 30.5017 20.3124 30.4295C19.8827 29.9999 19.453 29.5702 19.0233 29.1405C18.8247 28.745 18.8899 28.4065 19.2186 28.1249Z" fill="white"/>
<path opacity="0.879" fill-rule="evenodd" clip-rule="evenodd" d="M3.98416 30.4688C4.62452 30.471 4.87191 30.7835 4.72635 31.4062C4.29666 31.9401 3.81489 32.4219 3.28104 32.8516C2.42872 32.9314 2.18133 32.5798 2.53885 31.7969C2.98907 31.3071 3.47084 30.8644 3.98416 30.4688Z" fill="white"/>
<path opacity="0.897" fill-rule="evenodd" clip-rule="evenodd" d="M8.6721 30.4686C9.41686 30.4484 9.66421 30.7869 9.41428 31.4843C8.9846 31.9139 8.55491 32.3436 8.12522 32.7733C7.25282 33.0468 6.95335 32.7473 7.22678 31.8749C7.70037 31.3882 8.18218 30.9194 8.6721 30.4686Z" fill="white"/>
<path opacity="0.879" fill-rule="evenodd" clip-rule="evenodd" d="M13.4373 30.4688C14.0776 30.471 14.325 30.7835 14.1795 31.4062C13.7498 31.9401 13.268 32.4219 12.7342 32.8516C11.8818 32.9314 11.6345 32.5798 11.992 31.7969C12.4422 31.3071 12.9239 30.8644 13.4373 30.4688Z" fill="white"/>
<path opacity="0.895" fill-rule="evenodd" clip-rule="evenodd" d="M18.125 30.4686C18.8698 30.4484 19.1171 30.7869 18.8672 31.4843C18.4375 31.9139 18.0078 32.3436 17.5781 32.7733C16.7828 33.0593 16.4574 32.7858 16.6016 31.953C17.1012 31.4403 17.609 30.9454 18.125 30.4686Z" fill="white"/>
<path opacity="0.903" fill-rule="evenodd" clip-rule="evenodd" d="M22.8904 30.4688C23.5307 30.471 23.7781 30.7835 23.6326 31.4062C23.1508 31.888 22.6691 32.3698 22.1873 32.8516C21.3349 32.9314 21.0876 32.5798 21.4451 31.7969C21.8953 31.3071 22.377 30.8644 22.8904 30.4688Z" fill="white"/>
<path opacity="0.898" fill-rule="evenodd" clip-rule="evenodd" d="M5.15601 32.8125C5.3456 32.8143 5.52789 32.8534 5.70289 32.9297C6.15861 33.3854 6.61435 33.8412 7.07007 34.2969C7.27862 34.8432 7.09633 35.1818 6.5232 35.3125C6.38132 35.2477 6.23809 35.1826 6.09351 35.1172C5.66382 34.6875 5.23414 34.2578 4.80445 33.8281C4.63371 33.3898 4.7509 33.0512 5.15601 32.8125Z" fill="white"/>
<path opacity="0.895" fill-rule="evenodd" clip-rule="evenodd" d="M9.92191 32.8126C10.1504 32.8095 10.3587 32.8746 10.5469 33.0079C10.9506 33.4116 11.3542 33.8152 11.7578 34.2189C12.0368 35.0319 11.7634 35.3574 10.9375 35.1954C10.4557 34.7136 9.97402 34.2319 9.49222 33.7501C9.36667 33.2986 9.50995 32.9861 9.92191 32.8126Z" fill="white"/>
<path opacity="0.897" fill-rule="evenodd" clip-rule="evenodd" d="M14.6094 32.8125C14.799 32.8143 14.9813 32.8534 15.1563 32.9297C15.612 33.3854 16.0678 33.8412 16.5235 34.2969C16.724 34.8408 16.5418 35.1794 15.9766 35.3125C15.8673 35.2557 15.7501 35.2166 15.625 35.1953C15.1693 34.7396 14.7135 34.2838 14.2578 33.8281C14.0875 33.3888 14.2046 33.0503 14.6094 32.8125Z" fill="white"/>
<path opacity="0.895" fill-rule="evenodd" clip-rule="evenodd" d="M19.375 32.8126C19.6035 32.8095 19.8118 32.8746 20 33.0079C20.4037 33.4116 20.8073 33.8152 21.211 34.2189C21.49 35.0319 21.2165 35.3574 20.3907 35.1954C19.9089 34.7136 19.4271 34.2319 18.9453 33.7501C18.8198 33.2986 18.9631 32.9861 19.375 32.8126Z" fill="white"/>
<path opacity="0.9" fill-rule="evenodd" clip-rule="evenodd" d="M3.82816 35.2344C4.59613 35.1039 4.89561 35.4164 4.7266 36.1719C4.27087 36.6276 3.81514 37.0834 3.35941 37.5391C2.68183 37.7538 2.35631 37.5064 2.38285 36.7969C2.85197 36.2628 3.33373 35.7419 3.82816 35.2344Z" fill="white"/>
<path opacity="0.878" fill-rule="evenodd" clip-rule="evenodd" d="M8.59357 35.2342C9.4449 35.1923 9.69225 35.5569 9.33576 36.3279C8.90053 36.8156 8.41873 37.2453 7.89045 37.617C7.24922 37.6523 7.00182 37.3529 7.14826 36.7186C7.59345 36.1823 8.07522 35.6876 8.59357 35.2342Z" fill="white"/>
<path opacity="0.901" fill-rule="evenodd" clip-rule="evenodd" d="M13.2813 35.2344C14.0071 35.0939 14.3066 35.3803 14.1797 36.0937C13.7525 36.5991 13.2968 37.0809 12.8125 37.5391C12.135 37.7537 11.8094 37.5063 11.836 36.7969C12.3051 36.2627 12.7868 35.7419 13.2813 35.2344Z" fill="white"/>
<path opacity="0.901" fill-rule="evenodd" clip-rule="evenodd" d="M18.047 35.2346C18.6809 35.1268 18.9804 35.3872 18.9455 36.0158C18.4923 36.5472 18.0105 37.0551 17.5002 37.5393C16.7845 37.7353 16.4849 37.4618 16.6017 36.719C17.0469 36.1827 17.5287 35.6879 18.047 35.2346Z" fill="white"/>
<path opacity="0.9" fill-rule="evenodd" clip-rule="evenodd" d="M22.7343 35.2341C23.5664 35.1286 23.8398 35.4671 23.5546 36.2498C23.1249 36.6795 22.6952 37.1091 22.2655 37.5388C21.4439 37.7589 21.1445 37.4594 21.3671 36.6404C21.8387 36.1819 22.2945 35.7131 22.7343 35.2341Z" fill="white"/>
</svg>
