<svg width="14" height="13" viewBox="0 0 14 13" fill="none" xmlns="http://www.w3.org/2000/svg">
<path d="M7.42969 0.921875L8.92969 4.01562L12.3047 4.53125C12.6016 4.57812 12.8047 4.74219 12.9141 5.02344C12.9922 5.32031 12.9297 5.57812 12.7266 5.79688L10.2891 8.21094L10.8516 11.6328C10.8984 11.9297 10.7969 12.1719 10.5469 12.3594C10.2969 12.5312 10.0391 12.5469 9.77344 12.4062L6.75 10.8125L3.75 12.4062C3.46875 12.5469 3.20312 12.5312 2.95312 12.3594C2.71875 12.1719 2.61719 11.9297 2.64844 11.6328L3.23438 8.21094L0.796875 5.79688C0.578125 5.57812 0.515625 5.32031 0.609375 5.02344C0.703125 4.74219 0.898438 4.57812 1.19531 4.53125L4.57031 4.01562L6.07031 0.921875C6.22656 0.65625 6.45312 0.515625 6.75 0.5C7.0625 0.515625 7.28906 0.65625 7.42969 0.921875Z" fill="#C7844F"/>
</svg>
