<svg width="22" height="21" viewBox="0 0 22 21" fill="none" xmlns="http://www.w3.org/2000/svg">
<path d="M14.8828 6.39844L20.4688 7.21875C20.9375 7.29688 21.3281 7.60938 21.4844 8.07812C21.6406 8.50781 21.5234 9.01562 21.1719 9.32812L17.1094 13.3516L18.0859 19.0547C18.1641 19.5234 17.9688 19.9922 17.5781 20.2656C17.1875 20.5781 16.6797 20.5781 16.25 20.3828L11.25 17.6875L6.21094 20.3828C5.82031 20.5781 5.27344 20.5781 4.92188 20.2656C4.53125 19.9922 4.33594 19.5234 4.41406 19.0547L5.35156 13.3516L1.28906 9.32812C0.9375 9.01562 0.820312 8.50781 0.976562 8.07812C1.13281 7.60938 1.52344 7.29688 1.99219 7.21875L7.61719 6.39844L10.1172 1.20312C10.3125 0.773438 10.7422 0.5 11.25 0.5C11.7188 0.5 12.1484 0.773438 12.3438 1.20312L14.8828 6.39844Z" fill="#E6E6E6"/>
</svg>
