<svg width="36" height="36" viewBox="0 0 36 36" fill="none" xmlns="http://www.w3.org/2000/svg">
<g clip-path="url(#clip0_423_508)">
<path opacity="0.945" fill-rule="evenodd" clip-rule="evenodd" d="M14.5898 -0.0351562C15.1054 -0.0351562 15.6211 -0.0351562 16.1367 -0.0351562C16.713 0.176015 17.3107 0.340078 17.9297 0.457031C18.5543 0.359771 19.1519 0.195709 19.7227 -0.0351562C20.2383 -0.0351562 20.7539 -0.0351562 21.2695 -0.0351562C22.4404 0.254699 23.3779 0.899234 24.082 1.89844C24.2227 1.99219 24.3633 2.08594 24.5039 2.17969C25.1171 2.42901 25.7499 2.6165 26.4023 2.74219C27.5156 3.19922 28.3008 3.98438 28.7578 5.09766C28.8835 5.75006 29.071 6.38288 29.3203 6.99609C29.7595 7.50586 30.2283 7.99805 30.7266 8.47266C31.437 9.46322 31.6948 10.5648 31.5 11.7773C31.2959 12.3615 31.1436 12.9592 31.043 13.5703C31.1664 14.1751 31.3188 14.7728 31.5 15.3633C31.6894 16.4799 31.4785 17.5112 30.8672 18.457C30.3967 18.9977 29.9045 19.5133 29.3906 20.0039C29.2969 20.1914 29.2031 20.3789 29.1094 20.5664C28.9956 21.8015 28.4918 22.8327 27.5977 23.6602C29.0448 26.2029 30.5096 28.7342 31.9922 31.2539C32.3308 31.6788 32.3191 32.0889 31.957 32.4844C31.8022 32.5562 31.6382 32.5914 31.4648 32.5898C30.1035 32.2876 28.7558 31.936 27.4219 31.5352C27.0149 32.8577 26.6399 34.1937 26.2969 35.543C26.2013 35.7204 26.0724 35.861 25.9102 35.9648C25.6992 35.9648 25.4883 35.9648 25.2773 35.9648C25.0438 35.7419 24.8446 35.484 24.6797 35.1914C23.174 32.5315 21.6506 29.883 20.1094 27.2461C19.6222 27.1212 19.1417 26.9689 18.668 26.7891C18.4255 26.7287 18.1794 26.6935 17.9297 26.6836C17.2098 26.8143 16.5066 27.0018 15.8203 27.2461C14.2791 29.883 12.7557 32.5315 11.25 35.1914C11.085 35.484 10.8859 35.7419 10.6523 35.9648C10.4414 35.9648 10.2305 35.9648 10.0195 35.9648C9.85732 35.861 9.72844 35.7204 9.63281 35.543C9.28976 34.1937 8.91478 32.8577 8.50781 31.5352C7.17391 31.936 5.82625 32.2876 4.46484 32.5898C3.98708 32.6045 3.72926 32.3701 3.69141 31.8867C5.17385 29.1212 6.72073 26.3907 8.33203 23.6953C7.4468 22.8975 6.94287 21.9014 6.82031 20.707C6.74587 20.4878 6.65212 20.2769 6.53906 20.0742C6.09208 19.557 5.62333 19.0648 5.13281 18.5977C4.47879 17.6691 4.22099 16.6378 4.35938 15.5039C4.54117 14.8651 4.69351 14.2206 4.81641 13.5703C4.71675 12.9137 4.5644 12.2692 4.35938 11.6367C4.22241 10.6341 4.40991 9.69659 4.92188 8.82422C5.46231 8.16687 6.02481 7.53405 6.60938 6.92578C6.81405 6.16632 7.04841 5.41631 7.3125 4.67578C8.13094 3.32171 9.33799 2.55999 10.9336 2.39062C11.1211 2.29688 11.3086 2.20312 11.4961 2.10938C11.9867 1.59543 12.5023 1.10325 13.043 0.632812C13.5323 0.333545 14.0479 0.110888 14.5898 -0.0351562ZM15.3633 1.37109C16.2045 1.60817 17.06 1.79566 17.9297 1.93359C18.803 1.81775 19.6585 1.63024 20.4961 1.37109C21.0938 1.41213 21.6328 1.61134 22.1133 1.96875C22.6147 2.63445 23.224 3.17351 23.9414 3.58594C24.6884 3.83522 25.4384 4.06959 26.1914 4.28906C26.625 4.53516 26.9648 4.875 27.2109 5.30859C27.4366 6.00537 27.6476 6.70849 27.8438 7.41797C28.027 7.76496 28.2379 8.09311 28.4766 8.40234C28.8493 8.70469 29.2009 9.03277 29.5312 9.38672C30.0162 10.0378 30.1803 10.7644 30.0234 11.5664C29.6406 12.4731 29.5234 13.4106 29.6719 14.3789C29.7749 14.7582 29.892 15.1332 30.0234 15.5039C30.189 16.329 30.0249 17.0789 29.5312 17.7539C28.966 18.2019 28.4738 18.7175 28.0547 19.3008C27.723 19.9944 27.4886 20.721 27.3516 21.4805C26.853 22.5328 26.021 23.1071 24.8555 23.2031C23.7443 23.5245 22.8537 24.1573 22.1836 25.1016C21.5423 25.6076 20.8157 25.7951 20.0039 25.6641C19.0546 25.2401 18.0702 25.1229 17.0508 25.3125C16.6523 25.4297 16.2539 25.5469 15.8555 25.6641C15.1474 25.7683 14.4911 25.6276 13.8867 25.2422C13.3202 24.6054 12.6874 24.0429 11.9883 23.5547C11.2477 23.2906 10.4977 23.0562 9.73828 22.8516C8.77402 22.2484 8.27016 21.3695 8.22656 20.2148C8.08973 19.7537 7.8788 19.3319 7.59375 18.9492C7.14466 18.5001 6.69932 18.0548 6.25781 17.6133C5.87233 17.0089 5.73171 16.3526 5.83594 15.6445C6.09401 14.9756 6.24634 14.2843 6.29297 13.5703C6.26828 12.8505 6.11594 12.1591 5.83594 11.4961C5.70487 10.6843 5.89238 9.95773 6.39844 9.31641C7.64487 8.41809 8.34799 7.1993 8.50781 5.66016C8.82422 4.96875 9.32815 4.46484 10.0195 4.14844C11.0073 4.02907 11.8979 3.67751 12.6914 3.09375C13.0984 2.65224 13.5203 2.23036 13.957 1.82812C14.4053 1.58096 14.874 1.42862 15.3633 1.37109ZM20.6367 10.9336C21.0639 11.2549 21.4623 11.6182 21.832 12.0234C20.2734 13.5821 18.7149 15.1406 17.1562 16.6992C16.1367 15.6797 15.1172 14.6602 14.0977 13.6406C14.4619 13.2646 14.837 12.9013 15.2227 12.5508C15.7021 12.9951 16.1709 13.4521 16.6289 13.9219C16.9805 14.1562 17.332 14.1562 17.6836 13.9219C18.6822 12.935 19.6665 11.939 20.6367 10.9336ZM9.59766 24.4336C10.2349 24.5164 10.8442 24.6922 11.4258 24.9609C11.943 25.4079 12.4352 25.8767 12.9023 26.3672C13.2796 26.6613 13.7015 26.8606 14.168 26.9648C14.1686 27.092 14.1334 27.2092 14.0625 27.3164C12.8963 29.2971 11.7479 31.2893 10.6172 33.293C10.3274 32.3923 10.0696 31.4782 9.84375 30.5508C9.68273 29.9955 9.31943 29.7963 8.75391 29.9531C7.84167 30.2221 6.92763 30.4566 6.01172 30.6562C7.23452 28.5974 8.42984 26.5231 9.59766 24.4336ZM26.1211 24.4336C26.214 24.4216 26.2961 24.4451 26.3672 24.5039C27.5241 26.5719 28.7078 28.6227 29.918 30.6562C29.0021 30.4566 28.088 30.2221 27.1758 29.9531C26.7265 29.8166 26.3867 29.9455 26.1562 30.3398C25.896 31.3345 25.6148 32.3189 25.3125 33.293C24.1818 31.2893 23.0334 29.2971 21.8672 27.3164C21.7962 27.2092 21.7611 27.092 21.7617 26.9648C22.2439 26.8175 22.6892 26.5949 23.0977 26.2969C23.475 25.9431 23.8266 25.5681 24.1523 25.1719C24.7584 24.7786 25.4147 24.5325 26.1211 24.4336Z" fill="white"/>
<path opacity="0.897" fill-rule="evenodd" clip-rule="evenodd" d="M17.7539 4.60539C18.4944 4.58422 18.7874 4.93579 18.6328 5.66008C18.4275 6.04854 18.1111 6.17745 17.6835 6.0468C17.2892 5.81639 17.1603 5.47654 17.2968 5.02727C17.4019 4.82944 17.5542 4.68882 17.7539 4.60539Z" fill="white"/>
<path opacity="0.941" fill-rule="evenodd" clip-rule="evenodd" d="M14.5196 5.23834C15.3905 5.15934 15.7069 5.53434 15.4688 6.36334C15.019 6.67641 14.5386 6.94594 14.0274 7.17193C11.6201 8.70383 10.3544 10.9069 10.2305 13.7813C10.5094 17.6923 12.525 20.2001 16.2774 21.3047C19.6733 21.8922 22.3803 20.8024 24.3985 18.0352C26.144 15.0693 26.0737 12.1396 24.1876 9.24615C23.2721 8.05006 22.1119 7.17116 20.7071 6.60943C20.2701 6.2081 20.2467 5.78623 20.6368 5.34381C21.0204 5.19623 21.3954 5.21967 21.7618 5.41412C25.2002 7.1431 27.0049 9.94386 27.1758 13.8165C26.9293 17.9401 24.9138 20.8112 21.129 22.4297C17.2747 23.6195 13.9348 22.7874 11.1094 19.9336C8.7198 17.0115 8.18079 13.7771 9.49225 10.2305C10.5075 7.89109 12.1833 6.22699 14.5196 5.23834ZM20.6368 10.9336C19.6666 11.939 18.6822 12.9351 17.6837 13.9219C17.3321 14.1563 16.9805 14.1563 16.629 13.9219C16.171 13.4522 15.7022 12.9951 15.2227 12.5508C14.8371 12.9013 14.462 13.2646 14.0977 13.6407C15.1173 14.6602 16.1368 15.6797 17.1563 16.6993C18.7149 15.1407 20.2735 13.5821 21.8321 12.0235C21.4624 11.6182 21.064 11.2549 20.6368 10.9336Z" fill="white"/>
<path opacity="0.943" fill-rule="evenodd" clip-rule="evenodd" d="M20.4259 9.10555C20.7045 9.07665 20.9623 9.13522 21.1993 9.28133C21.961 10.043 22.7228 10.8048 23.4845 11.5665C23.5902 11.8153 23.6136 12.0731 23.5548 12.3399C21.5997 14.3653 19.6192 16.3692 17.6134 18.3516C17.3645 18.4574 17.1068 18.4808 16.8399 18.422C15.3537 17.006 13.8888 15.5646 12.4454 14.0977C12.3396 13.8489 12.3162 13.5911 12.3751 13.3243C13.1861 12.3961 14.065 11.5407 15.0118 10.7579C15.2322 10.7023 15.4431 10.7258 15.6446 10.8282C16.1485 11.3321 16.6524 11.836 17.1563 12.3399C18.2388 11.2457 19.3286 10.1675 20.4259 9.10555ZM20.6368 10.9337C19.6666 11.9391 18.6823 12.9351 17.6837 13.922C17.3321 14.1563 16.9805 14.1563 16.629 13.922C16.171 13.4522 15.7022 12.9952 15.2227 12.5509C14.8371 12.9014 14.462 13.2647 14.0977 13.6407C15.1173 14.6602 16.1368 15.6798 17.1563 16.6993C18.7149 15.1407 20.2735 13.5821 21.8321 12.0235C21.4624 11.6182 21.064 11.2549 20.6368 10.9337Z" fill="white"/>
</g>
<defs>
<clipPath id="clip0_423_508">
<rect width="36" height="36" fill="white"/>
</clipPath>
</defs>
</svg>
