<svg width="50" height="50" viewBox="0 0 50 50" fill="none" xmlns="http://www.w3.org/2000/svg">
<g clip-path="url(#clip0_72_38)">
<path opacity="0.942" fill-rule="evenodd" clip-rule="evenodd" d="M40.8691 -0.0488281C41.3574 -0.0488281 41.8457 -0.0488281 42.334 -0.0488281C42.9014 0.175889 43.3733 0.533962 43.75 1.02539C45.8216 5.16848 47.8886 9.30259 49.9512 13.4277C49.9512 13.8835 49.9512 14.3392 49.9512 14.7949C49.6915 15.5922 49.1707 16.1618 48.3887 16.5039C46.9947 16.6436 45.5949 16.6924 44.1894 16.6504C44.1732 17.2697 44.1894 17.8882 44.2383 18.5059C44.5408 18.743 44.7686 19.0359 44.9219 19.3848C44.987 22.2819 44.987 25.179 44.9219 28.0762C44.3522 29.5992 43.2454 30.2503 41.6016 30.0293C39.9109 30.2547 38.8042 29.5711 38.2812 27.9785C38.2161 25.179 38.2161 22.3796 38.2812 19.5801C38.3807 19.12 38.6248 18.7619 39.0137 18.5059C39.1109 17.8908 39.1435 17.2723 39.1113 16.6504C37.8089 16.6667 36.5067 16.6504 35.2051 16.6016C33.6963 16.1315 33.0615 15.1062 33.3008 13.5254C35.2659 9.39979 37.2842 5.29823 39.3555 1.2207C39.7333 0.63006 40.2378 0.206883 40.8691 -0.0488281ZM41.3574 1.70898C41.707 1.65262 42 1.75027 42.2363 2.00195C44.2058 5.94075 46.1751 9.87959 48.1445 13.8184C48.2774 14.2846 48.1309 14.6264 47.7051 14.8438C46.5337 14.8926 45.3618 14.9089 44.1894 14.8926C44.2057 13.948 44.1894 13.004 44.1406 12.0605C43.6289 10.2986 42.4733 9.63135 40.6738 10.0586C39.8932 10.3834 39.3888 10.953 39.1601 11.7676C39.1113 12.8087 39.095 13.8504 39.1113 14.8926C37.9064 14.9089 36.702 14.8926 35.498 14.8438C35.0722 14.6264 34.9257 14.2846 35.0586 13.8184C37.0117 9.91211 38.9648 6.00586 40.918 2.09961C41.0544 1.94626 41.2009 1.81605 41.3574 1.70898ZM41.3574 11.6699C41.8903 11.6186 42.2321 11.8464 42.3828 12.3535C42.4316 14.3063 42.4479 16.2595 42.4316 18.2129C41.9108 18.2129 41.3899 18.2129 40.8691 18.2129C40.8528 16.1944 40.8691 14.1762 40.918 12.1582C41.0181 11.9446 41.1645 11.7818 41.3574 11.6699ZM39.9902 19.9707C41.0644 19.9707 42.1387 19.9707 43.2129 19.9707C43.2292 22.5751 43.2129 25.1792 43.1641 27.7832C42.7384 28.2141 42.2175 28.3768 41.6016 28.2715C41.1862 28.2771 40.7793 28.2283 40.3808 28.125C40.2296 28.0064 40.1157 27.86 40.0391 27.6855C39.9902 25.1142 39.9739 22.5425 39.9902 19.9707Z" fill="#C7844F"/>
<path opacity="0.949" fill-rule="evenodd" clip-rule="evenodd" d="M44.873 49.9512C40.511 49.9512 36.1491 49.9512 31.7871 49.9512C31.4308 49.797 31.089 49.6017 30.7617 49.3652C30.4841 49.6253 30.1749 49.8206 29.834 49.9512C25.472 49.9512 21.1101 49.9512 16.748 49.9512C16.4387 49.8044 16.1294 49.6417 15.8203 49.4629C15.4637 49.617 15.1219 49.7798 14.7949 49.9512C10.4329 49.9512 6.07097 49.9512 1.70898 49.9512C0.895183 49.5931 0.309245 49.0071 -0.0488281 48.1934C-0.0488281 43.8314 -0.0488281 39.4694 -0.0488281 35.1074C0.122594 34.7805 0.285354 34.4387 0.439453 34.082C0.260673 33.773 0.0979131 33.4637 -0.0488281 33.1543C-0.0488281 28.7923 -0.0488281 24.4304 -0.0488281 20.0684C0.0817702 19.7274 0.277083 19.4183 0.537109 19.1406C0.327181 18.8333 0.131868 18.5241 -0.0488281 18.2129C-0.0488281 13.8184 -0.0488281 9.42383 -0.0488281 5.0293C0.300268 4.17595 0.918757 3.60629 1.80664 3.32031C6.13606 3.25521 10.4655 3.25521 14.7949 3.32031C15.7659 3.60762 16.3681 4.24239 16.6016 5.22461C16.6667 9.48894 16.6667 13.7532 16.6016 18.0176C16.5714 18.1412 16.5226 18.2552 16.4551 18.3594C20.7731 18.2003 25.1025 18.1678 29.4434 18.2617C30.6966 18.4733 31.429 19.2058 31.6406 20.459C31.7346 24.7998 31.7021 29.1292 31.543 33.4473C31.6472 33.3798 31.7611 33.331 31.8848 33.3008C36.1491 33.2356 40.4134 33.2356 44.6777 33.3008C45.66 33.5343 46.2947 34.1364 46.582 35.1074C46.6472 39.4368 46.6472 43.7663 46.582 48.0957C46.2961 48.9836 45.7264 49.6021 44.873 49.9512ZM2.09961 5.0293C6.2013 5.01302 10.3028 5.0293 14.4043 5.07813C14.544 5.12356 14.6579 5.20494 14.7461 5.32227C14.9077 9.44819 14.9403 13.5823 14.8438 17.7246C14.7983 17.8644 14.7169 17.9782 14.5996 18.0664C10.4737 18.228 6.33957 18.2606 2.19727 18.1641C2.02285 18.0874 1.87637 17.9735 1.75781 17.8223C1.69271 13.6882 1.69271 9.55404 1.75781 5.41992C1.89215 5.30224 2.00608 5.17203 2.09961 5.0293ZM2.29492 19.9707C6.29896 19.9544 10.3028 19.9707 14.3066 20.0195C14.4811 20.0962 14.6275 20.2101 14.7461 20.3613C14.9077 24.4547 14.9403 28.5563 14.8438 32.666C14.7671 32.8404 14.6532 32.9869 14.502 33.1055C10.4411 33.2671 6.37213 33.2996 2.29492 33.2031C2.11632 33.1765 1.96983 33.095 1.85547 32.959C1.69381 28.8005 1.66126 24.6339 1.75781 20.459C1.8898 20.2394 2.06884 20.0766 2.29492 19.9707ZM17.334 19.9707C21.3055 19.9544 25.2769 19.9707 29.248 20.0195C29.4773 20.0533 29.6563 20.1673 29.7852 20.3613C29.9463 24.4245 29.9788 28.4936 29.8828 32.5684C29.849 32.7977 29.7351 32.9767 29.541 33.1055C25.4477 33.2671 21.3461 33.2997 17.2363 33.2031C17.0619 33.1265 16.9154 33.0126 16.7969 32.8613C16.6353 28.768 16.6026 24.6664 16.6992 20.5566C16.8395 20.2693 17.0511 20.074 17.334 19.9707ZM2.19727 35.0098C6.26641 34.9935 10.3354 35.0098 14.4043 35.0586C14.544 35.104 14.6579 35.1855 14.7461 35.3027C14.9077 39.4286 14.9403 43.5628 14.8438 47.7051C14.7983 47.8448 14.7169 47.9587 14.5996 48.0469C10.4411 48.2085 6.27446 48.2411 2.09961 48.1445C1.98567 48.0306 1.87175 47.9167 1.75781 47.8027C1.69271 43.7012 1.69271 39.5996 1.75781 35.4981C1.85791 35.2845 2.00439 35.1217 2.19727 35.0098ZM17.1387 35.0098C21.2078 34.9935 25.2769 35.0098 29.3457 35.0586C29.5201 35.1353 29.6666 35.2491 29.7852 35.4004C29.9463 39.4636 29.9788 43.5326 29.8828 47.6074C29.8138 47.7618 29.7324 47.9083 29.6387 48.0469C25.4802 48.2085 21.3136 48.2411 17.1387 48.1445C16.9989 48.0991 16.8851 48.0177 16.7969 47.9004C16.6357 43.8046 16.6032 39.703 16.6992 35.5957C16.8293 35.3848 16.9758 35.1895 17.1387 35.0098ZM32.1777 35.0098C36.2469 34.9935 40.3159 35.0098 44.3848 35.0586C44.5245 35.104 44.6384 35.1855 44.7266 35.3027C44.8882 39.4612 44.9208 43.6278 44.8242 47.8027C44.7103 47.9167 44.5964 48.0306 44.4824 48.1445C40.3483 48.2097 36.2142 48.2097 32.0801 48.1445C31.9987 48.0632 31.9173 47.9817 31.8359 47.9004C31.6743 43.7745 31.6417 39.6403 31.7383 35.4981C31.8384 35.2845 31.9849 35.1217 32.1777 35.0098Z" fill="#C7844F"/>
<path opacity="0.938" fill-rule="evenodd" clip-rule="evenodd" d="M18.7012 4.93164C22.3146 4.91536 25.9279 4.93164 29.541 4.98047C30.2332 5.62834 30.1681 6.18172 29.3457 6.64063C25.8626 6.70573 22.3796 6.70573 18.8965 6.64063C18.4519 6.52098 18.2239 6.22801 18.2129 5.76172C18.2751 5.42353 18.4378 5.14683 18.7012 4.93164Z" fill="#C7844F"/>
<path opacity="0.885" fill-rule="evenodd" clip-rule="evenodd" d="M4.54103 6.59174C5.52426 6.47147 5.93115 6.89466 5.76173 7.86127C5.41993 8.33327 5.01303 8.74018 4.54103 9.08197C3.54819 9.26101 3.14129 8.85411 3.32033 7.86127C3.68138 7.38644 4.08828 6.96325 4.54103 6.59174Z" fill="#C7844F"/>
<path opacity="0.918" fill-rule="evenodd" clip-rule="evenodd" d="M8.74023 6.59174C9.75187 6.54427 10.1262 7 9.86328 7.95893C8.12174 9.70046 6.3802 11.442 4.63867 13.1835C3.46574 13.4751 3.05883 13.0357 3.41796 11.8652C5.1818 10.085 6.95588 8.3272 8.74023 6.59174Z" fill="#C7844F"/>
<path opacity="0.938" fill-rule="evenodd" clip-rule="evenodd" d="M18.7988 8.25195C22.3472 8.23568 25.8953 8.25195 29.4433 8.30078C29.9797 8.6076 30.1262 9.04705 29.8828 9.61914C29.754 9.81318 29.575 9.92715 29.3457 9.96094C25.8301 10.0261 22.3144 10.0261 18.7988 9.96094C18.023 9.38776 18.023 8.8181 18.7988 8.25195Z" fill="#C7844F"/>
<path opacity="0.938" fill-rule="evenodd" clip-rule="evenodd" d="M18.7988 11.5723C22.3472 11.556 25.8953 11.5723 29.4433 11.6211C30.2246 12.1745 30.2246 12.7278 29.4433 13.2813C25.8952 13.3464 22.347 13.3464 18.7988 13.2813C18.0255 12.7122 18.0255 12.1426 18.7988 11.5723Z" fill="#C7844F"/>
<path opacity="0.938" fill-rule="evenodd" clip-rule="evenodd" d="M18.7988 14.8926C22.3146 14.8763 25.8303 14.8926 29.3457 14.9414C29.962 15.1942 30.141 15.6336 29.8828 16.2598C29.7642 16.411 29.6178 16.5249 29.4433 16.6016C25.8952 16.6667 22.347 16.6667 18.7988 16.6016C18.0357 16.0362 18.0357 15.4666 18.7988 14.8926Z" fill="#C7844F"/>
<path opacity="0.902" fill-rule="evenodd" clip-rule="evenodd" d="M4.54102 21.6309C5.48422 21.4837 5.89112 21.8744 5.76173 22.8028C5.35243 23.4249 4.81532 23.8805 4.1504 24.17C3.38849 24.0807 3.1118 23.6575 3.32032 22.9004C3.68137 22.4256 4.08828 22.0024 4.54102 21.6309Z" fill="#C7844F"/>
<path opacity="0.92" fill-rule="evenodd" clip-rule="evenodd" d="M8.64257 21.6309C9.82236 21.519 10.1968 22.0073 9.76562 23.0957C8.08919 24.7722 6.41276 26.4486 4.73632 28.125C3.63861 28.558 3.16661 28.1837 3.32031 27.002C5.1141 25.2245 6.88819 23.4341 8.64257 21.6309Z" fill="#C7844F"/>
<path opacity="0.896" fill-rule="evenodd" clip-rule="evenodd" d="M19.4824 21.6309C20.6622 21.519 21.0366 22.0073 20.6055 23.0957C20.2558 23.511 19.8488 23.8528 19.3848 24.1211C18.5563 24.2042 18.182 23.8298 18.2617 22.9981C18.6526 22.5259 19.0596 22.0701 19.4824 21.6309Z" fill="#C7844F"/>
<path opacity="0.92" fill-rule="evenodd" clip-rule="evenodd" d="M23.6816 21.6308C24.6736 21.4997 25.0806 21.9228 24.9023 22.9003C23.1282 24.6745 21.3542 26.4485 19.5801 28.2226C18.8356 28.4689 18.38 28.2085 18.2129 27.4414C18.2528 27.2147 18.3343 27.0032 18.457 26.8066C20.1883 25.0589 21.9299 23.3337 23.6816 21.6308Z" fill="#C7844F"/>
<path opacity="0.904" fill-rule="evenodd" clip-rule="evenodd" d="M4.63867 36.5722C5.51538 36.5537 5.88973 36.9768 5.76172 37.8418C5.35003 38.4824 4.79664 38.9382 4.10156 39.209C3.35112 39.0426 3.0907 38.5869 3.32031 37.8418C3.74955 37.3961 4.18901 36.9728 4.63867 36.5722Z" fill="#C7844F"/>
<path opacity="0.92" fill-rule="evenodd" clip-rule="evenodd" d="M8.8379 36.5723C9.80011 36.5732 10.1419 37.029 9.86329 37.9395C8.12176 39.681 6.38022 41.4226 4.63868 43.1641C3.46 43.4501 3.05311 43.0106 3.41798 41.8457C5.18467 40.03 6.99131 38.2722 8.8379 36.5723Z" fill="#C7844F"/>
<path opacity="0.894" fill-rule="evenodd" clip-rule="evenodd" d="M19.6777 36.5723C20.6383 36.5719 20.9801 37.0275 20.7031 37.9395C20.3288 38.3138 19.9544 38.6882 19.5801 39.0625C18.6741 39.3177 18.2347 38.9759 18.2617 38.0371C18.6223 37.4325 19.0943 36.9442 19.6777 36.5723Z" fill="#C7844F"/>
<path opacity="0.918" fill-rule="evenodd" clip-rule="evenodd" d="M23.7793 36.5723C24.8418 36.5477 25.1836 37.036 24.8047 38.0371C23.0957 39.7461 21.3867 41.4551 19.6777 43.1641C18.5468 43.4979 18.1073 43.0909 18.3594 41.9434C20.1558 40.1307 21.9624 38.3403 23.7793 36.5723Z" fill="#C7844F"/>
<path opacity="0.898" fill-rule="evenodd" clip-rule="evenodd" d="M34.6192 36.5723C35.5676 36.4951 35.9419 36.9183 35.7422 37.8418C35.3367 38.4594 34.7996 38.9151 34.1309 39.209C33.4142 39.0784 33.1374 38.6551 33.3008 37.9395C33.6944 37.4321 34.1339 36.9763 34.6192 36.5723Z" fill="#C7844F"/>
<path opacity="0.919" fill-rule="evenodd" clip-rule="evenodd" d="M38.8184 36.5723C39.9051 36.6298 40.2144 37.1506 39.7461 38.1348C38.1023 39.7786 36.4583 41.4226 34.8145 43.0664C34.4143 43.3482 33.9911 43.3808 33.5449 43.1641C33.2224 42.7935 33.1735 42.3865 33.3984 41.9434C35.1948 40.1307 37.0015 38.3402 38.8184 36.5723Z" fill="#C7844F"/>
</g>
<defs>
<clipPath id="clip0_72_38">
<rect width="50" height="50" fill="white"/>
</clipPath>
</defs>
</svg>
