<svg width="50" height="50" viewBox="0 0 50 50" fill="none" xmlns="http://www.w3.org/2000/svg">
<path opacity="0.938" fill-rule="evenodd" clip-rule="evenodd" d="M8.44726 1.70899C19.4499 1.69271 30.4525 1.70899 41.4551 1.75781C41.6625 1.86735 41.8415 2.01384 41.9922 2.19727C44.3684 4.96419 46.7448 7.73112 49.1211 10.498C49.1862 22.9329 49.1862 35.3679 49.1211 47.8027C49.0846 47.8922 49.0357 47.9736 48.9746 48.0469C40.9747 48.1605 32.9669 48.2094 24.9512 48.1934C17.0085 48.1771 9.06574 48.1608 1.12304 48.1445C1.03356 48.108 0.952181 48.0592 0.878896 47.998C0.716498 35.5059 0.683945 23.0059 0.78124 10.498C3.32624 7.54704 5.88157 4.61735 8.44726 1.70899ZM9.42382 3.17383C19.7754 3.17383 30.1269 3.17383 40.4785 3.17383C40.4785 13.623 40.4785 24.0723 40.4785 34.5215C30.1269 34.5215 19.7754 34.5215 9.42382 34.5215C9.42382 24.0723 9.42382 13.623 9.42382 3.17383ZM7.86132 4.54102C7.97518 14.9739 7.99146 25.4231 7.91015 35.8887C6.0465 38.8675 4.15849 41.8297 2.24608 44.7754C2.18098 33.5449 2.18098 22.3145 2.24608 11.084C4.17487 8.94424 6.04661 6.76325 7.86132 4.54102ZM41.9434 4.54102C43.8244 6.73206 45.7287 8.91305 47.6562 11.084C47.7214 22.3145 47.7214 33.5449 47.6562 44.7754C45.7438 41.8297 43.8559 38.8675 41.9922 35.8887C41.9434 25.4396 41.927 14.9903 41.9434 4.54102ZM27.0996 25.6348C27.3087 25.925 27.5691 26.1691 27.8808 26.3672C27.6079 26.5423 27.3638 26.7539 27.1484 27.002C26.9189 26.7888 26.7073 26.5609 26.5137 26.3184C26.7112 26.0886 26.9065 25.8607 27.0996 25.6348ZM18.7012 27.6855C19.1223 28.1718 19.578 28.6275 20.0683 29.0527C19.5814 29.3771 19.1582 29.7677 18.7988 30.2246C18.4183 29.73 17.9626 29.323 17.4316 29.0039C17.9404 28.6417 18.3636 28.2022 18.7012 27.6855ZM9.61913 35.9863C11.0844 35.97 12.5492 35.9863 14.0137 36.0352C13.1141 37.4923 12.2515 38.9733 11.4258 40.4785C9.88573 40.6078 8.33955 40.6078 6.7871 40.4785C7.7337 38.9794 8.67771 37.482 9.61913 35.9863ZM15.6738 35.9863C16.9433 35.9863 18.2129 35.9863 19.4824 35.9863C19.1227 37.4902 18.7321 38.9876 18.3105 40.4785C16.5852 40.6087 14.86 40.6087 13.1348 40.4785C14.0329 39.0074 14.8793 37.5101 15.6738 35.9863ZM21.0449 35.9863C22.1843 35.9863 23.3235 35.9863 24.4629 35.9863C24.4629 37.5163 24.4629 39.0462 24.4629 40.5762C22.9329 40.5762 21.403 40.5762 19.873 40.5762C20.2484 39.0421 20.6391 37.5121 21.0449 35.9863ZM25.9277 35.9863C27.0671 35.9863 28.2063 35.9863 29.3457 35.9863C29.7363 37.5163 30.1269 39.0462 30.5176 40.5762C28.9876 40.5762 27.4577 40.5762 25.9277 40.5762C25.9277 39.0462 25.9277 37.5163 25.9277 35.9863ZM30.9082 35.9863C32.373 35.9863 33.8379 35.9863 35.3027 35.9863C35.8798 37.515 36.4982 39.0287 37.1582 40.5273C35.4645 40.6087 33.7719 40.5924 32.0801 40.4785C31.6291 38.9957 31.2385 37.4983 30.9082 35.9863ZM36.8652 36.084C37.9876 35.9708 39.1268 35.9545 40.2832 36.0352C41.2393 37.508 42.1834 38.9892 43.1152 40.4785C41.6518 40.5761 40.187 40.6087 38.7207 40.5762C38.1528 39.0509 37.5344 37.5535 36.8652 36.084ZM5.71288 42.041C7.30826 42.0247 8.90332 42.041 10.498 42.0898C9.63145 43.6115 8.75255 45.1252 7.86132 46.6309C6.16955 46.7447 4.47684 46.761 2.78319 46.6797C3.82283 45.1691 4.79939 43.6229 5.71288 42.041ZM12.2558 42.041C14.1441 42.0247 16.0322 42.041 17.9199 42.0898C17.5048 43.6035 17.0816 45.1172 16.6504 46.6309C14.2748 46.7447 11.8984 46.761 9.52147 46.6797C10.4464 45.1388 11.3578 43.5926 12.2558 42.041ZM19.3848 42.041C21.0774 42.041 22.7702 42.041 24.4629 42.041C24.4629 43.6035 24.4629 45.166 24.4629 46.7285C22.3796 46.7285 20.2962 46.7285 18.2129 46.7285C18.6342 45.1736 19.0248 43.6111 19.3848 42.041ZM25.9277 42.041C27.5882 42.0247 29.2483 42.041 30.9082 42.0898C31.3537 43.5948 31.7768 45.1085 32.1777 46.6309C30.0954 46.7285 28.0121 46.761 25.9277 46.7285C25.9277 45.166 25.9277 43.6035 25.9277 42.041ZM32.4707 42.041C34.2622 42.0085 36.0526 42.041 37.8418 42.1387C38.4892 43.6606 39.1077 45.1906 39.6973 46.7285C37.7105 46.761 35.7248 46.7285 33.7402 46.6309C33.3016 45.104 32.8784 43.574 32.4707 42.041ZM39.4043 42.1387C40.9836 42.0091 42.5786 42.0091 44.1894 42.1387C45.1468 43.6654 46.1233 45.1791 47.1191 46.6797C45.1977 46.761 43.2771 46.7447 41.3574 46.6309C40.723 45.1155 40.072 43.6182 39.4043 42.1387Z" fill="#C7844F"/>
<path opacity="0.924" fill-rule="evenodd" clip-rule="evenodd" d="M26.709 23.584C26.9714 23.5679 27.2318 23.5842 27.4902 23.6328C27.7723 23.9474 28.0164 24.2892 28.2227 24.6582C28.7477 25.1508 29.301 25.6065 29.8828 26.0254C30.0635 26.3147 30.0635 26.6077 29.8828 26.9043C29.484 27.1607 29.0772 27.4049 28.6621 27.6367C28.2347 28.0315 27.9254 28.5035 27.7344 29.0527C27.3898 29.3981 27.0153 29.4306 26.6113 29.1504C26.4278 28.7143 26.2163 28.2912 25.9766 27.8808C25.512 27.5262 25.0074 27.2333 24.4629 27.0019C24.0691 26.5659 24.1018 26.1591 24.5606 25.7812C25.528 25.2951 26.2441 24.5627 26.709 23.584ZM27.0996 25.6347C26.9065 25.8607 26.7112 26.0885 26.5137 26.3183C26.7073 26.5609 26.919 26.7887 27.1484 27.0019C27.3638 26.7539 27.6079 26.5423 27.8809 26.3672C27.5691 26.1691 27.3087 25.925 27.0996 25.6347Z" fill="#C7844F"/>
<path opacity="0.919" fill-rule="evenodd" clip-rule="evenodd" d="M18.4082 25.5371C18.6836 25.5125 18.9439 25.5613 19.1895 25.6836C19.9219 26.9368 20.9147 27.9296 22.168 28.6621C22.4033 29.1043 22.322 29.4786 21.9238 29.7851C20.673 30.2546 19.8104 31.1172 19.3359 32.373C18.9198 32.7561 18.4967 32.7561 18.0664 32.373C17.9303 31.596 17.5559 30.9612 16.9434 30.4687C16.4498 30.1568 15.9289 29.8963 15.3809 29.6875C15.0142 29.307 15.0142 28.9164 15.3809 28.5156C16.1775 28.1087 16.8773 27.5715 17.4805 26.9043C17.7414 26.4022 18.0506 25.9464 18.4082 25.5371ZM18.7012 27.6855C18.3636 28.2022 17.9404 28.6417 17.4316 29.0039C17.9626 29.323 18.4183 29.7299 18.7988 30.2246C19.1582 29.7676 19.5814 29.377 20.0684 29.0527C19.578 28.6275 19.1223 28.1717 18.7012 27.6855Z" fill="#C7844F"/>
</svg>
