<svg width="194" height="30" viewBox="0 0 194 30" fill="none" xmlns="http://www.w3.org/2000/svg">
<path d="M47.592 28V1.18H65.484V5.5H52.488V12.916H63.864V17.236H52.488V28H47.592ZM68.6858 28V1.18H73.5818V23.68H85.0658V28H68.6858ZM100.742 28.432C98.7735 28.432 96.9375 28.084 95.2335 27.388C93.5295 26.692 92.0415 25.72 90.7695 24.472C89.4975 23.224 88.5015 21.76 87.7815 20.08C87.0855 18.376 86.7375 16.54 86.7375 14.572C86.7375 12.58 87.0855 10.744 87.7815 9.064C88.4775 7.384 89.4615 5.92 90.7335 4.672C92.0055 3.424 93.4935 2.464 95.1975 1.792C96.9015 1.096 98.7495 0.747999 100.742 0.747999C102.734 0.747999 104.582 1.096 106.286 1.792C107.99 2.488 109.478 3.46 110.75 4.708C112.022 5.932 113.006 7.384 113.702 9.064C114.422 10.744 114.782 12.58 114.782 14.572C114.782 16.54 114.422 18.376 113.702 20.08C112.982 21.76 111.986 23.224 110.714 24.472C109.442 25.72 107.954 26.692 106.25 27.388C104.57 28.084 102.734 28.432 100.742 28.432ZM100.742 23.968C102.062 23.968 103.274 23.74 104.378 23.284C105.482 22.804 106.442 22.144 107.258 21.304C108.098 20.464 108.734 19.468 109.166 18.316C109.622 17.164 109.85 15.916 109.85 14.572C109.85 13.228 109.622 11.992 109.166 10.864C108.734 9.712 108.098 8.716 107.258 7.876C106.442 7.012 105.482 6.352 104.378 5.896C103.274 5.44 102.062 5.212 100.742 5.212C99.4455 5.212 98.2455 5.44 97.1415 5.896C96.0375 6.352 95.0655 7.012 94.2255 7.876C93.4095 8.716 92.7735 9.712 92.3175 10.864C91.8615 11.992 91.6335 13.228 91.6335 14.572C91.6335 15.916 91.8615 17.164 92.3175 18.316C92.7735 19.468 93.4095 20.464 94.2255 21.304C95.0655 22.144 96.0375 22.804 97.1415 23.284C98.2455 23.74 99.4455 23.968 100.742 23.968ZM119.135 28V1.18H129.107C130.931 1.18 132.539 1.516 133.931 2.188C135.347 2.836 136.451 3.796 137.243 5.068C138.035 6.316 138.431 7.84 138.431 9.64C138.431 11.488 137.987 13.06 137.099 14.356C136.235 15.652 135.059 16.612 133.571 17.236L139.727 28H134.183L127.595 16.228L130.763 18.1H124.031V28H119.135ZM124.031 13.78H129.179C130.067 13.78 130.835 13.612 131.483 13.276C132.131 12.916 132.635 12.424 132.995 11.8C133.355 11.176 133.535 10.456 133.535 9.64C133.535 8.8 133.355 8.08 132.995 7.48C132.635 6.856 132.131 6.376 131.483 6.04C130.835 5.68 130.067 5.5 129.179 5.5H124.031V13.78ZM142.936 28V1.18H160.756V5.5H147.832V12.376H160.036V16.696H147.832V23.68H160.756V28H142.936ZM164.346 28V1.18H169.026L179.07 14.824H176.838L186.666 1.18H191.346V28H186.414V6.76L188.322 7.228L178.134 20.8H177.558L167.622 7.228L169.242 6.76V28H164.346Z" fill="white"/>
<path d="M15.0101 -0.000113478L10.0078 5.00073L15.0101 10.0016L20.0123 5.00073L15.0101 -0.000113478Z" fill="#E85822"/>
<path d="M15.0078 10.0044L20.01 5.0036L25.0122 10.0044L20.01 15.0052L15.0078 10.0044Z" fill="#F5B335"/>
<path d="M19.8828 5.12531L24.885 0.124512L29.8872 5.12531L24.885 10.1261L19.8828 5.12531Z" fill="#F5DD48"/>
<path d="M5.12654 0.126935L0.125 5.12848L5.12654 10.13L10.1281 5.12848L5.12654 0.126935Z" fill="#F5DD48"/>
<path d="M24.9983 9.98707L19.9961 14.9879L24.9983 19.9888L30.0006 14.9879L24.9983 9.98707Z" fill="#CFD0D1"/>
<path d="M10.0101 5.0022L5.00781 10.0031L10.0101 15.0039L15.0123 10.003L10.0101 5.0022Z" fill="#F5B335"/>
<path d="M5.00545 10.0027L0.00390625 15.0042L5.00545 20.0058L10.007 15.0042L5.00545 10.0027Z" fill="#CFD0D1"/>
<path d="M15.0061 9.99525L10.0039 14.9961L15.0061 19.9969L20.0084 14.9961L15.0061 9.99525Z" fill="#00253A"/>
<path d="M20.0101 14.9957L15.0078 19.9966L20.0101 24.9974L25.0123 19.9966L20.0101 14.9957Z" fill="#245370"/>
<path d="M19.9961 24.9828L24.9983 19.9901L30.0005 24.9828L24.9983 29.9836L19.9961 24.9828Z" fill="#3D7A90"/>
<path d="M10.0022 14.9974L5 19.9982L10.0022 24.9991L15.0045 19.9982L10.0022 14.9974Z" fill="#245370"/>
<path d="M15.0061 19.9973L10.0039 24.9981L15.0061 29.999L20.0084 24.9981L15.0061 19.9973Z" fill="#3D7A90"/>
<path d="M5.00154 19.9968L0 24.9984L5.00154 29.9999L10.0031 24.9984L5.00154 19.9968Z" fill="#3D7A90"/>
</svg>
