<svg width="194" height="30" viewBox="0 0 194 30" fill="none" xmlns="http://www.w3.org/2000/svg">
<path d="M47.5915 28V1.18H65.4835V5.5H52.4875V12.916H63.8635V17.236H52.4875V28H47.5915ZM68.6852 28V1.18H73.5812V23.68H85.0652V28H68.6852ZM100.741 28.432C98.773 28.432 96.937 28.084 95.233 27.388C93.529 26.692 92.041 25.72 90.769 24.472C89.497 23.224 88.501 21.76 87.781 20.08C87.085 18.376 86.737 16.54 86.737 14.572C86.737 12.58 87.085 10.744 87.781 9.064C88.477 7.384 89.461 5.92 90.733 4.672C92.005 3.424 93.493 2.464 95.197 1.792C96.901 1.096 98.749 0.747999 100.741 0.747999C102.733 0.747999 104.581 1.096 106.285 1.792C107.989 2.488 109.477 3.46 110.749 4.708C112.021 5.932 113.005 7.384 113.701 9.064C114.421 10.744 114.781 12.58 114.781 14.572C114.781 16.54 114.421 18.376 113.701 20.08C112.981 21.76 111.985 23.224 110.713 24.472C109.441 25.72 107.953 26.692 106.249 27.388C104.569 28.084 102.733 28.432 100.741 28.432ZM100.741 23.968C102.061 23.968 103.273 23.74 104.377 23.284C105.481 22.804 106.441 22.144 107.257 21.304C108.097 20.464 108.733 19.468 109.165 18.316C109.621 17.164 109.849 15.916 109.849 14.572C109.849 13.228 109.621 11.992 109.165 10.864C108.733 9.712 108.097 8.716 107.257 7.876C106.441 7.012 105.481 6.352 104.377 5.896C103.273 5.44 102.061 5.212 100.741 5.212C99.445 5.212 98.245 5.44 97.141 5.896C96.037 6.352 95.065 7.012 94.225 7.876C93.409 8.716 92.773 9.712 92.317 10.864C91.861 11.992 91.633 13.228 91.633 14.572C91.633 15.916 91.861 17.164 92.317 18.316C92.773 19.468 93.409 20.464 94.225 21.304C95.065 22.144 96.037 22.804 97.141 23.284C98.245 23.74 99.445 23.968 100.741 23.968ZM119.134 28V1.18H129.106C130.93 1.18 132.538 1.516 133.93 2.188C135.346 2.836 136.45 3.796 137.242 5.068C138.034 6.316 138.43 7.84 138.43 9.64C138.43 11.488 137.986 13.06 137.098 14.356C136.234 15.652 135.058 16.612 133.57 17.236L139.726 28H134.182L127.594 16.228L130.762 18.1H124.03V28H119.134ZM124.03 13.78H129.178C130.066 13.78 130.834 13.612 131.482 13.276C132.13 12.916 132.634 12.424 132.994 11.8C133.354 11.176 133.534 10.456 133.534 9.64C133.534 8.8 133.354 8.08 132.994 7.48C132.634 6.856 132.13 6.376 131.482 6.04C130.834 5.68 130.066 5.5 129.178 5.5H124.03V13.78ZM142.935 28V1.18H160.755V5.5H147.831V12.376H160.035V16.696H147.831V23.68H160.755V28H142.935ZM164.345 28V1.18H169.025L179.069 14.824H176.837L186.665 1.18H191.345V28H186.413V6.76L188.321 7.228L178.133 20.8H177.557L167.621 7.228L169.241 6.76V28H164.345Z" fill="white"/>
<path d="M15.0093 -0.000357619L10.0071 5.00049L15.0093 10.0013L20.0116 5.00049L15.0093 -0.000357619Z" fill="#E85822"/>
<path d="M15.0091 10.0042L20.0113 5.00342L25.0135 10.0042L20.0113 15.005L15.0091 10.0042Z" fill="#F5B335"/>
<path d="M19.8818 5.12531L24.884 0.124512L29.8862 5.12531L24.884 10.1261L19.8818 5.12531Z" fill="#F5DD48"/>
<path d="M5.1261 0.126874L0.124557 5.12842L5.1261 10.13L10.1276 5.12842L5.1261 0.126874Z" fill="#F5DD48"/>
<path d="M24.997 9.98695L19.9948 14.9878L24.997 19.9886L29.9993 14.9878L24.997 9.98695Z" fill="#CFD0D1"/>
<path d="M10.0078 5.00208L5.00551 10.0029L10.0077 15.0038L15.01 10.0029L10.0078 5.00208Z" fill="#F5B335"/>
<path d="M5.0049 10.0029L0.00335693 15.0044L5.0049 20.0059L10.0064 15.0044L5.0049 10.0029Z" fill="#CFD0D1"/>
<path d="M15.0062 9.99476L10.0039 14.9956L15.0062 19.9965L20.0084 14.9956L15.0062 9.99476Z" fill="#00253A"/>
<path d="M20.0084 14.9957L15.0062 19.9966L20.0084 24.9974L25.0106 19.9966L20.0084 14.9957Z" fill="#245370"/>
<path d="M19.9951 24.9825L24.9973 19.9897L29.9995 24.9825L24.9973 29.9833L19.9951 24.9825Z" fill="#3D7A90"/>
<path d="M10.0041 14.9972L5.00186 19.998L10.0041 24.9989L15.0063 19.998L10.0041 14.9972Z" fill="#245370"/>
<path d="M15.0069 19.9972L10.0047 24.998L15.0069 29.9989L20.0091 24.998L15.0069 19.9972Z" fill="#3D7A90"/>
<path d="M5.00154 19.9965L0 24.998L5.00154 29.9996L10.0031 24.998L5.00154 19.9965Z" fill="#3D7A90"/>
</svg>
